<?xml version="1.0" encoding="utf-8"?>
<!-- Generator: Adobe Illustrator 16.0.0, SVG Export Plug-In . SVG Version: 6.00 Build 0)  -->
<!DOCTYPE svg PUBLIC "-//W3C//DTD SVG 1.1//EN" "http://www.w3.org/Graphics/SVG/1.1/DTD/svg11.dtd">
<svg version="1.1" id="Layer_2" xmlns="http://www.w3.org/2000/svg" xmlns:xlink="http://www.w3.org/1999/xlink" x="0px" y="0px"
	 width="100px" height="100px" viewBox="0 0 100 100" enable-background="new 0 0 100 100" xml:space="preserve">
<path d="M59.672,71.976c5.198,10.518,4.86,18.063-1.095,24.462c-0.149,0.16-0.375,0.218-0.578,0.157
	c-0.036-0.01-0.071-0.025-0.104-0.042c-0.227-0.121-0.345-0.38-0.286-0.631c1.243-5.282,1.433-8.672,1.456-11.55
	c0.021-1.636-0.273-3.364-0.585-5.194c-0.277-1.625-0.564-3.305-0.667-5.1c-0.061-1.042,0.821-2.102,0.922-2.22
	c0.125-0.144,0.312-0.217,0.501-0.193C59.424,71.688,59.588,71.805,59.672,71.976z M66.083,29.901
	c-5.338,0.958-7.258,7.121-7.929,12.121c-0.158,1.174,0.389,2.084,0.875,2.64c1.176,1.345,3.316,2.061,4.839,1.6
	c2.522-0.765,5.123-1.196,7.637-1.613l1.218-0.202l-0.044,1.231c-0.276,6.143-7.825,10.097-12.242,11.465
	c-2.359,0.731-5.067,1.117-7.832,1.117c0,0-0.001,0-0.002,0c-7.518,0-14.601-2.766-18.485-7.219c-2.86-3.278-4.039-7.438-3.41-12.03
	c0.15-1.093,0.366-4.736-3.135-5.7c-0.326-0.09-0.685-0.135-1.064-0.135c-1.945,0-4.21,1.211-4.479,3.167
	C20.36,48.549,25.825,58.866,36.65,63.942c4.754,2.229,10.128,3.408,15.539,3.408c6.29,0,12.452-1.559,17.82-4.507
	c5.906-3.244,10.122-8.746,11.277-14.719c0.956-4.941-0.276-9.673-3.562-13.685C74.734,30.789,70.453,29.112,66.083,29.901z
	 M58.631,20.458l7.648,2.997c0.094,0.037,0.191,0.055,0.289,0.055c0.215,0,0.427-0.088,0.58-0.252l5.419-5.856
	c0.172-0.186,0.244-0.443,0.195-0.691s-0.215-0.458-0.445-0.563l-7.793-3.573c-0.325-0.15-0.711-0.06-0.94,0.218l-5.275,6.433
	c-0.16,0.195-0.217,0.456-0.153,0.7C58.219,20.168,58.396,20.367,58.631,20.458z"/>
</svg>
