<?xml version="1.0" encoding="utf-8"?>
<!-- Generator: Adobe Illustrator 16.0.0, SVG Export Plug-In . SVG Version: 6.00 Build 0)  -->
<!DOCTYPE svg PUBLIC "-//W3C//DTD SVG 1.1//EN" "http://www.w3.org/Graphics/SVG/1.1/DTD/svg11.dtd">
<svg version="1.1" id="Layer_2" xmlns="http://www.w3.org/2000/svg" xmlns:xlink="http://www.w3.org/1999/xlink" x="0px" y="0px"
	 width="100px" height="100px" viewBox="0 0 100 100" enable-background="new 0 0 100 100" xml:space="preserve">
<path d="M34,65.909v4.193c0,0.552-0.448,1-1,1H11.463c-0.552,0-1-0.448-1-1v-38.71c0-0.552,0.448-1,1-1h4.997c0.552,0,1,0.448,1,1
	v33.518H33C33.553,64.909,34,65.357,34,65.909z M60.535,54.767c0,0.941-0.091,1.714-0.151,2.226l-0.027,0.239
	c-0.056,0.507-0.484,0.89-0.994,0.89H40.886c0.603,6.879,6.074,7.649,8.482,7.649c3.61,0,5.645-0.652,7.306-1.356
	c0.271-0.115,0.579-0.104,0.842,0.028c0.263,0.133,0.454,0.375,0.521,0.661l0.861,3.619c0.111,0.466-0.125,0.946-0.561,1.143
	c-1.831,0.826-4.992,1.811-9.658,1.811c-8.911,0-14.669-5.893-14.669-15.014c0-9.415,5.772-15.99,14.038-15.99
	C56.674,40.672,60.535,47.751,60.535,54.767z M41.078,52.503h12.541c-0.104-1.276-0.499-3.28-1.869-4.675
	c-1.002-1.02-2.383-1.538-4.104-1.538C43.565,46.291,41.695,49.801,41.078,52.503z M89.338,69.503L77.607,53.807l10.166-10.818
	c0.273-0.291,0.348-0.715,0.189-1.082c-0.159-0.366-0.519-0.603-0.918-0.603h-6.088c-0.293,0-0.572,0.129-0.762,0.352l-8.166,9.604
	c-0.243,0.294-0.521,0.635-0.813,0.996V29.324c0-0.552-0.448-1-1-1H65.22c-0.552,0-1,0.448-1,1v40.778c0,0.552,0.448,1,1,1h4.997
	c0.552,0,1-0.448,1-1V60.033l1.498-1.664l8.867,12.317c0.188,0.261,0.49,0.416,0.812,0.416h6.145c0.378,0,0.725-0.214,0.894-0.552
	S89.565,69.807,89.338,69.503z"/>
</svg>
