<?xml version="1.0" encoding="utf-8"?>
<!-- Generator: Adobe Illustrator 16.0.0, SVG Export Plug-In . SVG Version: 6.00 Build 0)  -->
<!DOCTYPE svg PUBLIC "-//W3C//DTD SVG 1.1//EN" "http://www.w3.org/Graphics/SVG/1.1/DTD/svg11.dtd">
<svg version="1.1" id="Layer_2" xmlns="http://www.w3.org/2000/svg" xmlns:xlink="http://www.w3.org/1999/xlink" x="0px" y="0px"
	 width="100px" height="100px" viewBox="0 0 100 100" enable-background="new 0 0 100 100" xml:space="preserve">
<path d="M64.063,10.265c-0.592,0-1.215,0.033-1.852,0.097c-5.167,0.525-9.775,4.21-11.679,10.239
	c-0.785,2.488-1.429,5.136-1.92,7.741l-0.979,5.438h-9.26c-1.224,0-2.219,0.995-2.219,2.219s0.995,2.219,2.219,2.219l8.654,0.01
	L44.75,56.888c-0.98,8.346-2.031,15.781-3.214,22.729c-0.697,4.105-2.733,6.258-6.213,6.555c0.644-0.896,0.999-2.012,0.999-3.199
	c0-2.822-2.028-5.117-4.521-5.117c-2.492,0-4.521,2.295-4.52,5.154c0.254,3.433,3.187,5.308,4.079,5.801
	c1.097,0.605,2.432,0.924,3.859,0.924c3.919,0,7.735-2.226,9.724-5.67c3.081-5.34,4.454-10.904,5.598-16.145
	c1.515-6.95,2.523-14.139,3.498-21.092c0.402-2.864,0.805-5.734,1.243-8.604l9.03-0.007c1.224,0,2.219-0.995,2.219-2.219
	s-0.995-2.219-2.219-2.219h-8.644c1.561-10.167,2.669-14.98,3.195-16.959c0.399-1.5,1.622-3.287,5.185-3.287
	c0.259,0,0.528,0.01,0.807,0.028c-0.442,0.957-0.888,2.006-0.888,2.731c0,2.413,1.963,4.375,4.375,4.375
	c2.413,0,4.376-1.963,4.376-4.375C72.719,14.729,71.128,10.265,64.063,10.265z"/>
</svg>
