<?xml version="1.0" encoding="utf-8"?>
<!-- Generator: Adobe Illustrator 16.0.0, SVG Export Plug-In . SVG Version: 6.00 Build 0)  -->
<!DOCTYPE svg PUBLIC "-//W3C//DTD SVG 1.1//EN" "http://www.w3.org/Graphics/SVG/1.1/DTD/svg11.dtd">
<svg version="1.1" id="Layer_2" xmlns="http://www.w3.org/2000/svg" xmlns:xlink="http://www.w3.org/1999/xlink" x="0px" y="0px"
	 width="100px" height="100px" viewBox="0 0 100 100" enable-background="new 0 0 100 100" xml:space="preserve">
<g>
	<path d="M35.692,33.091h-5.237c-0.42,0-0.8,0.265-0.944,0.658l-5.669,15.396c-1.027,2.911-1.822,5.324-2.454,7.447
		c-0.609-2.143-1.371-4.555-2.348-7.447l-5.427-15.383c-0.141-0.402-0.522-0.672-0.948-0.672H7.427c-0.553,0-1.005,0.45-1.007,1.004
		L6.347,65.901c0,0.271,0.104,0.524,0.294,0.711c0.189,0.191,0.443,0.296,0.713,0.296l3.247,0.001v-0.482l0.012,0.481
		c0.555,0,1.006-0.451,1.006-1.006c0-0.068-0.006-0.136-0.021-0.203l-0.003-20.414c0.516,1.673,1.11,3.513,1.815,5.606l5.171,15.148
		c0.14,0.406,0.522,0.681,0.952,0.681h3.114c0.423,0,0.804-0.268,0.945-0.664l5.59-15.429c0.814-2.227,1.541-4.304,2.198-6.281
		l-0.007,21.556c0,0.269,0.104,0.521,0.295,0.711c0.189,0.19,0.442,0.295,0.711,0.295h3.333c0.27,0,0.521-0.104,0.711-0.295
		c0.191-0.19,0.296-0.442,0.296-0.712l-0.021-31.805C36.699,33.542,36.247,33.091,35.692,33.091z"/>
	<path d="M92.646,33.454h-4.101c-0.555,0-1.007,0.451-1.007,1.007v12.147H74.346V34.461c0-0.556-0.452-1.007-1.007-1.007h-4.061
		c-0.555,0-1.007,0.451-1.007,1.007v31.438c0,0.555,0.452,1.006,1.007,1.006h4.061c0.555,0,1.007-0.451,1.007-1.006V52.165h13.193
		v13.733c0,0.555,0.452,1.006,1.007,1.006h4.101c0.555,0,1.007-0.451,1.007-1.006V34.461C93.653,33.905,93.201,33.454,92.646,33.454
		z"/>
	<path d="M51.41,33.546c-3.479,0-6.689,0.873-9.542,2.597c-0.404,0.244-0.585,0.745-0.431,1.189l0.932,2.702
		c0.099,0.285,0.316,0.509,0.598,0.613c0.276,0.104,0.597,0.078,0.854-0.069c2.112-1.213,4.767-1.909,7.281-1.909
		c4.136,0,6.062,2.126,6.062,6.69v0.159c-11.684,0.047-17.607,4.086-17.607,12.006c0,4.327,2.47,9.38,9.432,9.38
		c3.624,0,6.969-1.449,9.164-3.927l0.005,2.333c0.06,0.507,0.49,0.89,1,0.89H62.4c0.294,0,0.572-0.128,0.76-0.348
		c0.194-0.223,0.28-0.52,0.24-0.736l0.012-18.413C63.412,37.973,59.375,33.546,51.41,33.546z M49.677,61.781
		c-3.026,0-4.833-1.831-4.833-4.897c0-4.318,3.947-6.508,11.733-6.508c0.144,0,0.286,0.001,0.429,0.002l0.001,4.905
		c0,0.489-0.104,1.071-0.29,1.633C55.948,59.16,53.644,61.781,49.677,61.781z"/>
</g>
</svg>
