<?xml version="1.0" encoding="utf-8"?>
<!-- Generator: Adobe Illustrator 16.0.0, SVG Export Plug-In . SVG Version: 6.00 Build 0)  -->
<!DOCTYPE svg PUBLIC "-//W3C//DTD SVG 1.1//EN" "http://www.w3.org/Graphics/SVG/1.1/DTD/svg11.dtd">
<svg version="1.1" id="Layer_2" xmlns="http://www.w3.org/2000/svg" xmlns:xlink="http://www.w3.org/1999/xlink" x="0px" y="0px"
	 width="100px" height="100px" viewBox="0 0 100 100" enable-background="new 0 0 100 100" xml:space="preserve">
<g>
	<path d="M44.253,18.84c-5.811,0-10.304,2.097-13.691,6.402l-0.013-4.515c-0.002-0.505-0.415-0.917-0.92-0.918L23.158,19.8
		c-0.245,0-0.477,0.095-0.651,0.27c-0.172,0.171-0.27,0.409-0.27,0.651l-0.019,59.517c0,0.243,0.098,0.48,0.27,0.651
		c0.174,0.174,0.405,0.27,0.651,0.27h6.714c0.509,0,0.922-0.414,0.922-0.921V59.836c2.879,3.196,7.24,5.004,12.177,5.004
		c9.827,0,20.404-7.389,20.404-23.611C63.356,28.256,55.322,18.84,44.253,18.84z M43.057,56.997
		c-6.951,0-12.608-6.793-12.608-15.144c0-8.351,5.657-15.145,12.608-15.145c6.954,0,12.61,6.793,12.61,15.145
		C55.667,50.204,50.011,56.997,43.057,56.997z"/>
	<path d="M71.362,51.922c-3.72,0-6.419,2.541-6.419,6.042c0,3.607,2.639,6.126,6.419,6.126s6.419-2.484,6.419-6.04
		C77.781,54.5,75.082,51.922,71.362,51.922z"/>
</g>
</svg>
