<?xml version="1.0" encoding="utf-8"?>
<!-- Generator: Adobe Illustrator 16.0.0, SVG Export Plug-In . SVG Version: 6.00 Build 0)  -->
<!DOCTYPE svg PUBLIC "-//W3C//DTD SVG 1.1//EN" "http://www.w3.org/Graphics/SVG/1.1/DTD/svg11.dtd">
<svg version="1.1" id="Layer_2" xmlns="http://www.w3.org/2000/svg" xmlns:xlink="http://www.w3.org/1999/xlink" x="0px" y="0px"
	 width="100px" height="100px" viewBox="0 0 100 100" enable-background="new 0 0 100 100" xml:space="preserve">
<path d="M27.799,48.172c3.186-1.628,5.111-4.523,5.111-7.817c0-2.874-1.107-5.215-3.182-6.757c-2.33-1.885-5.465-2.725-10.166-2.725
	c-3.061,0-6.334,0.289-8.543,0.754c-0.27,0.057-0.463,0.295-0.463,0.571v35.116c0,0.291,0.217,0.538,0.504,0.578
	c1.162,0.161,3.645,0.43,7.23,0.43c6.002,0,10.168-1.142,12.748-3.501c2.119-2.059,3.195-4.605,3.195-7.569
	C34.234,52.365,31.016,49.432,27.799,48.172z M16.332,35.808c0.898-0.145,2.072-0.219,3.494-0.219c4.814,0,7.256,1.764,7.256,5.243
	c0,3.281-2.807,5.401-7.15,5.401h-3.6V35.808z M19.615,63.553c-1.453,0-2.516-0.042-3.283-0.133V50.896h3.23
	c2.594,0,8.633,0.614,8.633,6.302C28.195,62.728,22.818,63.553,19.615,63.553z M61.77,63.555v3.866c0,0.322-0.26,0.583-0.584,0.583
	H35.127c-0.322,0-0.584-0.261-0.584-0.583V64.72c0-0.118,0.035-0.233,0.102-0.33l19.293-28.218H36.822
	c-0.322,0-0.584-0.261-0.584-0.583v-3.867c0-0.323,0.262-0.583,0.584-0.583H60.92c0.324,0,0.584,0.261,0.584,0.583v2.807
	c0,0.118-0.035,0.232-0.102,0.329L42.215,62.971h18.971C61.51,62.971,61.77,63.232,61.77,63.555z M87.757,52.874
	c-0.427-1.154-1.071-2.133-1.92-2.91c-0.86-0.789-1.954-1.468-3.25-2.021c-1.153-0.492-2.511-0.977-4.022-1.447V35.367
	c2.538,0.618,3.927,2.284,4.128,4.985h0.007l0.02,0.303c0.045,1.258,1.069,2.242,2.33,2.242c1.348,0,2.375-1.001,2.389-2.329
	l-0.048-0.422c-0.34-5.525-3.236-8.585-8.825-9.314V24.83c0-1.254-1.02-2.273-2.272-2.273s-2.272,1.02-2.272,2.273v5.94
	c-0.998,0.121-1.941,0.336-2.805,0.669c-1.345,0.519-2.507,1.241-3.453,2.146c-0.943,0.903-1.675,1.982-2.174,3.209
	c-0.501,1.23-0.755,2.612-0.755,4.105c0,1.656,0.192,3.048,0.569,4.137c0.373,1.074,0.964,1.997,1.758,2.739
	c0.805,0.754,1.838,1.405,3.07,1.935c1.068,0.46,2.348,0.914,3.789,1.353v12.649c-3.258-0.707-4.976-2.865-5.11-6.451l-0.001-0.306
	c0-1.282-1.051-2.326-2.342-2.326c-1.369,0-2.373,0.98-2.388,2.33c0.337,6.89,3.565,10.634,9.841,11.418v5.988
	c0,1.254,1.02,2.273,2.272,2.273s2.272-1.02,2.272-2.273v-5.958c1.083-0.139,2.099-0.386,3.018-0.767
	c1.436-0.596,2.675-1.413,3.686-2.428c1.009-1.014,1.792-2.219,2.329-3.582c0.537-1.363,0.809-2.859,0.809-4.442
	C88.405,55.492,88.188,54.041,87.757,52.874z M74.02,45.079c-0.24-0.08-0.469-0.157-0.677-0.228
	c-1.14-0.395-1.966-0.788-2.523-1.202c-0.583-0.432-0.948-0.918-1.085-1.446c-0.123-0.48-0.186-1.111-0.186-1.872
	c0-0.874,0.176-1.655,0.525-2.324c0.351-0.668,0.836-1.224,1.447-1.653c0.598-0.421,1.301-0.741,2.088-0.951
	c0.134-0.036,0.271-0.065,0.41-0.095V45.079z M81.946,62.31c-0.816,0.781-1.953,1.282-3.382,1.513v-11.27
	c0.231,0.082,0.462,0.162,0.669,0.236c1.162,0.42,2.078,0.855,2.726,1.292c0.677,0.458,1.143,0.991,1.383,1.583
	c0.231,0.572,0.35,1.276,0.35,2.095C83.691,59.672,83.104,61.203,81.946,62.31z"/>
</svg>
