<?xml version="1.0" encoding="utf-8"?>
<!-- Generator: Adobe Illustrator 16.0.0, SVG Export Plug-In . SVG Version: 6.00 Build 0)  -->
<!DOCTYPE svg PUBLIC "-//W3C//DTD SVG 1.1//EN" "http://www.w3.org/Graphics/SVG/1.1/DTD/svg11.dtd">
<svg version="1.1" id="Layer_2" xmlns="http://www.w3.org/2000/svg" xmlns:xlink="http://www.w3.org/1999/xlink" x="0px" y="0px"
	 width="100px" height="100px" viewBox="0 0 100 100" enable-background="new 0 0 100 100" xml:space="preserve">
<path d="M83.044,41.765c-3.101-3.122-7.135-4.772-11.664-4.772c-5.256,0-9.699,1.935-12.663,5.481V20.429
	c0-0.501-0.408-0.908-0.908-0.908h-7.07c-0.5,0-0.908,0.407-0.908,0.908v47.539c0,3.516-0.167,7.524-0.323,10.103
	c-0.015,0.248,0.074,0.495,0.246,0.678c0.171,0.181,0.412,0.285,0.661,0.285h6.176c0.484,0,0.882-0.378,0.907-0.863l0.203-4.066
	c2.947,3.865,7.187,5.823,12.623,5.823c8.931,0,18.542-6.87,18.542-21.949C88.911,51.349,86.843,45.59,83.044,41.765z
	 M70.012,72.761c-6.743,0-12.228-6.479-12.228-14.443s5.485-14.443,12.228-14.443s12.228,6.479,12.228,14.443
	S76.754,72.761,70.012,72.761z M40.387,46.915c-1.21-1.109-2.749-2.066-4.574-2.845c-1.624-0.693-3.534-1.376-5.662-2.037V26.366
	c3.572,0.87,5.526,3.216,5.81,7.018h0.009l0.026,0.426c0.066,1.771,1.507,3.157,3.283,3.157c1.896,0,3.342-1.41,3.362-3.279
	l-0.067-0.593c-0.478-7.778-4.557-12.086-12.423-13.112v-8.45c0-1.764-1.436-3.2-3.2-3.2s-3.2,1.436-3.2,3.2v8.363
	c-1.405,0.169-2.732,0.474-3.947,0.942c-1.893,0.73-3.528,1.747-4.86,3.021c-1.329,1.271-2.358,2.791-3.061,4.519
	c-0.705,1.732-1.062,3.677-1.062,5.779c0,2.331,0.27,4.292,0.801,5.824c0.523,1.512,1.355,2.81,2.474,3.855
	c1.133,1.062,2.587,1.978,4.323,2.724c1.503,0.647,3.303,1.286,5.332,1.904v17.807c-4.585-0.994-7.004-4.033-7.193-9.081
	l-0.001-0.431c0-1.805-1.479-3.274-3.296-3.274c-1.928,0-3.341,1.379-3.361,3.279c0.475,9.7,5.02,14.971,13.852,16.074v8.43
	c0,1.764,1.436,3.2,3.2,3.2s3.2-1.436,3.2-3.2v-8.388c1.524-0.195,2.953-0.542,4.246-1.08c2.021-0.839,3.766-1.988,5.188-3.417
	c1.421-1.429,2.524-3.125,3.278-5.042c0.756-1.921,1.139-4.026,1.139-6.255c0-2.389-0.307-4.433-0.912-6.075
	C42.492,49.388,41.583,48.01,40.387,46.915z M23.751,40.039c-0.336-0.112-0.659-0.221-0.951-0.322
	c-1.605-0.555-2.767-1.108-3.553-1.691c-0.821-0.608-1.334-1.292-1.527-2.036c-0.174-0.676-0.263-1.563-0.263-2.635
	c0-1.23,0.25-2.33,0.741-3.271c0.492-0.941,1.177-1.723,2.037-2.327c0.843-0.594,1.833-1.044,2.94-1.339
	c0.189-0.051,0.383-0.091,0.576-0.134V40.039z M34.911,64.295c-1.149,1.098-2.75,1.805-4.759,2.13V50.56
	c0.324,0.114,0.649,0.228,0.94,0.333c1.637,0.591,2.928,1.203,3.838,1.819c0.952,0.645,1.606,1.395,1.945,2.228
	c0.327,0.805,0.492,1.797,0.492,2.95C37.368,60.582,36.541,62.737,34.911,64.295z"/>
</svg>
