<?xml version="1.0" encoding="utf-8"?>
<!-- Generator: Adobe Illustrator 16.0.0, SVG Export Plug-In . SVG Version: 6.00 Build 0)  -->
<!DOCTYPE svg PUBLIC "-//W3C//DTD SVG 1.1//EN" "http://www.w3.org/Graphics/SVG/1.1/DTD/svg11.dtd">
<svg version="1.1" id="Layer_2" xmlns="http://www.w3.org/2000/svg" xmlns:xlink="http://www.w3.org/1999/xlink" x="0px" y="0px"
	 width="100px" height="100px" viewBox="0 0 100 100" enable-background="new 0 0 100 100" xml:space="preserve">
<g>
	<path d="M22.521,50.581l19.219-24.037c0.277-0.346,0.321-0.821,0.115-1.206c-0.198-0.374-0.587-0.604-1.016-0.604h-8.219
		c-0.353,0-0.692,0.163-0.905,0.436L15.481,45.775V25.854c0-0.618-0.514-1.12-1.144-1.12H7.716c-0.631,0-1.145,0.502-1.145,1.12
		v48.293c0,0.618,0.514,1.12,1.145,1.12h6.621c0.63,0,1.144-0.502,1.144-1.12V56.832l0.965-0.017l17.375,18.1
		c0.216,0.224,0.519,0.352,0.832,0.352h7.839c0.436,0,0.841-0.248,1.034-0.638c0.197-0.406,0.128-0.887-0.18-1.229L22.521,50.581z"
		/>
	<path d="M93.398,26.763c0-0.811-0.661-1.47-1.471-1.47h-7.653c-0.614,0-1.168,0.387-1.38,0.961l-8.283,22.497
		c-1.501,4.254-2.663,7.78-3.586,10.882c-0.891-3.13-2.003-6.654-3.431-10.882l-7.929-22.477c-0.206-0.588-0.764-0.981-1.386-0.981
		h-7.654c-0.808,0-1.468,0.657-1.471,1.467l-0.107,46.476c0,0.396,0.153,0.766,0.43,1.038c0.277,0.28,0.648,0.433,1.042,0.433
		l4.745,0.001v-0.704l0.017,0.703c0.811,0,1.47-0.659,1.47-1.47c0-0.1-0.008-0.198-0.03-0.297L56.716,43.11
		c0.753,2.444,1.623,5.133,2.653,8.192l7.556,22.135c0.204,0.594,0.763,0.994,1.391,0.994h4.55c0.618,0,1.175-0.391,1.381-0.97
		l8.168-22.544c1.19-3.254,2.252-6.289,3.212-9.179l-0.01,31.497c0,0.393,0.153,0.762,0.431,1.039
		c0.276,0.278,0.646,0.431,1.039,0.431h4.87c0.394,0,0.762-0.152,1.039-0.431c0.28-0.278,0.433-0.646,0.433-1.04L93.398,26.763z"/>
</g>
</svg>
