<?xml version="1.0" encoding="utf-8"?>
<!-- Generator: Adobe Illustrator 16.0.0, SVG Export Plug-In . SVG Version: 6.00 Build 0)  -->
<!DOCTYPE svg PUBLIC "-//W3C//DTD SVG 1.1//EN" "http://www.w3.org/Graphics/SVG/1.1/DTD/svg11.dtd">
<svg version="1.1" id="Layer_2" xmlns="http://www.w3.org/2000/svg" xmlns:xlink="http://www.w3.org/1999/xlink" x="0px" y="0px"
	 width="100px" height="100px" viewBox="0 0 100 100" enable-background="new 0 0 100 100" xml:space="preserve">
<path d="M63.729,24.413c-3.821-3.438-9.635-5.181-17.271-5.181L31.81,19.111c-0.26,0.021-0.55,0.107-0.749,0.305
	s-0.312,0.466-0.312,0.747v59.675c0,0.581,0.471,1.051,1.052,1.051h7.631c0.58,0,1.051-0.471,1.051-1.051v-22.4
	c1.628,0.254,3.392,0.296,5.089,0.296c8.015,0,14.704-2.423,18.821-6.809c3.224-3.318,4.858-7.814,4.858-13.363
	C69.251,32.163,67.284,27.488,63.729,24.413z M45.746,49.491c-2.157,0-3.89-0.131-5.264-0.4V27.373l6.141,0.013
	c4.816,0,12.896,1.368,12.896,10.527C59.519,45.271,54.498,49.491,45.746,49.491z"/>
</svg>
