<?xml version="1.0" encoding="utf-8"?>
<!-- Generator: Adobe Illustrator 16.0.0, SVG Export Plug-In . SVG Version: 6.00 Build 0)  -->
<!DOCTYPE svg PUBLIC "-//W3C//DTD SVG 1.1//EN" "http://www.w3.org/Graphics/SVG/1.1/DTD/svg11.dtd">
<svg version="1.1" id="Layer_2" xmlns="http://www.w3.org/2000/svg" xmlns:xlink="http://www.w3.org/1999/xlink" x="0px" y="0px"
	 width="100px" height="100px" viewBox="0 0 100 100" enable-background="new 0 0 100 100" xml:space="preserve">
<path d="M39.017,50.614c4.843-4.063,6.654-7.828,6.654-13.727c0-4.037-1.462-7.548-4.106-9.882
	C38.35,24.097,33.803,22.8,26.817,22.8L14.583,22.84c-0.375,0.001-0.678,0.305-0.678,0.68v49.707c0,0.376,0.304,0.68,0.681,0.68
	h6.373c0.376,0,0.68-0.304,0.68-0.68V52.514h10.292l7.584,20.945c0.098,0.27,0.353,0.449,0.64,0.449h6.594
	c0.224,0,0.432-0.109,0.56-0.292c0.126-0.183,0.155-0.417,0.078-0.626L39.017,50.614z M27.479,46.318h-5.841V29.075l5.619-0.006
	c4.872,0.054,10.678,1.581,10.678,8.551C37.936,42.904,33.832,46.318,27.479,46.318z M83.143,53.752
	c-0.574-1.556-1.446-2.877-2.591-3.926c-1.161-1.063-2.636-1.98-4.384-2.727c-1.557-0.664-3.388-1.318-5.427-1.952V30.134
	c3.424,0.833,5.296,3.082,5.569,6.726h0.009l0.024,0.408c0.063,1.696,1.443,3.025,3.146,3.025c1.817,0,3.203-1.351,3.222-3.142
	l-0.064-0.569c-0.457-7.454-4.367-11.583-11.905-12.566v-8.098c0-1.691-1.376-3.066-3.066-3.066c-1.691,0-3.067,1.375-3.067,3.066
	v8.015c-1.346,0.163-2.617,0.455-3.781,0.904c-1.814,0.7-3.383,1.673-4.658,2.895c-1.273,1.219-2.261,2.675-2.934,4.331
	c-0.675,1.661-1.018,3.524-1.018,5.538c0,2.234,0.26,4.113,0.768,5.582c0.501,1.449,1.299,2.693,2.371,3.695
	c1.086,1.017,2.479,1.895,4.143,2.61c1.441,0.621,3.166,1.232,5.109,1.825v17.065c-4.394-0.952-6.711-3.865-6.893-8.702
	l-0.002-0.413c0-1.73-1.417-3.138-3.159-3.138c-1.847,0-3.202,1.322-3.221,3.143c0.456,9.295,4.811,14.347,13.274,15.404v8.079
	c0,1.691,1.376,3.066,3.067,3.066c1.69,0,3.066-1.375,3.066-3.066V74.71c1.462-0.187,2.831-0.52,4.069-1.034
	c1.938-0.803,3.61-1.906,4.973-3.276c1.362-1.369,2.419-2.994,3.142-4.831c0.726-1.841,1.092-3.858,1.092-5.994
	C84.017,57.285,83.723,55.326,83.143,53.752z M63.695,42.928c-1.537-0.532-2.65-1.062-3.403-1.621
	c-0.787-0.583-1.278-1.239-1.464-1.951c-0.166-0.648-0.251-1.499-0.251-2.525c0-1.179,0.238-2.233,0.71-3.136
	c0.471-0.901,1.127-1.651,1.951-2.229c0.809-0.569,1.757-1.001,2.816-1.283c0.182-0.049,0.369-0.088,0.553-0.128v13.182
	C64.284,43.128,63.977,43.025,63.695,42.928z M75.303,66.482c-1.101,1.053-2.636,1.73-4.562,2.042V53.319
	c0.311,0.109,0.623,0.218,0.901,0.319c1.57,0.566,2.806,1.153,3.678,1.743c0.912,0.617,1.541,1.336,1.865,2.134
	c0.313,0.772,0.472,1.722,0.472,2.828C77.657,62.924,76.865,64.989,75.303,66.482z"/>
</svg>
