<?xml version="1.0" encoding="utf-8"?>
<!-- Generator: Adobe Illustrator 16.0.0, SVG Export Plug-In . SVG Version: 6.00 Build 0)  -->
<!DOCTYPE svg PUBLIC "-//W3C//DTD SVG 1.1//EN" "http://www.w3.org/Graphics/SVG/1.1/DTD/svg11.dtd">
<svg version="1.1" id="Layer_2" xmlns="http://www.w3.org/2000/svg" xmlns:xlink="http://www.w3.org/1999/xlink" x="0px" y="0px"
	 width="100px" height="100px" viewBox="0 0 100 100" enable-background="new 0 0 100 100" xml:space="preserve">
<g>
	<path d="M89.39,48.338l-0.616-0.274l0.601-0.305c3.05-1.549,6.654-4.582,6.497-10.227C95.556,26.23,84.596,24.707,73.917,24.707
		l-14.903,0.002c-0.633,0-1.149,0.515-1.149,1.147v48c0,0.308,0.121,0.597,0.34,0.816c0.216,0.215,0.504,0.333,0.808,0.333
		l12.323,0.037c0.642,0.018,1.261,0.028,1.888,0.028c8.809,0,15.193-1.936,18.975-5.752c2.399-2.422,3.598-5.588,3.563-9.409
		C95.705,54.008,93.621,50.224,89.39,48.338z M78.626,44.139l-0.421,0.033c-0.219,0.019-0.333,0.016-0.542,0.007l-9.628,0V32.228
		l9.998,0.02c3.32,0,6.868,1.512,6.868,5.765c0.034,1.877-0.458,3.348-1.461,4.371C81.968,43.881,80.193,44.018,78.626,44.139z
		 M84.9,60.226c0.034,1.877-0.458,3.348-1.462,4.371c-1.607,1.637-4.166,1.813-5.192,1.813c-0.218,0-0.368-0.007-0.551-0.016
		l-9.661-0.002V54.415l9.78,0.047l0.149-0.001C81.317,54.461,84.9,55.973,84.9,60.226z"/>
	<path d="M47.644,24.862H14.843c-0.635,0-1.151,0.517-1.151,1.152V45.05c0,11.003-0.673,16.734-4.521,19.561
		c-0.877,0.733-2.446,1.37-4.093,1.66c-0.608,0.106-1.022,0.67-0.943,1.284l0.878,6.738c0.076,0.57,0.567,1,1.142,1
		c4.261,0,7.238-0.922,9.916-3.054c6.684-4.355,8.026-13.633,8.026-27.189V33.902h13.902v40.237c0,0.635,0.517,1.151,1.152,1.151
		h8.493c0.635,0,1.152-0.516,1.152-1.151V26.014C48.795,25.378,48.279,24.862,47.644,24.862z"/>
</g>
</svg>
