<?xml version="1.0" encoding="utf-8"?>
<!-- Generator: Adobe Illustrator 16.0.0, SVG Export Plug-In . SVG Version: 6.00 Build 0)  -->
<!DOCTYPE svg PUBLIC "-//W3C//DTD SVG 1.1//EN" "http://www.w3.org/Graphics/SVG/1.1/DTD/svg11.dtd">
<svg version="1.1" id="Layer_2" xmlns="http://www.w3.org/2000/svg" xmlns:xlink="http://www.w3.org/1999/xlink" x="0px" y="0px"
	 width="100px" height="100px" viewBox="0 0 100 100" enable-background="new 0 0 100 100" xml:space="preserve">
<path d="M68.379,50.803c-2.318-1.357-4.668-0.328-6.158,1.614c-0.564,0.735-1.273,1.475-2.064,2.183
	c-0.184-0.977-0.402-1.948-0.715-2.901c-2.102-6.429-7.643-9.108-13.918-9.927c-2.072-0.271-4.168-0.456-5.969-1.592
	c-1.049-0.661-1.176-2.941-1.16-4.431c0.043-4.438,2.65-10.166,6.254-12.85c5.232-3.9,13.527,0.392,18.93,1.88
	c5.605,1.544,7.98-7.139,2.393-8.679c-6.68-1.839-13.033-4.336-20.068-3.35c-6.346,0.89-11.016,6.616-13.656,12.022
	c-2.467,5.045-3.809,11.161-2.076,16.647c1.973,6.242,7.543,8.361,13.5,9.117c1.766,0.224,4.088,0.305,5.527,1.465
	c1.807,1.455,2.188,3.862,2.375,6.045c0.461,5.351-0.014,11.268-0.736,16.58c-0.115,0.852-0.281,1.695-0.471,2.534
	c-0.193-0.196-0.387-0.393-0.578-0.591c-1.439-1.507-2.752-3.139-4.068-4.753c-2.852-3.498-5.666-7.021-8.764-10.308
	c-3.986-4.231-10.34,2.145-6.363,6.364c3.34,3.543,6.352,7.362,9.432,11.127c2.221,2.712,4.58,5.75,7.695,7.489
	c3.658,2.043,7.684,0.804,9.797-2.734c2.605-4.363,2.459-10.371,2.793-15.244c0.072-1.051,0.146-2.115,0.211-3.182
	c0.063-0.032,0.131-0.05,0.191-0.085c3.703-2.109,6.703-4.92,9.281-8.281C71.49,55.009,70.295,51.926,68.379,50.803z"/>
</svg>
