<?xml version="1.0" encoding="utf-8"?>
<!-- Generator: Adobe Illustrator 16.0.0, SVG Export Plug-In . SVG Version: 6.00 Build 0)  -->
<!DOCTYPE svg PUBLIC "-//W3C//DTD SVG 1.1//EN" "http://www.w3.org/Graphics/SVG/1.1/DTD/svg11.dtd">
<svg version="1.1" id="Layer_2" xmlns="http://www.w3.org/2000/svg" xmlns:xlink="http://www.w3.org/1999/xlink" x="0px" y="0px"
	 width="100px" height="100px" viewBox="0 0 100 100" enable-background="new 0 0 100 100" xml:space="preserve">
<path d="M74.906,57.049c-0.993-1.078-2.181-1.618-3.564-1.618c-1.62,0-2.794,0.532-3.525,1.596
	c-0.731,1.065-1.346,2.442-1.841,4.132c-1.175,3.585-2.918,6.304-5.229,8.155c-2.098,1.68-4.625,2.59-7.572,2.745l10.432-39.593
	c0.703,1.025,1.363,2.175,1.977,3.463c0.913,1.924,1.743,3.28,2.487,4.067c0.744,0.787,1.86,1.18,3.349,1.18
	c1.331,0,2.468-0.568,3.408-1.705c0.939-1.137,1.41-2.449,1.41-3.936c0-2.71-0.966-5.589-2.898-8.636
	c-1.597-2.517-3.784-4.696-6.54-6.547l2.22-8.424c0.363-1.377-0.459-2.789-1.837-3.151c-1.377-0.361-2.789,0.46-3.151,1.837
	l-1.906,7.233c-1.538-0.61-3.159-1.053-4.856-1.339l1.433-5.44c0.363-1.377-0.459-2.789-1.837-3.151
	c-1.377-0.362-2.788,0.46-3.151,1.837l-1.681,6.38c-3.607,0.069-7.016,0.818-10.221,2.26c-3.368,1.516-6.305,3.724-8.812,6.625
	s-4.433,6.391-5.777,10.472c-1.346,4.081-2.018,8.701-2.018,13.861c0,3.178,0.268,6.181,0.803,9.008
	c0.535,2.828,1.338,5.487,2.409,7.979c1.07,2.493,2.362,4.745,3.877,6.757c1.155,1.508,2.393,2.8,3.699,3.91L33.077,88.07
	c-0.363,1.377,0.459,2.789,1.837,3.151c0.22,0.058,0.441,0.085,0.659,0.085c1.143,0,2.188-0.765,2.493-1.923l2.484-9.429
	c1.286,0.613,2.64,1.12,4.08,1.493c0.226,0.059,0.465,0.101,0.696,0.153l-1.931,7.329c-0.363,1.377,0.459,2.789,1.837,3.151
	c0.22,0.058,0.441,0.085,0.659,0.085c1.143,0,2.188-0.765,2.493-1.923l2.084-7.911c0.79,0.048,1.596,0.078,2.427,0.078
	c3.995,0,7.494-0.715,10.497-2.143c3.002-1.427,5.47-3.286,7.402-5.575s3.35-4.62,4.25-6.996c0.901-2.375,1.352-4.584,1.352-6.625
	C76.395,59.469,75.898,58.128,74.906,57.049z M39.088,62.445c-1.253-3.307-1.88-7.455-1.88-12.439
	c0-7.462,1.416-13.219,4.249-17.272c2.104-3.008,4.627-5.016,7.743-5.852l-9.662,36.668C39.384,63.195,39.233,62.829,39.088,62.445z
	 M44.2,69.643c-0.269-0.19-0.525-0.392-0.774-0.6l11.192-42.475c1.786,0.228,3.379,0.775,4.775,1.65L47.99,71.492
	C46.626,71.084,45.362,70.469,44.2,69.643z"/>
</svg>
