<?xml version="1.0" encoding="utf-8"?>
<!-- Generator: Adobe Illustrator 16.0.0, SVG Export Plug-In . SVG Version: 6.00 Build 0)  -->
<!DOCTYPE svg PUBLIC "-//W3C//DTD SVG 1.1//EN" "http://www.w3.org/Graphics/SVG/1.1/DTD/svg11.dtd">
<svg version="1.1" id="Layer_2" xmlns="http://www.w3.org/2000/svg" xmlns:xlink="http://www.w3.org/1999/xlink" x="0px" y="0px"
	 width="100px" height="100px" viewBox="0 0 100 100" enable-background="new 0 0 100 100" xml:space="preserve">
<path d="M87.522,54.685v25.959c0,0.301-0.243,0.544-0.544,0.544h-6.817c-0.3,0-0.543-0.243-0.543-0.544V55.583
	c0-8.162-3.111-12.302-9.245-12.302c-4.526,0-8.375,3.022-9.808,7.7c-0.331,0.912-0.516,2.187-0.516,3.523v26.139
	c0,0.301-0.243,0.544-0.543,0.544h-8.448c-0.3,0-0.544-0.243-0.544-0.543L50.481,37.17c0-0.145,0.058-0.283,0.159-0.385
	c0.103-0.103,0.24-0.159,0.385-0.159h7.17c0.145,0,0.283,0.058,0.385,0.16c0.103,0.103,0.159,0.241,0.158,0.387l-0.03,5.434
	c1.951-3.095,5.374-6.426,12.367-6.426C74.934,36.181,87.522,37.516,87.522,54.685z M26.573,59.403l16.984-21.242
	c0.244-0.306,0.283-0.726,0.102-1.065c-0.176-0.331-0.519-0.535-0.897-0.535h-7.265c-0.312,0-0.61,0.145-0.799,0.385L20.351,55.156
	V19.771c0-0.546-0.453-0.989-1.011-0.989h-5.851c-0.558,0-1.012,0.443-1.012,0.989v60.457c0,0.546,0.454,0.989,1.012,0.989h5.851
	c0.558,0,1.011-0.443,1.011-0.989V64.927l0.854-0.015L36.56,80.908c0.189,0.196,0.458,0.31,0.734,0.31h6.928
	c0.385,0,0.743-0.219,0.913-0.563c0.175-0.358,0.114-0.783-0.159-1.085L26.573,59.403z"/>
</svg>
