<?xml version="1.0" encoding="utf-8"?>
<!-- Generator: Adobe Illustrator 16.0.0, SVG Export Plug-In . SVG Version: 6.00 Build 0)  -->
<!DOCTYPE svg PUBLIC "-//W3C//DTD SVG 1.1//EN" "http://www.w3.org/Graphics/SVG/1.1/DTD/svg11.dtd">
<svg version="1.1" id="Layer_2" xmlns="http://www.w3.org/2000/svg" xmlns:xlink="http://www.w3.org/1999/xlink" x="0px" y="0px"
	 width="100px" height="100px" viewBox="0 0 100 100" enable-background="new 0 0 100 100" xml:space="preserve">
<path d="M83.854,38.468h-8.328c0.313-1.785,0.469-3.695,0.469-5.731c0-0.804-0.033-1.574-0.082-2.328h7.941
	c1.336,0,2.418-1.083,2.418-2.419c0-1.335-1.082-2.418-2.418-2.418h-8.648c-0.365-1.487-0.852-2.853-1.473-4.079
	c-1.506-2.977-3.51-5.359-6.014-7.146c-2.506-1.786-5.396-3.038-8.672-3.757c-3.273-0.718-6.662-1.077-10.164-1.077
	c0,0-11.471,0-17.516,0s-5.572,7.557-5.572,7.557v8.502h-9.648c-1.334,0-2.418,1.083-2.418,2.418c0,1.336,1.084,2.419,2.418,2.419
	h9.648v8.06h-9.648c-1.334,0-2.418,1.083-2.418,2.418c0,1.336,1.084,2.418,2.418,2.418h9.648v35.318c0,0.04-0.012,0.077-0.012,0.117
	v6.549c0,2.872,2.328,5.199,5.199,5.199s5.197-2.327,5.197-5.199v-1.813h0.02V57.378h9.898c9.91,0,17.373-2.066,22.381-6.2
	c2.547-2.102,4.439-4.73,5.691-7.874h9.684c1.336,0,2.418-1.082,2.418-2.418C86.271,39.551,85.189,38.468,83.854,38.468z
	 M36.199,18.918H46.99c2.486,0,4.834,0.21,7.039,0.63c2.209,0.421,4.125,1.165,5.756,2.233c1.451,0.952,2.605,2.228,3.502,3.79
	H36.199V18.918z M36.199,30.408h28.635c0.107,0.819,0.18,1.67,0.18,2.591c0,2.022-0.256,3.838-0.734,5.469h-28.08V30.408z
	 M60.729,44.032c-1.486,1.227-3.424,2.163-5.803,2.812c-2.383,0.648-5.309,0.972-8.775,0.972h-9.951v-4.512h25.305
	C61.256,43.554,61.006,43.804,60.729,44.032z"/>
</svg>
