<?xml version="1.0" encoding="utf-8"?>
<!-- Generator: Adobe Illustrator 16.0.0, SVG Export Plug-In . SVG Version: 6.00 Build 0)  -->
<!DOCTYPE svg PUBLIC "-//W3C//DTD SVG 1.1//EN" "http://www.w3.org/Graphics/SVG/1.1/DTD/svg11.dtd">
<svg version="1.1" id="Layer_2" xmlns="http://www.w3.org/2000/svg" xmlns:xlink="http://www.w3.org/1999/xlink" x="0px" y="0px"
	 width="100px" height="100px" viewBox="0 0 100 100" enable-background="new 0 0 100 100" xml:space="preserve">
<path d="M61.573,21.349c-0.067-0.102-0.075-0.232-0.017-0.34s0.17-0.175,0.292-0.175h5.497c0.113,0,0.22,0.06,0.28,0.157
	l4.642,7.472l4.641-7.472c0.061-0.097,0.166-0.157,0.281-0.157h5.414c0.121,0,0.233,0.067,0.291,0.174s0.053,0.237-0.015,0.339
	l-7.711,11.73c-0.062,0.093-0.166,0.149-0.276,0.149h-5.251c-0.109,0-0.213-0.055-0.275-0.147L61.573,21.349z M85.545,76.69
	l-1.64-5.578c-0.028-0.098-0.1-0.176-0.192-0.214c-0.096-0.038-0.201-0.031-0.289,0.019c-1.473,0.842-4.09,1.844-8.203,1.844
	c-9.462,0-13.697-7.374-13.697-14.682c0-8.683,5.406-14.516,13.451-14.516c3.98,0,6.592,1.001,8.728,1.94
	c0.088,0.04,0.192,0.038,0.281-0.007c0.089-0.044,0.151-0.126,0.173-0.222l1.231-5.414c0.032-0.147-0.037-0.298-0.171-0.367
	c-2.063-1.077-6.328-2.334-11.555-2.334c-12.023,0-20.102,8.275-20.102,20.593c0,12.608,8.906,21.414,21.66,21.414
	c4.417,0,8.231-1.125,10.156-2.085C85.519,77.009,85.592,76.844,85.545,76.69z M31.105,50.23l22.282-27.868
	c0.152-0.188,0.176-0.442,0.064-0.649c-0.11-0.212-0.331-0.341-0.574-0.341h-9.379c-0.196,0-0.394,0.094-0.512,0.244L23.281,46.628
	v-24.64c0-0.34-0.287-0.616-0.643-0.616h-7.554c-0.356,0-0.645,0.276-0.645,0.616v55.1c0,0.341,0.288,0.617,0.645,0.617h7.554
	c0.355,0,0.643-0.276,0.643-0.617V56.683l2.043-0.035l20.023,20.859c0.121,0.125,0.293,0.198,0.471,0.198h8.944
	c0.248,0,0.479-0.141,0.588-0.36c0.105-0.218,0.066-0.474-0.104-0.664L31.105,50.23z"/>
</svg>
