<?xml version="1.0" encoding="utf-8"?>
<!-- Generator: Adobe Illustrator 16.0.0, SVG Export Plug-In . SVG Version: 6.00 Build 0)  -->
<!DOCTYPE svg PUBLIC "-//W3C//DTD SVG 1.1//EN" "http://www.w3.org/Graphics/SVG/1.1/DTD/svg11.dtd">
<svg version="1.1" id="Layer_3" xmlns="http://www.w3.org/2000/svg" xmlns:xlink="http://www.w3.org/1999/xlink" x="0px" y="0px"
	 width="100px" height="100px" viewBox="0 0 100 100" enable-background="new 0 0 100 100" xml:space="preserve">
<path d="M68.992,63.41c0-7.974-5.207-13.201-15.448-15.57V27.07c7.415,0.763,8.723,4.249,8.723,11.349
	c0,0.365,0.168,0.709,0.457,0.934c0.288,0.224,0.661,0.301,1.017,0.212l3.887-0.992c0.542-0.139,0.914-0.639,0.887-1.198
	c-0.442-9.722-3.152-15.699-14.971-16.656V8.528c0-0.435-0.353-0.787-0.788-0.787h-5.512c-0.435,0-0.787,0.353-0.787,0.787v12.233
	c-10.034,1.006-15.131,6.522-15.131,16.468c0,7.891,5.097,13.095,15.131,15.497v20.89c-9.191-0.669-9.198-4.3-9.198-11.396
	c0-0.354-0.159-0.69-0.434-0.915c-0.275-0.225-0.637-0.315-0.983-0.242l-3.888,0.793c-0.568,0.116-0.968,0.626-0.944,1.205
	c0.38,9.512,1.74,15.984,15.447,16.887v11.524c0,0.435,0.352,0.787,0.787,0.787h5.512c0.435,0,0.788-0.353,0.788-0.787V79.877
	C63.788,78.87,68.992,73.354,68.992,63.41z M62.663,63.41c0,5.983-2.928,9.241-9.119,10.089V54.547
	C59.591,56.604,62.663,59.571,62.663,63.41z M46.457,45.983c-5.838-2.052-8.802-4.982-8.802-8.754c0-5.973,2.825-9.229,8.802-10.084
	V45.983z"/>
</svg>
