<?xml version="1.0" encoding="utf-8"?>
<!-- Generator: Adobe Illustrator 16.0.0, SVG Export Plug-In . SVG Version: 6.00 Build 0)  -->
<!DOCTYPE svg PUBLIC "-//W3C//DTD SVG 1.1//EN" "http://www.w3.org/Graphics/SVG/1.1/DTD/svg11.dtd">
<svg version="1.1" id="Layer_3" xmlns="http://www.w3.org/2000/svg" xmlns:xlink="http://www.w3.org/1999/xlink" x="0px" y="0px"
	 width="100px" height="100px" viewBox="0 0 100 100" enable-background="new 0 0 100 100" xml:space="preserve">
<path d="M64.807,32.533c-0.28-0.752-0.572-1.471-1.001-2.228c-0.211-0.403-0.388-0.691-0.58-1.024
	c-0.244-0.405-0.467-0.698-0.711-1.059c-0.983-1.362-2.156-2.722-3.617-3.949c-1.46-1.215-3.227-2.3-5.292-2.936
	c-0.841-0.266-1.731-0.446-2.645-0.54c0-1.315,0-2.831,0-4.35c0-2.077,0-4.154,0-5.712c0.005-0.097-0.015-0.192,0.021-0.285
	c0.055-0.093,0.05-0.185-0.061-0.273C50.736,10,50.562,9.831,50.398,9.673c-0.314-0.316-0.64-0.592-0.902-0.82
	c-0.247-0.226-0.501-0.405-0.65-0.526c-0.156-0.122-0.238-0.187-0.238-0.187s-0.083,0.064-0.239,0.187
	c-0.149,0.121-0.403,0.3-0.65,0.526c-0.263,0.228-0.588,0.504-0.901,0.82c-0.163,0.158-0.338,0.326-0.521,0.504
	c-0.112,0.088-0.117,0.18-0.062,0.273c0.036,0.093,0.015,0.188,0.02,0.285c0,1.558,0,3.635,0,5.712c0,1.664,0,3.316,0,4.714
	c-2.041,0.544-3.991,1.578-5.618,3.029c-1.819,1.595-3.215,3.716-4.036,6.077c-0.815,2.365-1.007,4.977-0.563,7.457
	c0.433,2.47,1.475,4.828,2.771,6.786c1.295,1.935,2.633,3.565,4.052,5.199c2.817,3.219,5.843,6.064,8.515,8.858
	c1.336,1.387,2.554,2.795,3.52,4.148c0.971,1.358,1.542,2.674,1.604,3.685c0.032,0.512-0.018,0.997-0.225,1.527
	c-0.179,0.513-0.563,1.123-0.943,1.607c-0.954,1.186-1.998,2.004-3.247,2.596c-2.467,1.167-5.454,1.15-7.966,0.396
	c-2.521-0.74-4.641-2.214-5.642-3.8c-1.006-1.589-0.86-3.029-0.185-4.39c0.692-1.329,1.678-2.374,2.344-3.05
	c0.697-0.706,1.07-1.083,1.07-1.083s-0.135,0.019-0.394,0.055c-0.263,0.03-0.631,0.111-1.135,0.241
	c-0.482,0.154-1.099,0.333-1.77,0.692c-0.678,0.345-1.455,0.818-2.195,1.59c-0.744,0.75-1.45,1.869-1.719,3.297
	c-0.276,1.428,0.043,3.055,0.764,4.435c1.464,2.786,4.146,4.871,7.387,6.183c0.97,0.384,2.008,0.684,3.091,0.896
	c-0.012,0.055-0.007,0.108,0.021,0.163c0.044,0.093,0.024,0.187,0.028,0.282c0,1.536,0,3.583,0,5.631c0,2.046,0,4.094,0,5.63
	c-0.005,0.096,0.016,0.189-0.021,0.281c-0.055,0.092-0.05,0.182,0.061,0.269c0.185,0.176,0.358,0.341,0.522,0.497
	c0.314,0.313,0.639,0.585,0.9,0.808c0.249,0.224,0.503,0.4,0.651,0.521c0.157,0.12,0.239,0.183,0.239,0.183s0.082-0.063,0.239-0.183
	c0.148-0.12,0.402-0.296,0.65-0.521c0.263-0.223,0.587-0.495,0.901-0.808c0.163-0.156,0.338-0.321,0.522-0.497
	c0.111-0.086,0.116-0.177,0.061-0.269c-0.036-0.092-0.015-0.186-0.021-0.281c0-1.536,0-3.583,0-5.63c0-2.049,0-4.096,0-5.631
	c0.004-0.07,0.001-0.14,0.012-0.208c1.185-0.119,2.388-0.364,3.572-0.808c2.016-0.727,3.993-2.056,5.482-3.643
	c0.834-0.901,1.542-1.834,2.125-3.047c0.58-1.183,0.926-2.606,0.942-4.011c0.021-1.411-0.297-2.751-0.73-3.935
	c-0.442-1.187-1.01-2.24-1.616-3.214c-1.217-1.943-2.636-3.562-4.034-5.129c-1.402-1.565-2.855-3.015-4.271-4.462
	c-1.413-1.447-2.795-2.884-4.114-4.324c-1.296-1.427-2.57-2.962-3.577-4.395c-0.999-1.406-1.649-2.831-1.977-4.325
	c-0.305-1.481-0.267-2.979,0.138-4.375c0.407-1.393,1.176-2.667,2.183-3.672c2.021-2.047,4.942-2.81,7.585-2.163
	c2.673,0.622,5.065,2.463,6.856,4.579c0.216,0.261,0.429,0.521,0.639,0.776c0.229,0.289,0.489,0.604,0.649,0.834
	c0.367,0.478,0.726,1.043,1.043,1.556c0.607,1.053,1.038,2.119,1.198,3.134c0.169,1.013,0.127,1.978-0.15,2.826
	c-0.269,0.853-0.763,1.561-1.316,2.129c-1.13,1.146-2.488,1.605-3.387,1.828c-0.923,0.208-1.449,0.233-1.449,0.233
	s0.126,0.027,0.373,0.08c0.246,0.056,0.619,0.119,1.115,0.144c0.978,0.059,2.545,0.004,4.306-1.02
	c0.876-0.501,1.741-1.314,2.408-2.412c0.655-1.096,1.097-2.493,1.106-3.97C65.646,35.563,65.333,34.032,64.807,32.533z"/>
</svg>
