<?xml version="1.0" encoding="utf-8"?>
<!-- Generator: Adobe Illustrator 16.0.0, SVG Export Plug-In . SVG Version: 6.00 Build 0)  -->
<!DOCTYPE svg PUBLIC "-//W3C//DTD SVG 1.1//EN" "http://www.w3.org/Graphics/SVG/1.1/DTD/svg11.dtd">
<svg version="1.1" id="Layer_3" xmlns="http://www.w3.org/2000/svg" xmlns:xlink="http://www.w3.org/1999/xlink" x="0px" y="0px"
	 width="100px" height="100px" viewBox="0 0 100 100" enable-background="new 0 0 100 100" xml:space="preserve">
<path d="M55.651,46.231h-1.177V27.699h12.804c2.082,0,3.769-1.688,3.769-3.77c0-2.082-1.687-3.77-3.769-3.77H54.475V7.753
	c0-2.081-1.688-3.769-3.771-3.769s-3.77,1.688-3.77,3.769V20.16h-2.586c-9.267,0-16.805,7.539-16.805,16.805
	c0,9.267,7.538,16.804,16.805,16.804h2.586v18.532H32.722c-2.081,0-3.769,1.688-3.769,3.771c0,2.081,1.688,3.769,3.769,3.769h14.213
	v12.407c0,2.081,1.688,3.769,3.77,3.769s3.771-1.688,3.771-3.769V79.84h1.177c9.267,0,16.805-7.539,16.805-16.805
	C72.456,53.769,64.918,46.231,55.651,46.231z M35.082,36.965c0-5.109,4.158-9.266,9.267-9.266h2.586v18.532h-2.586
	C39.24,46.231,35.082,42.074,35.082,36.965z M55.651,72.301h-1.177V53.769h1.177c5.108,0,9.267,4.157,9.267,9.267
	S60.76,72.301,55.651,72.301z"/>
</svg>
