<?xml version="1.0" encoding="utf-8"?>
<!-- Generator: Adobe Illustrator 16.0.0, SVG Export Plug-In . SVG Version: 6.00 Build 0)  -->
<!DOCTYPE svg PUBLIC "-//W3C//DTD SVG 1.1//EN" "http://www.w3.org/Graphics/SVG/1.1/DTD/svg11.dtd">
<svg version="1.1" id="Layer_3" xmlns="http://www.w3.org/2000/svg" xmlns:xlink="http://www.w3.org/1999/xlink" x="0px" y="0px"
	 width="100px" height="100px" viewBox="0 0 100 100" enable-background="new 0 0 100 100" xml:space="preserve">
<path d="M66.162,49.451c-2.838-2.262-7.025-4.459-12.799-6.717c-6.291-2.446-8.85-3.95-9.891-4.783
	c-1.229-0.982-1.801-2.269-1.801-4.047c0-1.271,0-5.14,10.141-5.14c5.443,0,10.383,0.88,14.682,2.615
	c0.51,0.206,1.084,0.176,1.57-0.083c0.484-0.258,0.832-0.717,0.947-1.255l1.938-9.064c0.205-0.957-0.367-1.91-1.309-2.179
	c-3.549-1.014-8.137-1.629-13.66-1.833V9.295c0.043-0.518-0.135-1.029-0.486-1.411c-0.354-0.381-0.85-0.599-1.367-0.599H47.75
	c-0.52,0-1.016,0.218-1.369,0.6s-0.529,0.895-0.486,1.413l0.053,8.089c-5.588,0.853-9.9,2.938-12.836,6.208
	c-3.219,3.588-4.852,7.792-4.852,12.496c0,5.448,2.338,10.081,6.961,13.777c2.707,2.131,6.928,4.325,12.908,6.708
	c4.557,1.799,7.701,3.37,9.346,4.668c1.709,1.35,2.541,2.917,2.541,4.79c0,3.494-4.064,5.265-12.078,5.265
	c-5.871,0-11.471-1.01-16.648-3.001c-0.508-0.196-1.078-0.16-1.557,0.102c-0.479,0.261-0.82,0.718-0.932,1.251l-1.939,9.189
	c-0.209,0.993,0.416,1.97,1.404,2.198c5.516,1.274,11.416,1.976,17.566,2.094l0.033,7.611c-0.029,0.512,0.078,1.014,0.43,1.387
	c0.352,0.374,0.842,0.585,1.355,0.585h6.477c0.008,0,0.016,0,0.023,0c1.029,0,1.861-0.833,1.861-1.861
	c0-0.143-0.016-0.283-0.047-0.417l0.025-7.927c11.254-1.982,17.188-8.667,17.188-19.413C73.178,57.775,70.818,53.186,66.162,49.451z
	"/>
</svg>
