<?xml version="1.0" encoding="utf-8"?>
<!-- Generator: Adobe Illustrator 16.0.0, SVG Export Plug-In . SVG Version: 6.00 Build 0)  -->
<!DOCTYPE svg PUBLIC "-//W3C//DTD SVG 1.1//EN" "http://www.w3.org/Graphics/SVG/1.1/DTD/svg11.dtd">
<svg version="1.1" id="Layer_3" xmlns="http://www.w3.org/2000/svg" xmlns:xlink="http://www.w3.org/1999/xlink" x="0px" y="0px"
	 width="100px" height="100px" viewBox="0 0 100 100" enable-background="new 0 0 100 100" xml:space="preserve">
<path d="M64.391,24.355c-2.638-2.594-5.744-3.909-9.228-3.909h-2.256V7.591c0-1.561-1.266-2.827-2.827-2.827
	s-2.827,1.266-2.827,2.827v12.855h-2.451c-3.511,0-6.618,1.311-9.234,3.896c-2.624,2.595-3.955,5.697-3.955,9.221v7.691
	c0,4.259,1.838,7.825,5.313,10.311c0.34,0.243,0.73,0.408,1.141,0.483l9.185,1.661v22.674h-2.487c-1.997,0-3.711-0.735-5.24-2.246
	c-1.52-1.502-2.258-3.208-2.258-5.218v-4.557c0-1.562-1.266-2.827-2.827-2.827s-2.827,1.266-2.827,2.827v4.557
	c0,3.548,1.325,6.657,3.938,9.239c2.603,2.574,5.704,3.879,9.215,3.879h2.487v10.372c0,1.561,1.266,2.827,2.827,2.827
	s2.827-1.266,2.827-2.827V82.037h1.373c3.483,0,6.585-1.307,9.222-3.885c2.656-2.596,4.001-5.713,4.001-9.268v-7.691
	c0-4.181-1.787-7.702-5.169-10.188c-0.184-0.14-0.384-0.258-0.602-0.352c-0.216-0.093-0.441-0.158-0.668-0.193l-8.156-1.476V26.101
	h2.256c1.977,0,3.698,0.748,5.263,2.286c1.551,1.526,2.306,3.23,2.306,5.212v4.521c0,1.562,1.266,2.827,2.828,2.827
	c1.561,0,2.827-1.266,2.827-2.827v-4.521C68.387,30.072,67.042,26.962,64.391,24.355z M59.432,55.912
	c1.646,1.374,2.417,3.067,2.417,5.281v7.691c0,2.002-0.752,3.711-2.3,5.224c-1.565,1.53-3.289,2.275-5.269,2.275h-1.373V54.732
	L59.432,55.912z M47.252,47.962l-7.51-1.358c-1.685-1.379-2.475-3.094-2.475-5.35v-7.691c0-1.985,0.744-3.686,2.275-5.2
	c1.541-1.523,3.261-2.263,5.259-2.263h2.451V47.962z"/>
</svg>
