<?xml version="1.0" encoding="utf-8"?>
<!-- Generator: Adobe Illustrator 16.0.0, SVG Export Plug-In . SVG Version: 6.00 Build 0)  -->
<!DOCTYPE svg PUBLIC "-//W3C//DTD SVG 1.1//EN" "http://www.w3.org/Graphics/SVG/1.1/DTD/svg11.dtd">
<svg version="1.1" id="Layer_3" xmlns="http://www.w3.org/2000/svg" xmlns:xlink="http://www.w3.org/1999/xlink" x="0px" y="0px"
	 width="100px" height="100px" viewBox="0 0 100 100" enable-background="new 0 0 100 100" xml:space="preserve">
<path d="M68.958,57.197c-0.644-1.754-1.638-3.331-2.979-4.727c-1.344-1.397-3.053-2.686-5.129-3.867
	c-2.078-1.182-4.567-2.381-7.467-3.599c-0.066-0.027-0.126-0.053-0.191-0.08l1.946-19.271c0.886,0.489,1.639,1.134,2.247,1.95
	c1.521,2.041,2.281,4.906,2.281,8.594c2.543,0,4.502-0.6,5.883-1.8c1.377-1.199,2.067-2.801,2.067-4.807
	c0-1.36-0.341-2.658-1.021-3.893c-0.681-1.236-1.701-2.31-3.063-3.223c-1.36-0.913-3.043-1.638-5.047-2.176
	c-0.858-0.229-1.784-0.4-2.753-0.531l1.037-10.281l-5.304-0.536l-1.067,10.575c-2.656,0.076-5.109,0.395-7.329,0.988
	c-2.542,0.681-4.726,1.675-6.552,2.981c-1.826,1.307-3.231,2.927-4.217,4.86c-0.984,1.934-1.476,4.155-1.476,6.66
	c0,2.399,0.339,4.467,1.02,6.204c0.681,1.737,1.701,3.285,3.061,4.646c1.361,1.361,3.089,2.623,5.184,3.786
	c1.977,1.099,4.291,2.238,6.922,3.415l-2.188,21.65c-0.553-0.158-1.082-0.34-1.564-0.574c-1.522-0.733-2.749-1.736-3.68-3.007
	s-1.594-2.748-1.986-4.432c-0.396-1.683-0.592-3.491-0.592-5.425c-0.645,0-1.37,0.117-2.175,0.35
	c-0.806,0.233-1.558,0.636-2.256,1.208c-0.698,0.573-1.29,1.352-1.773,2.336c-0.482,0.985-0.724,2.212-0.724,3.679
	c0,1.934,0.429,3.625,1.289,5.075c0.858,1.451,2.076,2.668,3.652,3.653c1.574,0.985,3.481,1.718,5.719,2.202
	c1.11,0.24,2.286,0.419,3.523,0.54l-1.029,10.192l5.303,0.536l1.07-10.582c2.716-0.089,5.229-0.423,7.514-1.035
	c2.668-0.716,4.95-1.799,6.848-3.25c1.898-1.45,3.365-3.249,4.404-5.397s1.559-4.654,1.559-7.52
	C69.926,60.975,69.604,58.952,68.958,57.197z M47.127,42.292c-1.738-0.805-3.152-1.638-4.244-2.497
	c-1.093-0.86-1.889-1.799-2.39-2.82c-0.502-1.02-0.752-2.229-0.752-3.625c0-1.289,0.196-2.47,0.591-3.544
	c0.394-1.074,1.012-2.005,1.854-2.793c0.84-0.787,1.924-1.396,3.248-1.827c1.245-0.404,2.737-0.61,4.458-0.634l-1.835,18.165
	C47.74,42.573,47.422,42.43,47.127,42.292z M60.204,69.308c-0.538,1.235-1.316,2.292-2.337,3.169
	c-1.02,0.878-2.282,1.558-3.785,2.041c-1.173,0.377-2.493,0.602-3.949,0.685l2.002-19.818c0.693,0.33,1.355,0.651,1.947,0.954
	c1.753,0.895,3.143,1.772,4.162,2.631c1.021,0.859,1.736,1.781,2.147,2.766c0.412,0.985,0.618,2.158,0.618,3.518
	C61.01,66.722,60.741,68.073,60.204,69.308z"/>
</svg>
