<?xml version="1.0" encoding="utf-8"?>
<!-- Generator: Adobe Illustrator 16.0.0, SVG Export Plug-In . SVG Version: 6.00 Build 0)  -->
<!DOCTYPE svg PUBLIC "-//W3C//DTD SVG 1.1//EN" "http://www.w3.org/Graphics/SVG/1.1/DTD/svg11.dtd">
<svg version="1.1" id="Layer_3" xmlns="http://www.w3.org/2000/svg" xmlns:xlink="http://www.w3.org/1999/xlink" x="0px" y="0px"
	 width="100px" height="100px" viewBox="0 0 100 100" enable-background="new 0 0 100 100" xml:space="preserve">
<path d="M65.982,65.528c0.303-6.971-4.418-12.029-8.545-15.019l-0.762-0.546l-3.719-2.654V23.475
	c6.209,1.239,7.957,6.122,8.787,9.817c0.404,0.528,1.775,0.332,2.137-0.163c0.154-3.569-0.402-8.362-1.08-10.436
	c-0.68-0.03-1.863-0.251-2.953-0.64c-1.922-0.607-4.502-1.177-6.891-1.384V8.511c0-1.139-0.922-2.062-2.061-2.062
	s-2.063,0.923-2.063,2.062v12.166c-9.127,0.735-14.5,6.526-14.816,13.795c-0.303,6.971,4.416,12.029,8.545,15.019l0.762,0.546
	l5.51,3.934v22.796c-7.678-0.59-9.674-6.029-10.578-10.058c-0.402-0.528-1.775-0.332-2.137,0.163
	c-0.154,3.569,0.402,8.362,1.08,10.436c0.68,0.03,1.863,0.251,2.953,0.64c2.184,0.69,5.221,1.333,7.857,1.448
	c0.281,0.012,0.549,0.001,0.824,0.004v12.091c0,1.139,0.924,2.062,2.063,2.062s2.061-0.923,2.061-2.062V79.107
	C60.992,77.799,65.688,72.308,65.982,65.528z M46.85,42.948c-3.061-2.091-6.986-5.838-6.771-10.768
	c0.156-3.615,1.912-8.534,8.756-8.971v21.156L46.85,42.948z M52.957,76.55V56.913l0.193,0.139c3.061,2.091,6.986,5.838,6.771,10.768
	C59.779,71.095,58.32,75.436,52.957,76.55z"/>
</svg>
