<?xml version="1.0" encoding="utf-8"?>
<!-- Generator: Adobe Illustrator 16.0.0, SVG Export Plug-In . SVG Version: 6.00 Build 0)  -->
<!DOCTYPE svg PUBLIC "-//W3C//DTD SVG 1.1//EN" "http://www.w3.org/Graphics/SVG/1.1/DTD/svg11.dtd">
<svg version="1.1" id="Layer_3" xmlns="http://www.w3.org/2000/svg" xmlns:xlink="http://www.w3.org/1999/xlink" x="0px" y="0px"
	 width="100px" height="100px" viewBox="0 0 100 100" enable-background="new 0 0 100 100" xml:space="preserve">
<path d="M68.762,62.514c-0.046-0.531-0.146-1.054-0.266-1.575c-0.089-0.527-0.294-1.025-0.435-1.54
	c-0.203-0.493-0.379-1-0.623-1.474c-0.244-0.475-0.477-0.956-0.78-1.402c-0.276-0.468-0.59-0.892-0.91-1.307
	c-0.652-0.855-1.408-1.611-2.196-2.327c-0.804-0.698-1.637-1.358-2.507-1.963c-0.865-0.612-1.756-1.188-2.665-1.729
	c-0.905-0.549-1.828-1.066-2.763-1.561c-0.861-0.477-1.751-0.898-2.629-1.344l0.151-22.749l1.07,0.076
	c0.524,0.042,1.043,0.132,1.564,0.195c0.524,0.056,1.029,0.197,1.545,0.29c0.519,0.086,1.013,0.263,1.517,0.395
	c0.51,0.122,0.984,0.339,1.476,0.509c0.497,0.161,0.946,0.426,1.421,0.633c0.472,0.216,0.898,0.512,1.351,0.762
	c0.226,0.126,0.423,0.295,0.636,0.44l0.628,0.452l0.016,0.012c0.095,0.068,0.211,0.108,0.337,0.109
	c0.32,0.002,0.583-0.256,0.584-0.577l0.051-7.562v-0.033c0.001-0.196-0.1-0.386-0.28-0.491l-0.724-0.422
	c-0.238-0.152-0.492-0.25-0.743-0.361c-0.499-0.237-1.009-0.411-1.524-0.571c-0.51-0.187-1.033-0.282-1.551-0.419
	c-0.518-0.14-1.042-0.204-1.563-0.309c-0.521-0.108-1.045-0.151-1.568-0.228c-0.521-0.078-1.045-0.122-1.568-0.167
	c-0.816-0.085-1.63-0.125-2.445-0.167l0.048-7.152c0.003-0.42-0.336-0.763-0.756-0.766h-0.01l-4.626-0.031
	c-0.437-0.003-0.793,0.349-0.797,0.786v0.011l-0.048,7.289l-0.89,0.151c-0.535,0.118-1.065,0.263-1.599,0.395
	c-0.527,0.153-1.044,0.349-1.566,0.523c-0.516,0.195-1.015,0.438-1.521,0.656c-0.496,0.241-0.973,0.527-1.46,0.79
	c-0.472,0.288-0.922,0.612-1.384,0.918c-0.448,0.336-0.882,0.708-1.321,1.063c-0.402,0.364-0.764,0.731-1.148,1.097
	c-0.426,0.451-0.745,0.844-1.123,1.271c-0.343,0.436-0.656,0.897-0.986,1.347c-0.296,0.472-0.569,0.961-0.854,1.441
	c-0.237,0.507-0.478,1.014-0.7,1.528c-0.179,0.53-0.381,1.055-0.535,1.593c-0.124,0.547-0.28,1.08-0.373,1.642
	c-0.071,0.559-0.182,1.156-0.211,1.685l-0.04,0.789l-0.021,0.395c-0.001,0.086-0.009,0.084-0.007,0.244l0.006,0.207
	c0.021,1.106,0.082,2.222,0.306,3.321c0.188,1.104,0.519,2.188,0.934,3.236c0.411,1.006,1.025,2.143,1.597,2.956
	c0.33,0.512,0.717,0.916,1.076,1.376c0.397,0.399,0.792,0.803,1.199,1.187l1.267,1.069l1.316,0.972
	c0.897,0.608,1.794,1.222,2.724,1.757c0.918,0.566,1.857,1.077,2.797,1.587c0.716,0.394,1.445,0.755,2.172,1.122l-0.139,20.628
	c-0.201-0.012-0.403-0.021-0.604-0.037c-0.643-0.1-1.291-0.184-1.93-0.293l-1.873-0.435l-1.977-0.618
	c-0.244-0.067-0.596-0.227-0.889-0.335l-0.92-0.361c-0.62-0.229-1.175-0.557-1.767-0.829c-0.596-0.27-1.097-0.654-1.652-0.971
	c-0.284-0.153-0.505-0.371-0.756-0.556l-0.736-0.574l-0.06-0.048c-0.245-0.19-0.551-0.304-0.884-0.306
	c-0.804-0.006-1.458,0.641-1.463,1.443l-0.052,7.74l-0.001,0.047c-0.002,0.48,0.243,0.95,0.687,1.214l0.93,0.552
	c0.313,0.175,0.612,0.385,0.939,0.531c0.651,0.297,1.282,0.655,1.953,0.896c0.67,0.242,1.326,0.542,2.013,0.719
	c0.683,0.193,1.357,0.427,2.05,0.556c0.69,0.142,1.377,0.325,2.072,0.408c0.694,0.09,1.388,0.238,2.083,0.279
	c0.694,0.054,1.391,0.139,2.085,0.166l0.462,0.015l-0.052,7.74c-0.005,0.917,0.733,1.665,1.648,1.671h0.022l4.626,0.031
	c0.934,0.006,1.695-0.745,1.702-1.679v-0.022l0.063-9.652l0.003-0.335c0.216-0.048,0.422-0.106,0.634-0.158
	c0.23-0.044,0.46-0.092,0.688-0.155c0.516-0.112,1.009-0.297,1.513-0.455c0.506-0.148,0.993-0.351,1.479-0.554
	c0.494-0.186,0.969-0.416,1.436-0.663l0.703-0.361l0.674-0.417c0.224-0.141,0.452-0.274,0.67-0.422l0.635-0.477
	c0.437-0.306,0.828-0.657,1.213-1.016c0.402-0.339,0.759-0.742,1.111-1.132c0.376-0.376,0.671-0.818,0.994-1.239
	c0.625-0.856,1.124-1.798,1.554-2.77c0.192-0.494,0.36-0.999,0.531-1.501c0.117-0.518,0.264-1.029,0.356-1.553
	c0.065-0.527,0.171-1.058,0.2-1.583c0.017-0.53,0.076-1.041,0.057-1.587C68.844,63.575,68.845,63.041,68.762,62.514z M55.565,56.156
	l0.698,0.538l0.644,0.6c0.426,0.402,0.868,0.786,1.221,1.251c0.369,0.449,0.771,0.871,1.047,1.378l0.458,0.729
	c0.155,0.24,0.234,0.52,0.355,0.775c0.107,0.262,0.23,0.52,0.326,0.781l0.186,0.799c0.17,0.498,0.149,1.124,0.19,1.708l0.011,0.222
	l0.006,0.111c-0.006-0.058-0.006,0.045-0.009,0.059l-0.033,0.422c-0.011,0.283-0.059,0.559-0.104,0.835
	c-0.085,0.552-0.231,1.086-0.421,1.598c-0.186,0.514-0.443,0.991-0.728,1.445c-0.311,0.438-0.645,0.855-1.04,1.217
	c-0.392,0.364-0.814,0.697-1.281,0.973c-0.227,0.146-0.462,0.281-0.711,0.397c-0.239,0.128-0.487,0.243-0.746,0.341
	c-0.502,0.218-1.033,0.387-1.568,0.537c-0.11,0.032-0.224,0.056-0.336,0.084l0.645-17.679C54.786,55.551,55.172,55.86,55.565,56.156
	z M45.101,42.026c-0.471-0.351-0.94-0.705-1.344-1.118c-0.419-0.4-0.857-0.763-1.206-1.252l-0.555-0.69
	c-0.145-0.2-0.274-0.488-0.412-0.726c-0.126-0.254-0.293-0.486-0.387-0.755l-0.268-0.809c-0.221-0.526-0.248-1.095-0.354-1.639
	c-0.131-0.526-0.07-1.158-0.106-1.736l-0.012-0.442c-0.006-0.083,0.017-0.265,0.024-0.393c0.021-0.281,0.036-0.562,0.089-0.836
	c0.079-0.552,0.202-1.096,0.388-1.612c0.082-0.263,0.185-0.517,0.303-0.763c0.104-0.253,0.239-0.489,0.376-0.724
	c0.271-0.472,0.559-0.855,0.966-1.33c0.347-0.363,0.791-0.725,1.172-1.089c0.447-0.3,0.909-0.576,1.361-0.858
	c0.505-0.197,0.998-0.414,1.5-0.601l0.321-0.075l-0.66,18.304C45.887,42.615,45.49,42.324,45.101,42.026z"/>
</svg>
