<?xml version="1.0" encoding="utf-8"?>
<!-- Generator: Adobe Illustrator 16.0.0, SVG Export Plug-In . SVG Version: 6.00 Build 0)  -->
<!DOCTYPE svg PUBLIC "-//W3C//DTD SVG 1.1//EN" "http://www.w3.org/Graphics/SVG/1.1/DTD/svg11.dtd">
<svg version="1.1" id="Layer_2" xmlns="http://www.w3.org/2000/svg" xmlns:xlink="http://www.w3.org/1999/xlink" x="0px" y="0px"
	 width="100px" height="100px" viewBox="0 0 100 100" enable-background="new 0 0 100 100" xml:space="preserve">
<path d="M25.424,52.206c3.712-3.155,5.097-6.069,5.097-10.688c0-3.193-1.157-5.973-3.256-7.823
	c-2.534-2.293-6.102-3.315-11.568-3.315l-9.455,0.031c-0.427,0-0.773,0.349-0.773,0.775v38.422c0,0.428,0.348,0.775,0.775,0.775
	h4.927c0.428,0,0.775-0.348,0.775-0.775V53.848h7.529l5.804,16.025c0.111,0.306,0.404,0.511,0.729,0.511h5.097
	c0.253,0,0.491-0.124,0.639-0.334c0.143-0.207,0.176-0.473,0.089-0.713L25.424,52.206z M16.209,48.559h-4.264V35.729l4.092-0.004
	c3.652,0.04,8.005,1.177,8.005,6.36C24.042,46.018,20.968,48.559,16.209,48.559z M47.699,30.542c-3.432,0-6.923,0.264-10.379,0.785
	l-0.555,0.085v37.986l0.58,0.065c2.623,0.298,5.602,0.449,8.854,0.449c6.891,0,11.317-1.617,15.278-5.579
	c3.653-3.594,5.585-8.789,5.585-15.023c0-5.902-1.847-10.588-5.486-13.926C58.284,32.317,54.958,30.542,47.699,30.542z
	 M47.143,64.715c-1.208,0-2.93-0.021-4.233-0.186V36.067c1.013-0.183,2.658-0.383,5.013-0.383c4.74,0,6.694,1.161,9.282,3.765
	c2.345,2.358,3.521,5.731,3.493,10.027C60.697,60.015,56.517,64.715,47.143,64.715z M93.879,53.302
	c-0.429-1.162-1.08-2.149-1.937-2.933c-0.867-0.795-1.969-1.48-3.275-2.037c-1.163-0.496-2.53-0.985-4.054-1.459V35.655
	c2.558,0.622,3.957,2.303,4.159,5.025h0.009l0.017,0.305c0.049,1.268,1.08,2.261,2.352,2.261c1.357,0,2.394-1.01,2.406-2.348
	l-0.048-0.425c-0.342-5.569-3.262-8.654-8.895-9.389v-6.051c0-1.263-1.027-2.291-2.291-2.291c-1.263,0-2.29,1.028-2.29,2.291v5.988
	c-1.008,0.122-1.958,0.339-2.829,0.675c-1.354,0.522-2.524,1.251-3.479,2.163c-0.951,0.911-1.688,1.999-2.19,3.235
	c-0.504,1.24-0.761,2.633-0.761,4.138c0,1.669,0.193,3.073,0.574,4.171c0.373,1.082,0.97,2.011,1.77,2.76
	c0.812,0.761,1.854,1.416,3.095,1.95c1.078,0.464,2.366,0.921,3.82,1.363v12.75c-3.282-0.711-5.016-2.888-5.152-6.502l-0.001-0.309
	c0-1.292-1.057-2.344-2.358-2.344c-1.382,0-2.394,0.987-2.408,2.348c0.342,6.945,3.594,10.719,9.92,11.508v6.037
	c0,1.263,1.027,2.291,2.29,2.291c1.264,0,2.291-1.028,2.291-2.291V68.96c1.091-0.14,2.114-0.389,3.04-0.772
	c1.447-0.601,2.697-1.425,3.716-2.448c1.017-1.022,1.807-2.236,2.347-3.609c0.541-1.375,0.816-2.882,0.816-4.479
	C94.532,55.94,94.313,54.478,93.879,53.302z M80.032,45.444c-0.242-0.08-0.473-0.158-0.684-0.229
	c-1.146-0.397-1.98-0.794-2.543-1.211c-0.588-0.437-0.955-0.927-1.093-1.458c-0.124-0.484-0.188-1.12-0.188-1.887
	c0-0.881,0.177-1.669,0.529-2.343c0.353-0.673,0.845-1.233,1.459-1.666c0.604-0.424,1.313-0.747,2.104-0.958
	c0.137-0.037,0.273-0.066,0.414-0.097V45.444z M88.021,62.813c-0.822,0.785-1.969,1.292-3.407,1.524V52.978
	c0.231,0.082,0.466,0.163,0.674,0.239c1.171,0.423,2.097,0.861,2.749,1.302c0.681,0.462,1.148,0.998,1.392,1.595
	c0.233,0.577,0.353,1.287,0.353,2.113C89.78,60.153,89.188,61.696,88.021,62.813z"/>
</svg>
