<?xml version="1.0" encoding="utf-8"?>
<!-- Generator: Adobe Illustrator 16.0.0, SVG Export Plug-In . SVG Version: 6.00 Build 0)  -->
<!DOCTYPE svg PUBLIC "-//W3C//DTD SVG 1.1//EN" "http://www.w3.org/Graphics/SVG/1.1/DTD/svg11.dtd">
<svg version="1.1" id="Layer_2" xmlns="http://www.w3.org/2000/svg" xmlns:xlink="http://www.w3.org/1999/xlink" x="0px" y="0px"
	 width="100px" height="100px" viewBox="0 0 100 100" enable-background="new 0 0 100 100" xml:space="preserve">
<path d="M52.782,80.678c0.284,0.313,0.347,0.754,0.166,1.126c-0.177,0.356-0.549,0.584-0.947,0.584h-7.188
	c-0.285,0-0.564-0.118-0.761-0.321L28.119,65.472l-0.885,0.015v15.876c0,0.566-0.47,1.026-1.049,1.026h-6.07
	c-0.578,0-1.049-0.46-1.049-1.026V18.638c0-0.566,0.471-1.026,1.049-1.026h6.07c0.579,0,1.049,0.46,1.049,1.026V55.35l14.887-18.894
	c0.194-0.249,0.505-0.399,0.828-0.399h7.537c0.394,0,0.748,0.211,0.932,0.555c0.189,0.353,0.147,0.789-0.106,1.106l-17.62,22.039
	L52.782,80.678z M80.531,35.96c-9.593,0-13.718,4.856-14.914,6.646V36.51c0-0.223-0.18-0.401-0.4-0.401H58.08
	c-0.222,0-0.4,0.179-0.4,0.401l-0.007,45.477c0,0.106,0.042,0.208,0.119,0.284c0.073,0.075,0.175,0.118,0.283,0.118h8.175
	c0.222,0,0.403-0.18,0.403-0.401V57.745c0-1.375,0.186-2.685,0.368-3.78c1.121-6.178,5.124-9.948,10.69-10.087h2.819
	c0.105,0,0.209-0.042,0.283-0.118c0.076-0.075,0.119-0.177,0.119-0.284v-7.115C80.934,36.14,80.753,35.96,80.531,35.96z"/>
</svg>
