<?xml version="1.0" encoding="utf-8"?>
<!-- Generator: Adobe Illustrator 16.0.0, SVG Export Plug-In . SVG Version: 6.00 Build 0)  -->
<!DOCTYPE svg PUBLIC "-//W3C//DTD SVG 1.1//EN" "http://www.w3.org/Graphics/SVG/1.1/DTD/svg11.dtd">
<svg version="1.1" id="Layer_3" xmlns="http://www.w3.org/2000/svg" xmlns:xlink="http://www.w3.org/1999/xlink" x="0px" y="0px"
	 width="100px" height="100px" viewBox="0 0 100 100" enable-background="new 0 0 100 100" xml:space="preserve">
<path d="M76.101,70.861c-4.223,4.442-9.63,6.889-15.226,6.889c-9.171,0-17.112-6.44-20.849-15.75H65.5c2.209,0,4-1.791,4-4
	s-1.791-4-4-4H37.993c-0.157-1.307-0.243-2.642-0.243-4c0-1.532,0.108-3.034,0.309-4.5H65.5c2.209,0,4-1.791,4-4s-1.791-4-4-4
	H40.239c3.817-9.037,11.631-15.25,20.636-15.25c5.596,0,11.003,2.447,15.226,6.889c1.521,1.6,4.052,1.666,5.655,0.144
	c1.602-1.522,1.665-4.054,0.144-5.655c-5.748-6.047-13.215-9.377-21.024-9.377c-13.335,0-24.734,9.685-29.157,23.25H21
	c-2.209,0-4,1.791-4,4s1.791,4,4,4h9.005c-0.162,1.476-0.255,2.975-0.255,4.5c0,1.353,0.071,2.686,0.2,4H21c-2.209,0-4,1.791-4,4
	s1.791,4,4,4h10.56c4.303,13.827,15.817,23.75,29.315,23.75c7.81,0,15.276-3.331,21.024-9.377c1.521-1.601,1.458-4.133-0.144-5.655
	C80.154,69.196,77.622,69.26,76.101,70.861z"/>
</svg>
