<?xml version="1.0" encoding="utf-8"?>
<!-- Generator: Adobe Illustrator 16.0.0, SVG Export Plug-In . SVG Version: 6.00 Build 0)  -->
<!DOCTYPE svg PUBLIC "-//W3C//DTD SVG 1.1//EN" "http://www.w3.org/Graphics/SVG/1.1/DTD/svg11.dtd">
<svg version="1.1" id="Layer_2" xmlns="http://www.w3.org/2000/svg" xmlns:xlink="http://www.w3.org/1999/xlink" x="0px" y="0px"
	 width="100px" height="100px" viewBox="0 0 100 100" enable-background="new 0 0 100 100" xml:space="preserve">
<path d="M74.512,59.135c-1.01-1.096-2.218-1.645-3.624-1.645c-1.646,0-2.841,0.541-3.584,1.623
	c-0.743,1.083-1.368,2.483-1.871,4.201c-1.195,3.646-2.967,6.41-5.316,8.292c-2.35,1.882-5.224,2.823-8.622,2.823
	c-1.4,0-2.717-0.175-3.958-0.507l11.558-43.861c0.169,0.115,0.341,0.227,0.504,0.353c2.083,1.601,3.895,4.017,5.436,7.247
	c0.929,1.956,1.772,3.335,2.528,4.135c0.757,0.8,1.892,1.2,3.405,1.2c1.354,0,2.509-0.577,3.465-1.734
	c0.956-1.156,1.434-2.49,1.434-4.001c0-2.756-0.982-5.683-2.947-8.78c-1.964-3.097-4.792-5.698-8.482-7.803
	c-0.821-0.468-1.671-0.875-2.543-1.239l2.262-8.584c0.369-1.4-0.467-2.835-1.868-3.204c-1.398-0.368-2.835,0.468-3.205,1.868
	l-2.224,8.439c-1.611-0.29-3.293-0.437-5.046-0.437c-3.876,0-7.527,0.771-10.952,2.313c-3.425,1.542-6.412,3.787-8.96,6.736
	c-2.548,2.949-4.506,6.498-5.874,10.648c-1.368,4.149-2.051,8.847-2.051,14.093c0,3.231,0.272,6.284,0.816,9.159
	c0.544,2.875,1.36,5.579,2.449,8.113c1.088,2.535,2.402,4.824,3.942,6.87c1.726,2.252,3.617,4.067,5.675,5.445
	c0.942,0.632,1.939,1.177,2.979,1.656l-1.737,6.593c-0.369,1.4,0.467,2.835,1.868,3.204c0.224,0.059,0.448,0.087,0.67,0.087
	c1.162,0,2.225-0.778,2.534-1.955l1.659-6.296c2.232,0.48,4.656,0.735,7.299,0.735c4.062,0,7.619-0.727,10.673-2.179
	c3.052-1.452,5.561-3.341,7.525-5.668c1.965-2.327,3.406-4.697,4.321-7.113c0.916-2.416,1.374-4.661,1.374-6.736
	C76.024,61.595,75.52,60.231,74.512,59.135z M38.093,64.621c-1.274-3.363-1.912-7.579-1.912-12.648
	c0-7.587,1.439-13.441,4.321-17.562c2.881-4.119,6.531-6.398,11.39-6.398c0.791,0,1.547,0.056,2.274,0.164l-11.42,43.34
	C40.707,69.895,39.265,67.714,38.093,64.621z"/>
</svg>
