<?xml version="1.0" encoding="utf-8"?>
<!-- Generator: Adobe Illustrator 16.0.0, SVG Export Plug-In . SVG Version: 6.00 Build 0)  -->
<!DOCTYPE svg PUBLIC "-//W3C//DTD SVG 1.1//EN" "http://www.w3.org/Graphics/SVG/1.1/DTD/svg11.dtd">
<svg version="1.1" id="Layer_2" xmlns="http://www.w3.org/2000/svg" xmlns:xlink="http://www.w3.org/1999/xlink" x="0px" y="0px"
	 width="100px" height="100px" viewBox="0 0 100 100" enable-background="new 0 0 100 100" xml:space="preserve">
<path d="M80.545,43.494c0-19.736-11.801-33.818-29.951-33.818c-18.05,0-31.14,13.785-31.14,35.207
	c0,21.52,13.586,33.223,29.455,33.818l3.389,0.046l4.398,5.63l2.755,3.748c0.901,1.422,2.436,2.2,4.003,2.2
	c0.866,0,1.742-0.237,2.528-0.735c2.209-1.399,2.864-4.324,1.466-6.532l-5.542-7.507C72.763,71.509,80.545,60.369,80.545,43.494z
	 M57.818,70.037l-3.304-4.454c-1.398-2.206-4.321-2.863-6.531-1.465c-2.208,1.399-2.864,4.324-1.466,6.532l0.595,0.801
	c-11.768-1.639-18.528-13.596-18.436-26.768c-0.1-14.479,7.042-27.967,21.62-27.967c14.182,0,21.124,13.785,21.124,27.173
	C71.421,55.924,66.6,66.206,57.818,70.037z"/>
</svg>
