<?xml version="1.0" encoding="utf-8"?>
<!-- Generator: Adobe Illustrator 16.0.0, SVG Export Plug-In . SVG Version: 6.00 Build 0)  -->
<!DOCTYPE svg PUBLIC "-//W3C//DTD SVG 1.1//EN" "http://www.w3.org/Graphics/SVG/1.1/DTD/svg11.dtd">
<svg version="1.1" id="Layer_2" xmlns="http://www.w3.org/2000/svg" xmlns:xlink="http://www.w3.org/1999/xlink" x="0px" y="0px"
	 width="100px" height="100px" viewBox="0 0 100 100" enable-background="new 0 0 100 100" xml:space="preserve">
<g>
	<path d="M50.44,18.861h-32.06c-0.516,0-0.934,0.417-0.934,0.933v59.529c0,0.515,0.418,0.933,0.934,0.933h7.683
		c0.516,0,0.933-0.417,0.933-0.933V53.317h21.59c0.516,0,0.934-0.417,0.934-0.933v-6.359c0-0.515-0.418-0.933-0.934-0.933h-21.59
		V27.174H50.44c0.516,0,0.933-0.417,0.933-0.933v-6.447C51.373,19.278,50.956,18.861,50.44,18.861z"/>
	<path d="M81.619,35.642H71.425v-9.315c0-0.29-0.135-0.563-0.364-0.739c-0.229-0.176-0.526-0.235-0.811-0.162l-7.596,0.003
		c-0.408,0.109-0.692,0.479-0.692,0.901v9.313h-5.69c-0.516,0-0.933,0.418-0.933,0.933v5.918c0,0.515,0.417,0.933,0.933,0.933h5.69
		V65.81c0,5.718,1.038,9.46,3.235,11.743c2.053,2.346,5.196,3.586,9.093,3.586c2.899,0,5.472-0.401,7.244-1.129
		c0.368-0.152,0.599-0.521,0.575-0.919l-0.025-5.83c-0.019-0.28-0.16-0.538-0.388-0.701c-0.228-0.162-0.516-0.215-0.789-0.143
		c-0.832,0.227-2.575,0.498-4.587,0.498c-2.542,0-4.896-0.893-4.896-7.37v-22.12h10.194c0.516,0,0.933-0.418,0.933-0.933v-5.918
		C82.552,36.06,82.135,35.642,81.619,35.642z"/>
</g>
</svg>
