<?xml version="1.0" encoding="utf-8"?>
<!-- Generator: Adobe Illustrator 16.0.0, SVG Export Plug-In . SVG Version: 6.00 Build 0)  -->
<!DOCTYPE svg PUBLIC "-//W3C//DTD SVG 1.1//EN" "http://www.w3.org/Graphics/SVG/1.1/DTD/svg11.dtd">
<svg version="1.1" id="Layer_2" xmlns="http://www.w3.org/2000/svg" xmlns:xlink="http://www.w3.org/1999/xlink" x="0px" y="0px"
	 width="100px" height="100px" viewBox="0 0 100 100" enable-background="new 0 0 100 100" xml:space="preserve">
<g>
	<path d="M34.02,59.746l17.487-21.872c0.317-0.396,0.369-0.938,0.132-1.38c-0.227-0.424-0.668-0.687-1.152-0.687h-7.537
		c-0.4,0-0.783,0.185-1.024,0.494l-14.44,18.328V18.638c0-0.704-0.583-1.276-1.299-1.276h-6.07c-0.716,0-1.299,0.573-1.299,1.276
		v62.725c0,0.704,0.583,1.276,1.299,1.276h6.07c0.716,0,1.299-0.573,1.299-1.276v-15.63l0.53-0.009l15.858,16.518
		c0.244,0.252,0.587,0.397,0.94,0.397h7.188c0.494,0,0.954-0.284,1.172-0.725c0.226-0.466,0.146-1.017-0.207-1.404L34.02,59.746z"/>
	<path d="M80.531,35.71c-8.675,0-12.932,3.882-14.664,6.122V36.51c0-0.359-0.292-0.651-0.65-0.651H58.08
		c-0.358,0-0.65,0.292-0.65,0.651l-0.007,45.477c0,0.173,0.071,0.342,0.19,0.458c0.12,0.123,0.289,0.194,0.462,0.194h8.175
		c0.36,0,0.653-0.292,0.653-0.651V57.745c0-1.368,0.185-2.657,0.364-3.735c1.098-6.052,5.005-9.746,10.444-9.881h2.819
		c0.173,0,0.342-0.07,0.459-0.19c0.125-0.123,0.193-0.287,0.193-0.461v-7.115C81.184,36.002,80.891,35.71,80.531,35.71z"/>
</g>
</svg>
