<?xml version="1.0" encoding="utf-8"?>
<!-- Generator: Adobe Illustrator 16.0.0, SVG Export Plug-In . SVG Version: 6.00 Build 0)  -->
<!DOCTYPE svg PUBLIC "-//W3C//DTD SVG 1.1//EN" "http://www.w3.org/Graphics/SVG/1.1/DTD/svg11.dtd">
<svg version="1.1" id="Layer_2" xmlns="http://www.w3.org/2000/svg" xmlns:xlink="http://www.w3.org/1999/xlink" x="0px" y="0px"
	 width="100px" height="100px" viewBox="0 0 100 100" enable-background="new 0 0 100 100" xml:space="preserve">
<path d="M72.24,32.759h-5.524c-0.366-3.202-1.48-6.199-3.25-8.519h8.774c2.102,0,3.804-1.569,3.804-3.67
	c0-2.102-1.702-3.715-3.804-3.715H42.487c-0.109,0-0.214-0.004-0.326-0.004c-0.072,0-0.145,0.004-0.217,0.004H27.76
	c-2.102,0-3.804,1.614-3.804,3.715c0,2.101,1.702,3.67,3.804,3.67h16.868c5.327,0.388,10.907,2.449,12.377,8.519H27.76
	c-2.102,0-3.804,1.703-3.804,3.805c0,2.101,1.702,3.805,3.804,3.805h28.866c-1.796,4.797-6.729,7.723-13.585,7.723h-7.565h-0.022
	h-4.411c-2.049,0-3.71,1.661-3.71,3.71c0,2.049,1.661,3.71,3.71,3.71h4.359c0.018,0.002,0.034,0.011,0.052,0.011l6.884,0
	c7.479,0.284,10.805,3.528,12.713,12.4c1.492,6.591,2.59,10.884,3.455,13.455c0.647,2.379,1.928,5.964,4.151,8.104
	c0.87,0.836,1.99,1.252,3.108,1.252c1.176,0,2.351-0.46,3.231-1.375c1.612-1.676,1.642-4.27,0.164-6.003
	c-0.007-0.021-0.004-0.043-0.015-0.063c-1.364-2.531-3.014-9.321-5.028-17.932c-1.601-7.002-4.59-11.364-9.122-13.3
	c5.69-2.184,9.603-6.362,11.138-11.693h6.107c2.102,0,3.804-1.704,3.804-3.805C76.044,34.462,74.342,32.759,72.24,32.759z"/>
</svg>
