<?xml version="1.0" encoding="utf-8"?>
<!-- Generator: Adobe Illustrator 16.0.0, SVG Export Plug-In . SVG Version: 6.00 Build 0)  -->
<!DOCTYPE svg PUBLIC "-//W3C//DTD SVG 1.1//EN" "http://www.w3.org/Graphics/SVG/1.1/DTD/svg11.dtd">
<svg version="1.1" id="Layer_2" xmlns="http://www.w3.org/2000/svg" xmlns:xlink="http://www.w3.org/1999/xlink" x="0px" y="0px"
	 width="100px" height="100px" viewBox="0 0 100 100" enable-background="new 0 0 100 100" xml:space="preserve">
<g>
	<path d="M70.356,31.691c-4.961,0-8.819,1.755-11.751,5.356l-0.011-3.621c-0.001-0.492-0.403-0.895-0.897-0.896l-5.602-0.008
		c-0.239,0-0.464,0.093-0.635,0.263c-0.17,0.17-0.264,0.396-0.264,0.636L51.18,84.945c0,0.239,0.093,0.464,0.264,0.637
		c0.17,0.169,0.396,0.262,0.635,0.262h5.813c0.496,0,0.899-0.403,0.899-0.898V67.542c2.511,2.669,6.237,4.174,10.44,4.174
		c8.556,0,17.765-6.428,17.765-20.542C86.995,39.885,79.998,31.691,70.356,31.691z M69.321,64.724
		c-5.963,0-10.814-5.836-10.814-13.009s4.851-13.009,10.814-13.009c5.964,0,10.815,5.836,10.815,13.009S75.285,64.724,69.321,64.724
		z"/>
	<path d="M39.208,42.624c4.718-4.043,6.563-7.963,6.563-13.88c0-4.181-1.519-7.823-4.271-10.252
		c-3.313-2.998-7.965-4.334-15.084-4.334l-12.234,0.04c-0.648,0.001-1.176,0.531-1.176,1.181v49.706c0,0.651,0.53,1.181,1.181,1.181
		h6.373c0.65,0,1.18-0.53,1.18-1.181V44.87h9.441l7.464,20.615c0.169,0.466,0.615,0.779,1.11,0.779h6.594
		c0.386,0,0.749-0.189,0.971-0.509c0.218-0.316,0.269-0.721,0.135-1.085L39.208,42.624z M37.035,29.477
		c0,4.979-3.908,8.197-9.956,8.197h-5.341V21.431l5.117-0.006C33.61,21.5,37.035,24.209,37.035,29.477z"/>
</g>
</svg>
