<?xml version="1.0" encoding="utf-8"?>
<!-- Generator: Adobe Illustrator 16.0.0, SVG Export Plug-In . SVG Version: 6.00 Build 0)  -->
<!DOCTYPE svg PUBLIC "-//W3C//DTD SVG 1.1//EN" "http://www.w3.org/Graphics/SVG/1.1/DTD/svg11.dtd">
<svg version="1.1" id="Layer_2" xmlns="http://www.w3.org/2000/svg" xmlns:xlink="http://www.w3.org/1999/xlink" x="0px" y="0px"
	 width="100px" height="100px" viewBox="0 0 100 100" enable-background="new 0 0 100 100" xml:space="preserve">
<g>
	<path d="M60.555,63.761h0.003c1.632,0,3.269-0.006,4.915-0.012l0.66-0.002c1.895-0.009,3.802-0.016,5.729-0.016
		c0.457,0,0.841-0.357,0.873-0.814c0.934-13.45-0.119-19.131-4.172-22.514c-0.157-0.13-0.355-0.202-0.558-0.202l-0.101,0.006
		c-0.24,0.026-0.46,0.154-0.603,0.348c-2.28,3.073-2.215,5.85,0.211,9.003c0.882,1.147,1.223,2.814,1.627,4.785
		c0.125,0.615,0.255,1.245,0.408,1.89c-1.41-0.003-2.777-0.012-4.158-0.021l-0.361-0.002c-1.451-0.009-2.858-0.018-4.237-0.018
		c-2.458,0-4.472,0.029-6.336,0.09l-0.288,0.004c-2.425,0-3.487-0.878-3.666-3.031c-0.235-2.844-0.504-6.185-0.759-9.376
		c-0.332-4.161-0.645-8.07-0.844-10.298c-0.345-3.859-2.484-10.138-2.73-10.852c-0.124-0.349-0.456-0.584-0.827-0.584
		c-0.374,0-0.707,0.238-0.826,0.592c-0.191,0.563-0.46,1.16-0.721,1.74c-0.633,1.408-1.286,2.863-1.143,4.349
		c0.313,3.2,0.893,6.408,1.464,9.566l0.02,0.106c0.356,1.972,0.726,4.012,1.019,6.018c0.293,2.016,0.512,4.144,0.704,6.022
		c0.243,2.377,0.494,4.835,0.896,7.275c0.612,3.727,2.701,5.815,5.882,5.879C54.978,63.74,57.495,63.761,60.555,63.761z"/>
	<path d="M59.558,70.979l3.471,3.959c0.156,0.18,0.382,0.289,0.559,0.293l0.101,0.008c0.222,0,0.434-0.083,0.597-0.236l3.771-3.522
		c0.346-0.324,0.373-0.856,0.063-1.212l-3.708-4.264c-0.155-0.177-0.371-0.283-0.66-0.3c-0.217,0-0.433,0.086-0.59,0.233
		l-3.808,3.511c-0.127,0.117-0.196,0.265-0.238,0.419l-3.446-4.082c-0.152-0.182-0.376-0.294-0.666-0.311
		c-0.22,0-0.43,0.081-0.59,0.228l-3.779,3.438c-0.353,0.32-0.386,0.855-0.074,1.218l3.764,4.374
		c0.154,0.179,0.377,0.289,0.641,0.304h0.022c0.22,0,0.43-0.082,0.588-0.227l3.74-3.399C59.444,71.29,59.517,71.138,59.558,70.979z"
		/>
	<path d="M39.945,23.623c-0.179-1.369-1.186-2.583-3.08-3.711c-0.719-0.43-1.374-1.065-2.066-1.737
		c-0.358-0.349-0.73-0.709-1.129-1.061c-0.159-0.142-0.366-0.22-0.582-0.22l-0.138,0.01c-0.261,0.042-0.485,0.198-0.615,0.424
		c-2.11,3.622-1.343,6.785-0.454,10.447l0.205,0.851c1.639,6.893,2.322,14.169,2.984,21.216l0.247,2.617
		c0.424,4.398-0.105,7.324-1.664,9.208c-1.624,1.961-4.47,3.032-9.228,3.471c-0.821,0.076-1.636,0.086-2.32,0.086l-1.706-0.009
		c-4.352-0.008-7.514-1.188-9.146-3.41c-0.791-1.078-1.09-2.007-0.999-3.108c0.106-1.282,1.405-5.437,3.407-8.48
		c0.294-0.446,0.396-0.98,0.288-1.503c-0.107-0.523-0.413-0.973-0.858-1.266c-0.893-0.589-2.189-0.312-2.761,0.557
		c-2.805,3.956-4.153,9.546-4.397,10.639c-0.769,3.2-0.244,6.324,1.475,8.798c1.758,2.527,4.59,4.145,7.975,4.555
		c1.714,0.208,3.508,0.309,5.482,0.309c1.645,0,3.405-0.071,5.384-0.217c4.745-0.351,8.319-1.915,10.625-4.647
		c2.478-2.934,3.471-7.186,2.953-12.638c-0.439-4.637-0.984-9.286-1.512-13.782l-0.031-0.266c-0.383-3.276-0.779-6.658-1.128-9.989
		c-0.095-0.909,0.093-1.919,0.417-2.251C39.387,26.653,40.141,25.099,39.945,23.623z"/>
	<path d="M91.453,52.383l-0.517-0.619c-1.004-1.293-3.591-4.592-5.933-7.266c-1.137-1.296-3.287-1.44-4.587-0.303
		c-1.348,1.181-1.483,3.238-0.303,4.586c1.718,1.961,3.638,4.356,4.97,6.047c0.243,0.267,0.428,0.516,0.611,0.762
		c0.165,0.22,0.328,0.438,0.523,0.666c1.7,1.973,4.114,5.937,1.196,10.323C82.042,74.65,75.833,78.744,68.96,78.744
		c-0.001,0-0.001,0-0.002,0c-0.54,0-1.093-0.025-1.645-0.075c-1.361-0.123-2.751-0.428-4.096-0.724
		c-0.283-0.062-0.59-0.125-0.889-0.185c-0.377-0.077-0.743-0.151-1.038-0.22c-0.696-0.161-1.181,0.352-1.338,0.754
		c-0.094,0.449,0.178,0.898,0.62,1.022c1.476,0.414,3.034,0.981,4.409,1.481c3.121,1.135,6.348,2.308,9.541,2.309
		c0.253,0,0.505-0.008,0.76-0.022c6.688-0.403,11.322-5.169,16.176-12.142c0.117-0.123,2.859-3.079,2.95-9.021
		C94.5,55.977,91.572,52.521,91.453,52.383z"/>
</g>
</svg>
