<?xml version="1.0" encoding="utf-8"?>
<!-- Generator: Adobe Illustrator 16.0.0, SVG Export Plug-In . SVG Version: 6.00 Build 0)  -->
<!DOCTYPE svg PUBLIC "-//W3C//DTD SVG 1.1//EN" "http://www.w3.org/Graphics/SVG/1.1/DTD/svg11.dtd">
<svg version="1.1" id="Layer_2" xmlns="http://www.w3.org/2000/svg" xmlns:xlink="http://www.w3.org/1999/xlink" x="0px" y="0px"
	 width="100px" height="100px" viewBox="0 0 100 100" enable-background="new 0 0 100 100" xml:space="preserve">
<path d="M43.043,27h-23.48l-0.021,50.5c0,2.481-2.019,4.5-4.5,4.5s-4.5-2.019-4.5-4.5l0.025-55.005
	c0.003-2.479,2.021-4.495,4.5-4.495h27.977c13.51,0,24.5,10.991,24.5,24.5v23c0,2.481-2.019,4.5-4.5,4.5s-4.5-2.019-4.5-4.5v-23
	C58.543,33.953,51.59,27,43.043,27z M84.959,18c-2.481,0-4.5,2.019-4.5,4.5L80.438,73h-23.48c-8.547,0-15.5-6.953-15.5-15.5v-23
	c0-2.481-2.019-4.5-4.5-4.5s-4.5,2.019-4.5,4.5v23c0,13.509,10.99,24.5,24.5,24.5h27.977c2.479,0,4.497-2.016,4.5-4.495L89.459,22.5
	C89.459,20.019,87.44,18,84.959,18z"/>
</svg>
