<?xml version="1.0" encoding="utf-8"?>
<!-- Generator: Adobe Illustrator 16.0.0, SVG Export Plug-In . SVG Version: 6.00 Build 0)  -->
<!DOCTYPE svg PUBLIC "-//W3C//DTD SVG 1.1//EN" "http://www.w3.org/Graphics/SVG/1.1/DTD/svg11.dtd">
<svg version="1.1" id="Layer_2" xmlns="http://www.w3.org/2000/svg" xmlns:xlink="http://www.w3.org/1999/xlink" x="0px" y="0px"
	 width="100px" height="100px" viewBox="0 0 100 100" enable-background="new 0 0 100 100" xml:space="preserve">
<path d="M41.693,24.375v36.35c0,13.1-5.828,19.742-17.324,19.742c-2.619,0-5.91-0.569-7.832-1.354
	c-0.383-0.158-0.607-0.567-0.533-0.974l1.047-5.724c0.049-0.262,0.209-0.483,0.438-0.612c0.234-0.129,0.514-0.147,0.754-0.052
	c1.613,0.627,3.641,0.987,5.561,0.987c5.625,0,9.113-2.104,9.113-12.577V24.375c0-0.487,0.395-0.883,0.883-0.883h7.012
	C41.297,23.492,41.693,23.888,41.693,24.375z M84.01,60.998c0,2.294-0.393,4.46-1.172,6.437c-0.777,1.973-1.912,3.718-3.373,5.188
	c-1.465,1.471-3.26,2.654-5.34,3.518c-1.332,0.552-2.803,0.91-4.371,1.11v8.632c0,1.816-1.477,3.293-3.293,3.293
	c-1.814,0-3.293-1.477-3.293-3.293v-8.675c-9.09-1.135-13.766-6.559-14.254-16.541c0.02-1.955,1.475-3.375,3.459-3.375
	c1.871,0,3.393,1.511,3.393,3.369v0.443c0.195,5.194,2.686,8.322,7.402,9.345V52.124c-2.088-0.636-3.939-1.292-5.486-1.958
	c-1.787-0.769-3.283-1.711-4.449-2.803c-1.15-1.076-2.006-2.412-2.545-3.968c-0.547-1.577-0.824-3.595-0.824-5.994
	c0-2.164,0.367-4.164,1.092-5.947c0.723-1.777,1.783-3.342,3.15-4.65c1.371-1.312,3.053-2.357,5.002-3.108
	c1.25-0.483,2.615-0.796,4.061-0.971v-8.606c0-1.816,1.479-3.293,3.293-3.293c1.816,0,3.293,1.477,3.293,3.293v8.696
	c8.096,1.056,12.293,5.489,12.785,13.494l0.068,0.611c-0.02,1.923-1.508,3.374-3.459,3.374c-1.828,0-3.311-1.426-3.379-3.249
	l-0.025-0.438h-0.01c-0.293-3.913-2.303-6.327-5.98-7.222v16.123c2.189,0.681,4.156,1.383,5.828,2.096
	c1.877,0.801,3.461,1.786,4.707,2.928c1.229,1.126,2.164,2.545,2.781,4.215C83.693,56.436,84.01,58.539,84.01,60.998z
	 M63.168,29.298c-0.197,0.044-0.396,0.085-0.594,0.138c-1.139,0.303-2.156,0.767-3.023,1.378c-0.885,0.621-1.59,1.426-2.098,2.395
	c-0.504,0.968-0.762,2.1-0.762,3.366c0,1.103,0.092,2.016,0.271,2.712c0.197,0.765,0.727,1.469,1.57,2.096
	c0.809,0.601,2.004,1.169,3.656,1.74c0.301,0.104,0.633,0.216,0.979,0.331V29.298z M77.18,61.823c0-1.187-0.17-2.207-0.506-3.036
	c-0.348-0.857-1.021-1.628-2.002-2.292c-0.936-0.633-2.264-1.263-3.949-1.872c-0.299-0.108-0.635-0.225-0.969-0.342v16.327
	c2.068-0.335,3.717-1.063,4.898-2.192C76.33,66.812,77.18,64.594,77.18,61.823z"/>
</svg>
