<?xml version="1.0" encoding="utf-8"?>
<!-- Generator: Adobe Illustrator 16.0.0, SVG Export Plug-In . SVG Version: 6.00 Build 0)  -->
<!DOCTYPE svg PUBLIC "-//W3C//DTD SVG 1.1//EN" "http://www.w3.org/Graphics/SVG/1.1/DTD/svg11.dtd">
<svg version="1.1" id="Layer_2" xmlns="http://www.w3.org/2000/svg" xmlns:xlink="http://www.w3.org/1999/xlink" x="0px" y="0px"
	 width="100px" height="100px" viewBox="0 0 100 100" enable-background="new 0 0 100 100" xml:space="preserve">
<g>
	<path d="M47.644,24.862H14.843c-0.635,0-1.151,0.517-1.151,1.152V45.05c0,11.003-0.673,16.734-4.522,19.562
		c-0.876,0.733-2.444,1.369-4.093,1.66c-0.608,0.106-1.022,0.67-0.943,1.284l0.879,6.738c0.076,0.57,0.567,1,1.143,1
		c4.262,0,7.238-0.922,9.916-3.054c6.684-4.355,8.026-13.632,8.026-27.189V33.902h13.902v40.237c0,0.635,0.517,1.151,1.151,1.151
		h8.493c0.635,0,1.151-0.516,1.151-1.151V26.014C48.795,25.378,48.278,24.862,47.644,24.862z"/>
	<path d="M89.39,48.338l-0.615-0.274l0.601-0.305c3.051-1.549,6.653-4.581,6.496-10.227C95.557,26.23,84.596,24.707,73.916,24.707
		l-14.902,0.002c-0.633,0-1.148,0.515-1.148,1.147v48c0,0.308,0.12,0.598,0.339,0.816c0.217,0.215,0.504,0.333,0.808,0.333
		l12.323,0.037c0.642,0.018,1.262,0.028,1.888,0.028c8.809,0,15.193-1.936,18.976-5.752c2.399-2.422,3.598-5.588,3.563-9.409
		C95.705,54.008,93.621,50.223,89.39,48.338z M84.9,60.226c0.034,1.878-0.458,3.349-1.462,4.372
		c-1.608,1.637-4.167,1.813-5.192,1.813c-0.218,0-0.367-0.007-0.551-0.016l-9.66-0.002V54.415l9.779,0.047l0.149-0.001
		C81.317,54.461,84.9,55.973,84.9,60.226z M78.627,44.139l-0.422,0.033c-0.218,0.018-0.333,0.017-0.542,0.007l-9.628,0V32.228
		l9.997,0.02c3.32,0,6.868,1.512,6.868,5.765c0.034,1.878-0.458,3.349-1.462,4.372C81.969,43.881,80.193,44.018,78.627,44.139z"/>
</g>
</svg>
