<?xml version="1.0" encoding="utf-8"?>
<!-- Generator: Adobe Illustrator 16.0.0, SVG Export Plug-In . SVG Version: 6.00 Build 0)  -->
<!DOCTYPE svg PUBLIC "-//W3C//DTD SVG 1.1//EN" "http://www.w3.org/Graphics/SVG/1.1/DTD/svg11.dtd">
<svg version="1.1" id="Layer_2" xmlns="http://www.w3.org/2000/svg" xmlns:xlink="http://www.w3.org/1999/xlink" x="0px" y="0px"
	 width="100px" height="100px" viewBox="0 0 100 100" enable-background="new 0 0 100 100" xml:space="preserve">
<path d="M48.295,26.014v48.125c0,0.359-0.291,0.65-0.651,0.65h-8.493c-0.359,0-0.651-0.291-0.651-0.65V33.402H23.597v11.648
	c0,13.389-1.305,22.537-7.8,26.77c-2.614,2.08-5.505,2.973-9.643,2.973c-0.326,0-0.604-0.244-0.646-0.566L4.629,67.49
	c-0.045-0.348,0.189-0.666,0.533-0.727c1.73-0.305,3.389-0.982,4.328-1.769c4-2.937,4.701-8.771,4.701-19.944V26.014
	c0-0.359,0.293-0.652,0.651-0.652h32.801C48.004,25.361,48.295,25.654,48.295,26.014z M95.261,59.913
	c0.034,3.683-1.116,6.728-3.418,9.052c-3.685,3.719-9.948,5.604-18.62,5.604c-0.621,0-1.236-0.01-1.873-0.028l-12.336-0.036
	c-0.173,0-0.335-0.067-0.457-0.188c-0.124-0.123-0.191-0.287-0.191-0.461V25.856c0-0.356,0.291-0.647,0.648-0.647l14.902-0.002
	c10.439,0,21.152,1.465,21.455,12.339c0.15,5.384-3.301,8.282-6.223,9.767l-1.535,0.781l1.573,0.701
	C93.221,50.592,95.208,54.229,95.261,59.913z M67.536,66.893l10.16,0.002c0.166,0.008,0.322,0.016,0.551,0.016
	c1.089,0,3.809-0.191,5.549-1.963c1.102-1.122,1.642-2.714,1.605-4.73c0-4.613-3.842-6.256-7.437-6.256l-0.152,0.002l-10.276-0.051
	V66.893z M83.795,42.734c1.102-1.122,1.642-2.714,1.605-4.73c0-4.613-3.807-6.256-7.368-6.256l-0.075,0.002l-10.422-0.023v12.952
	l10.128,0.001c0.168,0.009,0.335,0.012,0.583-0.009C79.964,44.525,82.055,44.507,83.795,42.734z"/>
</svg>
