<?xml version="1.0" encoding="utf-8"?>
<!-- Generator: Adobe Illustrator 16.0.0, SVG Export Plug-In . SVG Version: 6.00 Build 0)  -->
<!DOCTYPE svg PUBLIC "-//W3C//DTD SVG 1.1//EN" "http://www.w3.org/Graphics/SVG/1.1/DTD/svg11.dtd">
<svg version="1.1" id="Layer_2" xmlns="http://www.w3.org/2000/svg" xmlns:xlink="http://www.w3.org/1999/xlink" x="0px" y="0px"
	 width="100px" height="100px" viewBox="0 0 100 100" enable-background="new 0 0 100 100" xml:space="preserve">
<path d="M80.336,80.594L55.622,53.512h19.539c1.94,0,3.512-1.571,3.512-3.512c0-1.939-1.572-3.512-3.512-3.512H56.524l21.713-27.154
	c0.361-0.452,0.419-1.073,0.15-1.576c-0.258-0.49-0.767-0.791-1.328-0.791H66.314c-0.461,0-0.904,0.214-1.184,0.569L43.906,44.478
	V18.432c0-0.809-0.671-1.465-1.496-1.465h-8.656c-0.825,0-1.497,0.656-1.497,1.465v28.057h-9.464c-1.94,0-3.512,1.572-3.512,3.512
	c0,1.94,1.572,3.512,3.512,3.512h9.464v28.058c0,0.808,0.672,1.464,1.497,1.464h8.656c0.824,0,1.496-0.656,1.496-1.464V58.932
	l1.262-0.021l22.716,23.663c0.283,0.292,0.678,0.46,1.088,0.46H79.22c0.57,0,1.1-0.324,1.352-0.834
	C80.83,81.668,80.74,81.04,80.336,80.594z"/>
</svg>
