<?xml version="1.0" encoding="utf-8"?>
<!-- Generator: Adobe Illustrator 16.0.0, SVG Export Plug-In . SVG Version: 6.00 Build 0)  -->
<!DOCTYPE svg PUBLIC "-//W3C//DTD SVG 1.1//EN" "http://www.w3.org/Graphics/SVG/1.1/DTD/svg11.dtd">
<svg version="1.1" id="Layer_2" xmlns="http://www.w3.org/2000/svg" xmlns:xlink="http://www.w3.org/1999/xlink" x="0px" y="0px"
	 width="100px" height="100px" viewBox="0 0 100 100" enable-background="new 0 0 100 100" xml:space="preserve">
<g>
	<path d="M49.598,72.619H27.045V18.241c0-0.799-0.65-1.448-1.449-1.448h-8.082c-0.799,0-1.449,0.649-1.449,1.448v62.606
		c0,0.799,0.65,1.449,1.449,1.449h32.084c0.799,0,1.45-0.65,1.45-1.449v-6.781C51.048,73.269,50.397,72.619,49.598,72.619z"/>
	<path d="M71.629,54.154c-5.855-2.231-6.843-3.479-6.843-5.43c0-2.336,2.097-3.905,5.217-3.905c3.831,0,6.632,1.512,7.66,2.162
		l0.977,0.616c0.244,0.151,0.548,0.188,0.823,0.091c0.273-0.096,0.493-0.316,0.586-0.591l2.539-7.386
		c0.147-0.427-0.028-0.903-0.416-1.133L81.534,38.2c-3.052-1.806-7.297-2.884-11.357-2.884c-9.696,0-16.468,5.874-16.468,14.284
		c0,4.244,2.154,10.071,12.411,13.729c4.973,1.837,6.652,3.359,6.652,6.032c0,2.773-2.375,4.43-6.354,4.43
		c-3.39,0-7.024-1.385-9.123-2.757l-0.99-0.646c-0.242-0.16-0.539-0.206-0.845-0.103c-0.282,0.102-0.496,0.321-0.588,0.603
		l-2.524,7.684c-0.14,0.431,0.034,0.891,0.423,1.119l0.633,0.373c3.395,1.998,8.075,3.144,12.839,3.144
		c10.748,0,17.692-5.709,17.692-14.545C83.935,61.868,80.14,57.394,71.629,54.154z"/>
</g>
</svg>
