<?xml version="1.0" encoding="utf-8"?>
<!-- Generator: Adobe Illustrator 16.0.0, SVG Export Plug-In . SVG Version: 6.00 Build 0)  -->
<!DOCTYPE svg PUBLIC "-//W3C//DTD SVG 1.1//EN" "http://www.w3.org/Graphics/SVG/1.1/DTD/svg11.dtd">
<svg version="1.1" id="Layer_2" xmlns="http://www.w3.org/2000/svg" xmlns:xlink="http://www.w3.org/1999/xlink" x="0px" y="0px"
	 width="100px" height="100px" viewBox="0 0 100 100" enable-background="new 0 0 100 100" xml:space="preserve">
<g>
	<path d="M77.817,49.001c0.827,0,1.5-0.673,1.5-1.5v-5.319c0-0.827-0.673-1.5-1.5-1.5h-8.504v-9.535
		c0-0.399-0.162-0.788-0.444-1.065c-0.355-0.354-0.876-0.421-1.066-0.435h-6.832c-0.818,0.009-1.484,0.682-1.484,1.5v9.535h-4.455
		c-0.827,0-1.5,0.673-1.5,1.5v5.319c0,0.827,0.673,1.5,1.5,1.5h4.455v19.46c0,5.322,0.98,8.82,3.07,10.99
		c1.975,2.257,4.973,3.45,8.671,3.45c2.691,0,5.093-0.379,6.764-1.066c0.594-0.244,0.966-0.839,0.926-1.478l-0.317-5.24
		c-0.028-0.453-0.255-0.863-0.623-1.127c-0.361-0.26-0.818-0.35-1.27-0.229c-0.708,0.193-1.917,0.424-3.653,0.424
		c-1.81,0-3.74-0.461-3.74-5.963V49.001H77.817z"/>
	<path d="M54.216,72.925H31.663V18.547c0-0.799-0.65-1.448-1.449-1.448h-8.082c-0.799,0-1.449,0.649-1.449,1.448v62.606
		c0,0.799,0.65,1.449,1.449,1.449h32.084c0.799,0,1.449-0.65,1.449-1.449v-6.781C55.665,73.574,55.015,72.925,54.216,72.925z"/>
</g>
</svg>
