<?xml version="1.0" encoding="utf-8"?>
<!-- Generator: Adobe Illustrator 16.0.0, SVG Export Plug-In . SVG Version: 6.00 Build 0)  -->
<!DOCTYPE svg PUBLIC "-//W3C//DTD SVG 1.1//EN" "http://www.w3.org/Graphics/SVG/1.1/DTD/svg11.dtd">
<svg version="1.1" id="Layer_2" xmlns="http://www.w3.org/2000/svg" xmlns:xlink="http://www.w3.org/1999/xlink" x="0px" y="0px"
	 width="100px" height="100px" viewBox="0 0 100 100" enable-background="new 0 0 100 100" xml:space="preserve">
<path d="M35.101,58.303l-1.457-0.039V34.688c0-0.553-0.447-1-1-1H13.419c-0.553,0-1,0.447-1,1v7.402c0,3.973-0.038,7.687-1.1,11.038
	c-0.564,1.795-1.375,3.519-2.412,5.129l-1.887,0.046c-0.55,0.014-0.985,0.469-0.976,1.019l0.007,12.865
	c0.01,0.545,0.684,0.981,1.229,0.981h4.054c0.542,0,1.188-0.432,1.203-0.974l0.006-8.073h17.481l0.006,8.073
	c0.015,0.542,0.661,0.974,1.203,0.974h3.554c0.543,0,1.216-0.434,1.229-0.978l0.065-12.865c0.006-0.266-0.094-0.522-0.278-0.714
	C35.619,58.419,35.366,58.309,35.101,58.303z M26.592,39.624v18.562H16.394c0.671-1.362,1.197-2.683,1.598-4.004
	c0.987-3.335,1.01-7.09,1.01-10.858v-3.699H26.592z M52.79,33.042c-8.44,0-14.335,6.716-14.335,16.332
	c0,9.315,5.881,15.335,14.981,15.335c4.769,0,7.999-1.007,9.869-1.852c0.438-0.197,0.673-0.677,0.562-1.143l-0.881-3.701
	c-0.068-0.286-0.259-0.528-0.521-0.661c-0.263-0.132-0.57-0.144-0.842-0.028c-1.701,0.722-3.785,1.39-7.481,1.39
	c-2.473,0-8.094-0.791-8.701-7.869h18.923c0.51,0,0.938-0.384,0.994-0.89l0.028-0.245c0.062-0.523,0.154-1.313,0.154-2.274
	C65.54,40.271,61.598,33.042,52.79,33.042z M52.379,38.743c1.768,0,3.186,0.531,4.215,1.58c1.416,1.441,1.815,3.514,1.92,4.82
	H45.633C46.259,42.368,48.178,38.743,52.379,38.743z M95.555,34.688v28.434c0,0.553-0.447,1-1,1h-5.11c-0.553,0-1-0.447-1-1V51.256
	H76.933v11.865c0,0.553-0.447,1-1,1h-5.111c-0.553,0-1-0.447-1-1V34.688c0-0.553,0.447-1,1-1h5.111c0.553,0,1,0.447,1,1v10.456
	h11.512V34.688c0-0.553,0.447-1,1-1h5.11C95.107,33.688,95.555,34.135,95.555,34.688z"/>
</svg>
