<?xml version="1.0" encoding="utf-8"?>
<!-- Generator: Adobe Illustrator 16.0.0, SVG Export Plug-In . SVG Version: 6.00 Build 0)  -->
<!DOCTYPE svg PUBLIC "-//W3C//DTD SVG 1.1//EN" "http://www.w3.org/Graphics/SVG/1.1/DTD/svg11.dtd">
<svg version="1.1" id="Layer_2" xmlns="http://www.w3.org/2000/svg" xmlns:xlink="http://www.w3.org/1999/xlink" x="0px" y="0px"
	 width="100px" height="100px" viewBox="0 0 100 100" enable-background="new 0 0 100 100" xml:space="preserve">
<g>
	<path d="M87.323,29.531c0-0.716-0.584-1.299-1.3-1.299h-6.762c-0.541,0-1.031,0.342-1.218,0.85l-7.318,19.875
		c-1.326,3.758-2.353,6.873-3.168,9.613c-0.786-2.765-1.771-5.879-3.031-9.613L57.521,29.1c-0.182-0.52-0.675-0.867-1.225-0.867
		h-6.762c-0.714,0-1.298,0.581-1.3,1.296l-0.095,41.06c0,0.351,0.135,0.677,0.38,0.917c0.245,0.248,0.573,0.382,0.92,0.382
		l4.191,0.001v-0.622l0.015,0.621c0.717,0,1.3-0.582,1.3-1.298c0-0.088-0.008-0.175-0.026-0.263l-0.005-26.353
		c0.666,2.159,1.434,4.534,2.345,7.237l6.675,19.556c0.18,0.524,0.675,0.878,1.229,0.878h4.021c0.546,0,1.037-0.345,1.22-0.856
		l7.216-19.917c1.052-2.875,1.99-5.556,2.839-8.108l-0.009,27.826c0,0.347,0.135,0.673,0.381,0.918
		c0.244,0.246,0.57,0.38,0.917,0.38h4.303c0.348,0,0.673-0.134,0.917-0.38c0.248-0.246,0.383-0.571,0.383-0.919L87.323,29.531z"/>
	<path d="M34.106,51.877c4.137-3.472,5.685-6.688,5.685-11.729c0-3.449-1.249-6.448-3.51-8.442
		c-2.746-2.483-6.631-3.593-12.599-3.593L13.23,28.146c-0.321,0.001-0.58,0.262-0.58,0.581v42.47c0,0.321,0.259,0.582,0.582,0.582
		h5.444c0.322,0,0.58-0.261,0.58-0.582V53.5h8.795l6.479,17.896c0.083,0.231,0.301,0.384,0.546,0.384h5.634
		c0.192,0,0.369-0.094,0.479-0.249c0.106-0.157,0.132-0.357,0.066-0.536L34.106,51.877z M24.248,48.205h-4.991V33.474l4.8-0.005
		c4.166,0.046,9.125,1.351,9.125,7.306C33.182,45.29,29.676,48.205,24.248,48.205z"/>
</g>
</svg>
