<?xml version="1.0" encoding="utf-8"?>
<!-- Generator: Adobe Illustrator 16.0.0, SVG Export Plug-In . SVG Version: 6.00 Build 0)  -->
<!DOCTYPE svg PUBLIC "-//W3C//DTD SVG 1.1//EN" "http://www.w3.org/Graphics/SVG/1.1/DTD/svg11.dtd">
<svg version="1.1" id="Layer_2" xmlns="http://www.w3.org/2000/svg" xmlns:xlink="http://www.w3.org/1999/xlink" x="0px" y="0px"
	 width="100px" height="100px" viewBox="0 0 100 100" enable-background="new 0 0 100 100" xml:space="preserve">
<path d="M78.491,15.264c-0.969-0.879-2.571-1.324-4.761-1.324H26.169c-2.072,0-3.634,0.438-4.642,1.303
	c-0.953,0.816-1.416,1.928-1.416,3.395c0,1.418,0.448,2.512,1.371,3.348c0.953,0.861,2.529,1.299,4.687,1.299h17.824v20.18
	l-15.94,9.344c-1.504,0.883-2.009,2.818-1.127,4.322c0.587,1.002,1.643,1.561,2.727,1.561c0.542,0,1.092-0.141,1.594-0.434
	l12.746-7.473v9.977l-15.94,9.344c-1.504,0.881-2.009,2.816-1.127,4.32c0.587,1.002,1.643,1.561,2.727,1.561
	c0.542,0,1.092-0.139,1.594-0.434l12.746-7.471v10.361c0,2.652,0.57,4.615,1.694,5.834c1.107,1.201,2.518,1.785,4.313,1.785
	c1.76,0,3.146-0.576,4.238-1.76c1.107-1.201,1.668-3.174,1.668-5.859V61.096l16.04-9.402c1.504-0.883,2.009-2.816,1.127-4.322
	c-0.881-1.502-2.816-2.006-4.321-1.125l-12.846,7.529v-9.975l16.04-9.402c1.504-0.883,2.009-2.816,1.127-4.322
	c-0.881-1.504-2.816-2.008-4.321-1.127L55.906,36.48V23.283H73.73c2.165,0,3.763-0.441,4.752-1.313
	c0.946-0.834,1.406-1.924,1.406-3.334C79.888,17.221,79.431,16.117,78.491,15.264z"/>
</svg>
