<?xml version="1.0" encoding="utf-8"?>
<!-- Generator: Adobe Illustrator 16.0.0, SVG Export Plug-In . SVG Version: 6.00 Build 0)  -->
<!DOCTYPE svg PUBLIC "-//W3C//DTD SVG 1.1//EN" "http://www.w3.org/Graphics/SVG/1.1/DTD/svg11.dtd">
<svg version="1.1" id="Layer_2" xmlns="http://www.w3.org/2000/svg" xmlns:xlink="http://www.w3.org/1999/xlink" x="0px" y="0px"
	 width="100px" height="100px" viewBox="0 0 100 100" enable-background="new 0 0 100 100" xml:space="preserve">
<g>
	<path d="M93.169,24.802H57.602c-0.652,0-1.183,0.53-1.183,1.183v5.274c0,0.652,0.531,1.183,1.183,1.183H71.03v41.583
		c0,0.652,0.531,1.183,1.184,1.183h6.271c0.652,0,1.183-0.53,1.183-1.183V32.441h13.501c0.652,0,1.183-0.53,1.183-1.183v-5.274
		C94.352,25.332,93.821,24.802,93.169,24.802z"/>
	<path d="M49.028,24.793h-7.652c-0.823,0-1.566,0.518-1.849,1.288l-8.286,22.504c-1.24,3.514-2.262,6.571-3.104,9.292
		c-0.799-2.699-1.776-5.757-2.97-9.292l-7.929-22.476c-0.275-0.787-1.021-1.316-1.858-1.316H7.727c-1.083,0-1.967,0.882-1.971,1.966
		L5.648,73.235c0,0.531,0.206,1.026,0.574,1.39C6.593,75,7.09,75.206,7.62,75.206l5.244,0.001v-0.061
		c0.854-0.216,1.487-0.99,1.487-1.91c0-0.121-0.01-0.235-0.03-0.347l-0.003-26.523c0.513,1.6,1.069,3.287,1.679,5.098L23.553,73.6
		c0.273,0.797,1.023,1.332,1.864,1.332h4.55c0.83,0,1.574-0.523,1.852-1.3l8.167-22.542c0.809-2.213,1.55-4.298,2.241-6.309
		l-0.009,28.455c0,0.527,0.205,1.022,0.576,1.392c0.371,0.373,0.866,0.578,1.394,0.578h4.87c0.528,0,1.022-0.205,1.391-0.576
		c0.374-0.371,0.58-0.866,0.58-1.395L51,26.763C51,25.677,50.116,24.793,49.028,24.793z"/>
</g>
</svg>
