<?xml version="1.0" encoding="utf-8"?>
<!-- Generator: Adobe Illustrator 16.0.0, SVG Export Plug-In . SVG Version: 6.00 Build 0)  -->
<!DOCTYPE svg PUBLIC "-//W3C//DTD SVG 1.1//EN" "http://www.w3.org/Graphics/SVG/1.1/DTD/svg11.dtd">
<svg version="1.1" id="Layer_2" xmlns="http://www.w3.org/2000/svg" xmlns:xlink="http://www.w3.org/1999/xlink" x="0px" y="0px"
	 width="100px" height="100px" viewBox="0 0 100 100" enable-background="new 0 0 100 100" xml:space="preserve">
<path d="M64.063,10.265c-0.592,0-1.215,0.033-1.852,0.098c-5.167,0.525-9.775,4.211-11.679,10.239
	c-0.785,2.488-1.429,5.136-1.92,7.741l-0.979,5.438h-9.26c-1.224,0-2.219,0.996-2.219,2.219c0,1.225,0.995,2.219,2.219,2.219
	l8.654,0.011L44.75,56.888c-0.98,8.346-2.031,15.781-3.214,22.729c-0.697,4.105-2.733,6.258-6.213,6.556
	c0.644-0.896,0.999-2.012,0.999-3.199c0-2.821-2.028-5.117-4.521-5.117c-2.492,0-4.521,2.296-4.52,5.153
	c0.254,3.434,3.187,5.309,4.079,5.802c1.097,0.604,2.432,0.925,3.859,0.925c3.919,0,7.735-2.227,9.724-5.67
	c3.081-5.34,4.454-10.904,5.598-16.145c1.515-6.95,2.523-14.14,3.498-21.092c0.402-2.865,0.805-5.734,1.243-8.604l9.03-0.008
	c1.224,0,2.219-0.994,2.219-2.219c0-1.223-0.995-2.219-2.219-2.219h-8.644c1.561-10.166,2.669-14.98,3.195-16.959
	c0.399-1.5,1.622-3.287,5.185-3.287c0.259,0,0.528,0.01,0.807,0.028c-0.442,0.956-0.888,2.007-0.888,2.731
	c0,2.412,1.963,4.375,4.375,4.375c2.413,0,4.376-1.963,4.376-4.375C72.719,14.729,71.128,10.265,64.063,10.265z"/>
</svg>
