<?xml version="1.0" encoding="utf-8"?>
<!-- Generator: Adobe Illustrator 16.0.0, SVG Export Plug-In . SVG Version: 6.00 Build 0)  -->
<!DOCTYPE svg PUBLIC "-//W3C//DTD SVG 1.1//EN" "http://www.w3.org/Graphics/SVG/1.1/DTD/svg11.dtd">
<svg version="1.1" id="Layer_2" xmlns="http://www.w3.org/2000/svg" xmlns:xlink="http://www.w3.org/1999/xlink" x="0px" y="0px"
	 width="100px" height="100px" viewBox="0 0 100 100" enable-background="new 0 0 100 100" xml:space="preserve">
<path d="M52.057,74.92c0.123,0.396-0.057,0.826-0.424,1.019c-1.078,0.563-5.178,2.398-12.668,2.398
	c-16.66,0-27.854-11.255-27.854-28.007c0-16.455,10.33-27.087,26.32-27.087c6.717,0,11.764,1.374,14.043,2.551
	c0.354,0.183,0.537,0.583,0.443,0.969l-1.305,5.368c-0.063,0.253-0.234,0.464-0.471,0.575c-0.234,0.111-0.508,0.111-0.744-0.004
	c-2.615-1.271-6.672-2.061-10.588-2.061c-11.85,0-18.922,7.445-18.922,19.919c0,12.809,7.217,20.455,19.305,20.455
	c5.094,0,8.432-1.288,9.967-2.056c0.227-0.114,0.49-0.122,0.725-0.022c0.232,0.1,0.41,0.297,0.484,0.538L52.057,74.92z
	 M87.912,54.887c-0.588-1.588-1.478-2.937-2.646-4.008c-1.185-1.086-2.69-2.022-4.476-2.784c-1.59-0.678-3.459-1.346-5.54-1.993
	v-15.33c3.495,0.852,5.407,3.146,5.685,6.867h0.01l0.025,0.417c0.063,1.732,1.474,3.089,3.212,3.089c1.855,0,3.271-1.38,3.29-3.209
	l-0.066-0.58c-0.467-7.611-4.459-11.827-12.155-12.831v-8.269c0-1.727-1.405-3.131-3.132-3.131s-3.131,1.404-3.131,3.131v8.184
	c-1.375,0.166-2.674,0.464-3.862,0.923c-1.853,0.714-3.453,1.709-4.756,2.955c-1.301,1.245-2.309,2.731-2.996,4.422
	c-0.688,1.695-1.038,3.598-1.038,5.655c0,2.281,0.265,4.199,0.784,5.699c0.512,1.479,1.326,2.75,2.421,3.772
	c1.108,1.038,2.531,1.936,4.229,2.666c1.471,0.633,3.232,1.258,5.218,1.862v17.425c-4.487-0.973-6.854-3.947-7.039-8.886
	l-0.001-0.422c0-1.767-1.447-3.204-3.226-3.204c-1.887,0-3.27,1.35-3.289,3.209c0.465,9.491,4.912,14.648,13.555,15.729v8.249
	c0,1.727,1.404,3.131,3.131,3.131s3.132-1.404,3.132-3.131v-8.208c1.491-0.19,2.89-0.53,4.154-1.056
	c1.978-0.821,3.686-1.946,5.077-3.345c1.391-1.397,2.47-3.057,3.208-4.933c0.74-1.88,1.114-3.939,1.114-6.121
	C88.804,58.494,88.504,56.494,87.912,54.887z M68.056,43.835c-1.57-0.543-2.707-1.084-3.476-1.655
	c-0.804-0.595-1.306-1.265-1.494-1.992c-0.17-0.662-0.258-1.529-0.258-2.578c0-1.204,0.244-2.28,0.725-3.201
	c0.482-0.921,1.152-1.687,1.994-2.277c0.824-0.58,1.793-1.021,2.876-1.31c0.186-0.05,0.375-0.089,0.564-0.131v13.46
	C68.657,44.04,68.342,43.934,68.056,43.835z M79.906,67.885c-1.124,1.075-2.69,1.767-4.656,2.084V54.445
	c0.316,0.111,0.636,0.223,0.92,0.325c1.602,0.579,2.864,1.178,3.755,1.78c0.932,0.631,1.572,1.364,1.904,2.18
	c0.319,0.787,0.481,1.759,0.481,2.887C82.311,64.252,81.502,66.36,79.906,67.885z"/>
</svg>
