<?xml version="1.0" encoding="utf-8"?>
<!-- Generator: Adobe Illustrator 16.0.0, SVG Export Plug-In . SVG Version: 6.00 Build 0)  -->
<!DOCTYPE svg PUBLIC "-//W3C//DTD SVG 1.1//EN" "http://www.w3.org/Graphics/SVG/1.1/DTD/svg11.dtd">
<svg version="1.1" id="Layer_2" xmlns="http://www.w3.org/2000/svg" xmlns:xlink="http://www.w3.org/1999/xlink" x="0px" y="0px"
	 width="100px" height="100px" viewBox="0 0 100 100" enable-background="new 0 0 100 100" xml:space="preserve">
<path d="M87.951,54.322H76.759V43.565h11.192c1.682,0,3.045-1.362,3.045-3.044s-1.363-3.045-3.045-3.045H76.759V22.551
	c0-2.179-0.431-3.778-1.279-4.752c-0.807-0.927-1.867-1.358-3.337-1.358c-1.401,0-2.422,0.428-3.213,1.349
	c-0.838,0.975-1.264,2.577-1.264,4.762v14.926H46.613l-8.952-13.546c-0.766-1.209-1.486-2.341-2.186-3.428
	c-0.63-0.979-1.244-1.776-1.824-2.371c-0.514-0.527-1.099-0.935-1.784-1.248c-0.646-0.295-1.467-0.443-2.439-0.443
	c-1.239,0-2.364,0.339-3.441,1.037c-1.066,0.69-1.803,1.543-2.253,2.608c-0.395,1.012-0.604,2.563-0.604,4.565v12.825H12.049
	c-1.682,0-3.044,1.363-3.044,3.045s1.362,3.044,3.044,3.044H23.13v10.757H12.049c-1.682,0-3.044,1.363-3.044,3.045
	s1.362,3.044,3.044,3.044H23.13v17.04c0,2.115,0.444,3.698,1.324,4.703c0.837,0.959,1.898,1.405,3.339,1.405
	c1.39,0,2.443-0.447,3.316-1.408c0.894-0.985,1.346-2.567,1.346-4.7v-17.04h19.051l10.31,15.808c0.716,1.045,1.456,2.1,2.195,3.134
	c0.666,0.929,1.392,1.747,2.159,2.431c0.69,0.618,1.43,1.071,2.2,1.347c0.792,0.286,1.718,0.43,2.745,0.43
	c2.789,0,5.644-0.854,5.644-7.183V60.411h11.192c1.682,0,3.045-1.362,3.045-3.044S89.633,54.322,87.951,54.322z M67.666,43.565
	v10.757h-9.92l-7.108-10.757H67.666z M32.455,31.205l4.091,6.271h-4.091V31.205z M32.455,54.322V43.565h8.063l7.016,10.757H32.455z
	 M67.666,69.335l-5.896-8.924h5.896V69.335z"/>
</svg>
