<?xml version="1.0" encoding="utf-8"?>
<!-- Generator: Adobe Illustrator 16.0.0, SVG Export Plug-In . SVG Version: 6.00 Build 0)  -->
<!DOCTYPE svg PUBLIC "-//W3C//DTD SVG 1.1//EN" "http://www.w3.org/Graphics/SVG/1.1/DTD/svg11.dtd">
<svg version="1.1" id="Layer_2" xmlns="http://www.w3.org/2000/svg" xmlns:xlink="http://www.w3.org/1999/xlink" x="0px" y="0px"
	 width="100px" height="100px" viewBox="0 0 100 100" enable-background="new 0 0 100 100" xml:space="preserve">
<path d="M94.425,49.943H81.256l1.879-7.602h11.29c1.05,0,1.9-0.852,1.9-1.901s-0.851-1.9-1.9-1.9H84.075l2.292-9.27
	c0.583-2.39,0.879-4.128,0.879-5.162c0-1.283-0.431-2.315-1.317-3.158c-0.904-0.858-1.978-1.276-3.284-1.276
	c-1.281,0-2.24,0.306-2.854,0.908c-0.716,0.706-1.205,1.476-1.494,2.355c-0.333,1.009-0.691,2.436-1.067,4.237L74.68,38.54H60.388
	l-2.442-9.013c-0.735-2.695-1.326-4.646-1.754-5.798c-0.373-1.002-1.067-1.955-2.065-2.833c-0.923-0.811-2.291-1.223-4.064-1.223
	c-1.764,0-3.15,0.4-4.12,1.189c-1.028,0.837-1.777,1.837-2.227,2.971c-0.505,1.279-1.092,3.191-1.742,5.684l-2.421,9.022H25.321
	l-2.545-11.349c-0.559-2.633-1.205-4.639-1.924-5.976c-0.206-0.381-0.832-1.542-3.496-1.542c-1.328,0-2.406,0.421-3.293,1.286
	c-0.88,0.857-1.308,1.889-1.308,3.148c0,1.144,0.295,2.876,0.877,5.152l2.294,9.279H5.575c-1.05,0-1.9,0.851-1.9,1.9
	s0.851,1.901,1.9,1.901h11.291l1.879,7.602H5.575c-1.05,0-1.9,0.852-1.9,1.9c0,1.05,0.851,1.9,1.9,1.9h14.11l4.09,16.545
	c0.302,1.209,0.646,2.524,1.032,3.943c0.358,1.319,0.821,2.467,1.375,3.411c0.51,0.868,1.152,1.519,1.964,1.987
	c0.798,0.461,1.866,0.695,3.174,0.695c1.613,0,2.847-0.38,3.773-1.158c0.976-0.821,1.665-1.75,2.047-2.759
	c0.443-1.167,1.054-3.141,1.816-5.864l4.587-16.801h12.97l4.533,16.812c0.789,2.799,1.407,4.801,1.835,5.938
	c0.368,0.979,1.047,1.883,2.019,2.688c0.916,0.759,2.188,1.144,3.78,1.144c1.69,0,2.987-0.391,3.854-1.158
	c0.938-0.832,1.611-1.809,2-2.902c0.442-1.248,1.012-3.26,1.692-5.979l4.09-16.543h14.109c1.05,0,1.9-0.851,1.9-1.9
	C96.326,50.795,95.475,49.943,94.425,49.943z M73.828,42.342l-1.705,7.602h-8.645l-2.06-7.602H73.828z M50.07,29.845l2.344,8.695
	h-4.719L50.07,29.845z M26.173,42.342h12.358l-2.04,7.602h-8.613L26.173,42.342z M31.8,67.424l-3.069-13.68h6.74L31.8,67.424z
	 M44.582,49.943l2.075-7.602h6.782l2.05,7.602H44.582z M68.207,67.401l-3.7-13.657h6.763L68.207,67.401z"/>
</svg>
