<?xml version="1.0" encoding="utf-8"?>
<!-- Generator: Adobe Illustrator 16.0.0, SVG Export Plug-In . SVG Version: 6.00 Build 0)  -->
<!DOCTYPE svg PUBLIC "-//W3C//DTD SVG 1.1//EN" "http://www.w3.org/Graphics/SVG/1.1/DTD/svg11.dtd">
<svg version="1.1" id="Layer_2" xmlns="http://www.w3.org/2000/svg" xmlns:xlink="http://www.w3.org/1999/xlink" x="0px" y="0px"
	 width="100px" height="100px" viewBox="0 0 100 100" enable-background="new 0 0 100 100" xml:space="preserve">
<path d="M80.881,24.414L59.875,77.578c-0.166,0.43-0.578,0.712-1.038,0.712h-5.092c-0.366,0-0.709-0.181-0.917-0.481
	c-0.208-0.303-0.253-0.688-0.122-1.031l20.854-53.164c0.165-0.43,0.578-0.715,1.039-0.715h5.246c0.367,0,0.71,0.181,0.918,0.484
	C80.968,23.686,81.014,24.07,80.881,24.414z M90.666,71.573c0,3.419-2.386,5.901-5.674,5.901h-0.076
	c-3.148,0-5.522-2.537-5.522-5.901c0-3.365,2.439-5.902,5.674-5.902C88.312,65.671,90.666,68.154,90.666,71.573z M45.343,49.245
	l-1.643-0.736l1.604-0.812c3.266-1.658,7.124-4.899,6.956-10.922c-0.338-12.119-11.704-13.79-23.937-13.79l-16.586,0.004
	c-0.429,0-0.778,0.349-0.778,0.776v53.424c0,0.209,0.083,0.407,0.234,0.559c0.144,0.143,0.336,0.221,0.541,0.221l13.707,0.04
	c0.734,0.02,1.42,0.031,2.111,0.031c9.667,0,16.653-2.104,20.765-6.255c2.573-2.598,3.859-6,3.82-10.114
	C52.077,55.319,49.854,51.254,45.343,49.245z M39.279,42.512c-1.768,1.801-3.842,1.961-5.673,2.103l-0.47,0.037
	c-0.265,0.021-0.408,0.018-0.665,0.007c-0.008-0.001-0.015-0.001-0.023-0.001l-11.17,0.001V30.355l11.629,0.024
	c3.756,0,8.143,1.812,8.143,6.925C41.09,39.521,40.494,41.273,39.279,42.512z M21.278,55.048l11.551,0.056
	c3.792,0,8.22,1.811,8.22,6.924c0.041,2.218-0.555,3.97-1.77,5.206c-1.925,1.959-4.933,2.17-6.136,2.17
	c-0.221,0-0.381-0.007-0.584-0.016l-11.281-0.004V55.048z"/>
</svg>
