<?xml version="1.0" encoding="utf-8"?>
<!-- Generator: Adobe Illustrator 16.0.0, SVG Export Plug-In . SVG Version: 6.00 Build 0)  -->
<!DOCTYPE svg PUBLIC "-//W3C//DTD SVG 1.1//EN" "http://www.w3.org/Graphics/SVG/1.1/DTD/svg11.dtd">
<svg version="1.1" id="Layer_2" xmlns="http://www.w3.org/2000/svg" xmlns:xlink="http://www.w3.org/1999/xlink" x="0px" y="0px"
	 width="100px" height="100px" viewBox="0 0 100 100" enable-background="new 0 0 100 100" xml:space="preserve">
<path d="M91.961,68.875c0,7.738-6.123,12.742-15.598,12.742c-4.242,0-8.406-1.018-11.417-2.789l-0.575-0.34
	c-0.168-0.098-0.244-0.297-0.182-0.484l2.288-6.969c0.04-0.119,0.136-0.217,0.257-0.262c0.12-0.041,0.255-0.025,0.361,0.047
	l0.901,0.588c1.961,1.283,5.354,2.574,8.524,2.574c3.895,0,6.22-1.67,6.22-4.473c0-2.662-1.599-4.15-6.333-5.898
	c-9.059-3.232-10.962-8.324-10.962-12.031c0-7.361,5.956-12.504,14.486-12.504c3.605,0,7.372,0.953,10.073,2.553l0.577,0.342
	c0.169,0.102,0.244,0.305,0.18,0.492l-2.303,6.701c-0.041,0.119-0.134,0.215-0.254,0.256c-0.119,0.041-0.251,0.025-0.358-0.041
	l-0.882-0.557c-0.965-0.613-3.601-2.031-7.191-2.031c-3.104,0-5.188,1.605-5.188,3.994c0,2.23,1.459,3.43,6.502,5.35
	C88.608,58.998,91.961,62.928,91.961,68.875z M58.348,47.486H44.089c-0.553,0-1,0.447-1,1v6.23c0,0.553,0.447,1,1,1h5.604v16.24
	c-1.278,0.502-4.065,1.252-9.324,1.252c-13.657,0-22.142-8.893-22.142-23.209c0-14.262,8.859-23.121,23.12-23.121
	c5.166,0,9.244,0.791,12.835,2.486c0.261,0.125,0.565,0.129,0.829,0.012c0.266-0.117,0.467-0.344,0.553-0.619l1.958-6.32
	c0.146-0.473-0.074-0.98-0.521-1.195c-2.731-1.32-8.425-2.859-15.477-2.859c-20.029,0-33.486,12.85-33.486,31.973
	c0,9.336,3.161,17.74,8.677,23.064c5.779,5.516,13.342,8.197,23.119,8.197c9.404,0,16.822-2.57,18.872-3.359
	c0.386-0.148,0.641-0.52,0.641-0.934V48.486C59.348,47.934,58.9,47.486,58.348,47.486z"/>
</svg>
