<?xml version="1.0" encoding="utf-8"?>
<!-- Generator: Adobe Illustrator 16.0.0, SVG Export Plug-In . SVG Version: 6.00 Build 0)  -->
<!DOCTYPE svg PUBLIC "-//W3C//DTD SVG 1.1//EN" "http://www.w3.org/Graphics/SVG/1.1/DTD/svg11.dtd">
<svg version="1.1" id="Layer_2" xmlns="http://www.w3.org/2000/svg" xmlns:xlink="http://www.w3.org/1999/xlink" x="0px" y="0px"
	 width="100px" height="100px" viewBox="0 0 100 100" enable-background="new 0 0 100 100" xml:space="preserve">
<path d="M82.334,39.955h-9.721c0.168-1.193,0.273-2.437,0.273-3.759c0-1.004-0.076-1.967-0.184-2.908h9.631c1.104,0,2-0.896,2-2
	s-0.896-2-2-2h-10.48c-0.137-0.424-0.266-0.853-0.43-1.258c-0.963-2.374-2.387-4.407-4.232-6.041
	c-1.848-1.638-3.58-2.828-6.131-3.536c-2.646-0.757-6.006-1.14-10.982-1.14H32.863c-2.676,0-4.619,0.548-5.777,1.629
	c-1.141,1.063-1.717,2.945-1.717,5.596v4.75h-7.703c-1.104,0-2,0.896-2,2s0.896,2,2,2h7.703v6.667h-7.703c-1.104,0-2,0.896-2,2
	s0.896,2,2,2h7.703v31.643c0,2.385,0.537,4.188,1.596,5.362c1.045,1.162,2.398,1.727,4.137,1.727c1.646,0,2.973-0.573,4.051-1.753
	c1.086-1.188,1.637-3.015,1.637-5.426V55.755h13.289c7.945,0,12.977-1.677,16.932-4.984c2.131-1.784,3.666-4.074,4.641-6.815h10.684
	c1.104,0,2-0.896,2-2S83.438,39.955,82.334,39.955z M36.789,25.391h10.037c6.332,0,10.451,1.059,12.596,3.236
	c0.199,0.213,0.381,0.436,0.561,0.661H36.789V25.391z M55.055,46.595c-2.211,0.689-4.979,1.039-8.229,1.039H36.789v-3.679h22.766
	C58.391,45.128,56.891,46.021,55.055,46.595z M61.848,39.955H36.789v-6.667h25.125c0.244,0.99,0.371,2.049,0.371,3.179
	C62.285,37.737,62.137,38.9,61.848,39.955z"/>
</svg>
