<?xml version="1.0" encoding="utf-8"?>
<!-- Generator: Adobe Illustrator 16.0.0, SVG Export Plug-In . SVG Version: 6.00 Build 0)  -->
<!DOCTYPE svg PUBLIC "-//W3C//DTD SVG 1.1//EN" "http://www.w3.org/Graphics/SVG/1.1/DTD/svg11.dtd">
<svg version="1.1" id="Layer_2" xmlns="http://www.w3.org/2000/svg" xmlns:xlink="http://www.w3.org/1999/xlink" x="0px" y="0px"
	 width="100px" height="100px" viewBox="0 0 100 100" enable-background="new 0 0 100 100" xml:space="preserve">
<g>
	<path d="M58.912,77.338H32.977c1.781-2.057,3.381-4.095,4.757-5.884l21.669-28.159c0.15-0.196,0.232-0.437,0.232-0.684v-5.493
		c0-0.62-0.502-1.122-1.122-1.122H21.664c-0.62,0-1.121,0.502-1.121,1.122v6.99c0,0.62,0.501,1.122,1.121,1.122h23.969
		c-1.614,1.87-3.123,3.696-4.986,5.983l-21.867,28.46c-0.15,0.196-0.232,0.436-0.232,0.684v5.093c0,0.62,0.501,1.122,1.121,1.122
		h39.244c0.621,0,1.123-0.502,1.123-1.122v-6.99C60.035,77.84,59.533,77.338,58.912,77.338z"/>
	<path d="M93.151,34.197c-0.994-1.325-2.872-1.594-4.2-0.603l-7.497,5.615V14.55c0-0.62-0.502-1.122-1.122-1.122h-8.789
		c-0.619,0-1.121,0.502-1.121,1.122v32.923l-12.186,9.126c-1.326,0.993-1.596,2.874-0.603,4.2C58.224,61.585,59.125,62,60.037,62
		c0.626,0,1.257-0.195,1.797-0.599l8.588-6.432v30.48c0,0.62,0.502,1.122,1.121,1.122h8.789c0.62,0,1.122-0.502,1.122-1.122V46.707
		l11.095-8.31C93.875,37.404,94.145,35.523,93.151,34.197z"/>
</g>
</svg>
