<?xml version="1.0" encoding="utf-8"?>
<!-- Generator: Adobe Illustrator 16.0.0, SVG Export Plug-In . SVG Version: 6.00 Build 0)  -->
<!DOCTYPE svg PUBLIC "-//W3C//DTD SVG 1.1//EN" "http://www.w3.org/Graphics/SVG/1.1/DTD/svg11.dtd">
<svg version="1.1" id="Layer_2" xmlns="http://www.w3.org/2000/svg" xmlns:xlink="http://www.w3.org/1999/xlink" x="0px" y="0px"
	 width="100px" height="100px" viewBox="0 0 100 100" enable-background="new 0 0 100 100" xml:space="preserve">
<path d="M22.957,19.091v60.96c0,0.688-0.559,1.248-1.249,1.248h-7.555c-0.689,0-1.248-0.56-1.248-1.248v-60.96
	c0-0.689,0.559-1.248,1.248-1.248h7.555C22.398,17.843,22.957,18.401,22.957,19.091z M69.15,57.04c0,1.642-0.093,2.901-0.282,3.851
	c-0.117,0.583-0.629,1.004-1.224,1.004c-0.001,0-0.002,0-0.004,0l-27.798-0.08c0.792,10.729,9.185,11.923,12.862,11.923
	c5.454,0,8.639-0.995,11.035-1.969c0.334-0.137,0.711-0.12,1.032,0.041c0.321,0.163,0.558,0.455,0.647,0.803l1.374,5.323
	c0.151,0.589-0.142,1.2-0.696,1.451c-2.799,1.264-7.574,2.771-14.422,2.771c-13.172,0-21.684-8.713-21.684-22.197
	c0-13.98,8.563-23.744,20.824-23.744C64.348,36.216,69.15,47.434,69.15,57.04z M40.081,53.902h19.242
	c-0.128-1.919-0.69-5.171-2.908-7.43c-1.531-1.56-3.617-2.351-6.201-2.351C44.116,44.122,41.029,49.117,40.081,53.902z
	 M80.867,32.102h0.086c3.501,0,6.142-2.64,6.142-6.144c0-3.452-2.603-6.054-6.057-6.054c-3.501,0-6.142,2.602-6.142,6.054
	C74.896,29.462,77.463,32.102,80.867,32.102z M84.816,37.246h-7.555c-0.689,0-1.249,0.56-1.249,1.248v41.557
	c0,0.688,0.559,1.248,1.249,1.248h7.555c0.69,0,1.249-0.56,1.249-1.248V38.494C86.064,37.806,85.506,37.246,84.816,37.246z"/>
</svg>
