<?xml version="1.0" encoding="utf-8"?>
<!-- Generator: Adobe Illustrator 16.0.0, SVG Export Plug-In . SVG Version: 6.00 Build 0)  -->
<!DOCTYPE svg PUBLIC "-//W3C//DTD SVG 1.1//EN" "http://www.w3.org/Graphics/SVG/1.1/DTD/svg11.dtd">
<svg version="1.1" id="Layer_3" xmlns="http://www.w3.org/2000/svg" xmlns:xlink="http://www.w3.org/1999/xlink" x="0px" y="0px"
	 width="100px" height="100px" viewBox="0 0 100 100" enable-background="new 0 0 100 100" xml:space="preserve">
<path d="M62.148,35.841c-1.184,0-1.693-0.338-2.709-0.508c-1.016-0.169-3.387,0.339-3.387,3.218c0,3.388,3.049,4.404,6.096,4.404
	c6.438,0,11.687-5.081,11.687-12.195c0-7.128-6.248-12.202-13.982-13.633V6.087h-6.566v10.698
	c-11.581,0.803-18.234,8.293-18.234,18.21c0,6.41,3.082,10.767,8.06,14.595h0.038c1.505,1.065,3.067,1.966,4.524,2.74
	c7.622,4.065,9.653,8.806,9.653,12.871c0,7.621-6.436,11.178-12.533,11.178c-6.095,0-11.009-4.065-11.009-8.129
	c0-2.371,0.847-4.911,4.066-4.911c1.184,0,1.693,0.339,2.709,0.508c1.016,0.169,3.387-0.339,3.387-3.217
	c0-3.388-3.048-4.404-6.096-4.404c-6.438,0-11.687,5.081-11.687,12.194c0,6.88,5.813,11.858,13.168,13.484v12.011h6.566V82.426
	c12.078-0.505,19.047-8.097,19.047-18.241c0-6.583-2.899-10.595-8.102-14.595h0.005c-1.505-1.065-3.066-1.966-4.524-2.74
	c-7.622-4.065-9.652-8.806-9.652-12.87c0-7.622,6.435-11.179,12.531-11.179c6.097,0,11.01,4.065,11.01,8.13
	C66.215,33.302,65.369,35.841,62.148,35.841z"/>
</svg>
