<?xml version="1.0" encoding="utf-8"?>
<!-- Generator: Adobe Illustrator 16.0.0, SVG Export Plug-In . SVG Version: 6.00 Build 0)  -->
<!DOCTYPE svg PUBLIC "-//W3C//DTD SVG 1.1//EN" "http://www.w3.org/Graphics/SVG/1.1/DTD/svg11.dtd">
<svg version="1.1" id="Layer_2" xmlns="http://www.w3.org/2000/svg" xmlns:xlink="http://www.w3.org/1999/xlink" x="0px" y="0px"
	 width="100px" height="100px" viewBox="0 0 100 100" enable-background="new 0 0 100 100" xml:space="preserve">
<path d="M32.586,58.417l-2.241-0.076V29.764c0-0.353-0.285-0.638-0.637-0.638H11.706c-0.353,0-0.638,0.285-0.638,0.638v8.278
	c0,5.811-0.72,9.996-1.772,13.565c-0.747,2.478-1.909,4.759-2.973,6.728l-2.106,0.082c-0.348,0.014-0.621,0.305-0.612,0.653
	l0.29,11.183c0.009,0.346,0.292,0.621,0.638,0.621h3.292c0.343,0,0.624-0.271,0.637-0.613l0.268-7.229h19.347l0.269,7.229
	c0.012,0.342,0.294,0.613,0.637,0.613h3.292c0.346,0,0.628-0.275,0.638-0.621l0.291-11.183
	C33.21,58.721,32.936,58.429,32.586,58.417z M24.858,33.887v24.385H12.133c0.738-1.429,1.595-3.316,2.206-5.368
	c1.127-3.571,1.925-7.99,1.925-13.506v-5.511H24.858z M58.285,38.962v23.433c0,0.353-0.285,0.637-0.637,0.637h-4.066
	c-0.353,0-0.637-0.284-0.637-0.637v-9.926c0-2.822,0.05-4.596,0.158-6.949c-0.884,1.71-1.687,3.176-2.696,4.942
	c-1.108,1.807-2.288,3.809-3.504,5.872c-1.251,2.121-2.54,4.306-3.815,6.393c-0.116,0.189-0.322,0.305-0.544,0.305h-4.89
	c-0.352,0-0.637-0.284-0.637-0.637V38.962c0-0.353,0.285-0.638,0.637-0.638h4.019c0.353,0,0.638,0.285,0.638,0.638v9.877
	c0,2.778-0.029,4.735-0.11,6.744c0.789-1.565,1.525-2.955,2.599-4.834l7.318-12.117c0.116-0.19,0.322-0.308,0.546-0.308h4.986
	C58,38.324,58.285,38.609,58.285,38.962z M84.675,38.962v23.433c0,0.353-0.285,0.637-0.637,0.637h-4.212
	c-0.352,0-0.637-0.284-0.637-0.637v-9.966h-9.861v9.966c0,0.353-0.285,0.637-0.637,0.637h-4.212c-0.353,0-0.638-0.284-0.638-0.637
	V38.962c0-0.353,0.285-0.638,0.638-0.638h4.212c0.352,0,0.637,0.285,0.637,0.638v8.804h9.861v-8.804
	c0-0.353,0.285-0.638,0.637-0.638h4.212C84.39,38.324,84.675,38.609,84.675,38.962z M96.396,59.877c0,2.171-1.457,3.688-3.542,3.688
	c-2.024,0-3.494-1.552-3.494-3.688s1.49-3.688,3.542-3.688C94.926,56.189,96.396,57.741,96.396,59.877z"/>
</svg>
