<?xml version="1.0" encoding="utf-8"?>
<!-- Generator: Adobe Illustrator 16.0.0, SVG Export Plug-In . SVG Version: 6.00 Build 0)  -->
<!DOCTYPE svg PUBLIC "-//W3C//DTD SVG 1.1//EN" "http://www.w3.org/Graphics/SVG/1.1/DTD/svg11.dtd">
<svg version="1.1" id="Layer_2" xmlns="http://www.w3.org/2000/svg" xmlns:xlink="http://www.w3.org/1999/xlink" x="0px" y="0px"
	 width="100px" height="100px" viewBox="0 0 100 100" enable-background="new 0 0 100 100" xml:space="preserve">
<path d="M58.305,39.402h7.381c1.401,0,2.537-1.139,2.537-2.539c0-1.402-1.136-2.537-2.537-2.537h-7.431
	c-0.477-3.353-1.94-6.252-4.267-8.303c-3.484-3.152-8.413-4.561-15.984-4.561l-13.261,0.045c-0.408,0-0.736,0.332-0.736,0.735
	v12.083H15.57c-1.401,0-2.537,1.135-2.537,2.537c0,1.4,1.136,2.539,2.537,2.539h8.437v36.726c0,0.407,0.328,0.738,0.738,0.738h6.907
	c0.409,0,0.736-0.331,0.736-0.738V53.675h11.159l8.221,22.703c0.105,0.296,0.381,0.488,0.692,0.488h7.148
	c0.244,0,0.468-0.118,0.608-0.316c0.135-0.198,0.167-0.453,0.084-0.679l-9.072-24.256C55.708,47.856,57.789,44.328,58.305,39.402z
	 M32.388,28.265l6.09-0.004c4.432,0.05,9.557,1.233,11.102,6.065H32.388V28.265z M38.721,46.957h-6.333v-7.555h17.49
	C49.003,44.048,44.823,46.957,38.721,46.957z M86.967,66.893c0,7.072-5.594,11.645-14.253,11.645c-3.877,0-7.681-0.93-10.434-2.55
	l-0.524-0.311c-0.154-0.089-0.223-0.271-0.167-0.441l2.091-6.368c0.037-0.11,0.124-0.199,0.234-0.24
	c0.11-0.037,0.234-0.022,0.331,0.043l0.824,0.537c1.792,1.173,4.894,2.353,7.79,2.353c3.559,0,5.684-1.526,5.684-4.087
	c0-2.434-1.461-3.792-5.786-5.39c-8.279-2.954-10.019-7.607-10.019-10.995c0-6.728,5.444-11.426,13.239-11.426
	c3.294,0,6.736,0.871,9.205,2.332l0.528,0.313c0.155,0.093,0.223,0.278,0.165,0.449l-2.105,6.124
	c-0.037,0.108-0.123,0.195-0.231,0.232c-0.109,0.039-0.229,0.024-0.328-0.037l-0.806-0.509c-0.882-0.56-3.29-1.855-6.572-1.855
	c-2.835,0-4.741,1.468-4.741,3.65c0,2.037,1.333,3.134,5.941,4.889C83.903,57.867,86.967,61.458,86.967,66.893z"/>
</svg>
