<?xml version="1.0" encoding="utf-8"?>
<!-- Generator: Adobe Illustrator 16.0.0, SVG Export Plug-In . SVG Version: 6.00 Build 0)  -->
<!DOCTYPE svg PUBLIC "-//W3C//DTD SVG 1.1//EN" "http://www.w3.org/Graphics/SVG/1.1/DTD/svg11.dtd">
<svg version="1.1" id="Layer_2" xmlns="http://www.w3.org/2000/svg" xmlns:xlink="http://www.w3.org/1999/xlink" x="0px" y="0px"
	 width="100px" height="100px" viewBox="0 0 100 100" enable-background="new 0 0 100 100" xml:space="preserve">
<path d="M53.412,44.822c-8.961-3.469-11.836-6.18-11.836-11.155c0-4.171,3.34-8.379,10.803-8.379c6.25,0,10.23,2.166,11.302,2.83
	c0.272,0.167,0.606,0.202,0.907,0.095c0.301-0.108,0.536-0.348,0.639-0.651l2.241-6.627c0.159-0.471-0.035-0.989-0.464-1.239
	c-1.653-0.971-6.361-3.225-14.344-3.225c-12.597,0-21.395,7.455-21.395,18.129c0,8.488,5.658,14.672,17.294,18.902
	c8.144,3.044,11.172,6.141,11.172,11.431c0,5.974-4.64,9.685-12.112,9.685c-4.928,0-9.994-1.437-13.9-3.94
	c-0.274-0.175-0.615-0.215-0.924-0.104c-0.308,0.112-0.544,0.359-0.642,0.671l-2.147,6.813c-0.14,0.446,0.03,0.93,0.42,1.189
	c3.721,2.481,10.718,4.283,16.635,4.283c16.963,0,22.981-10.37,22.981-19.25C70.042,55.123,65.227,49.486,53.412,44.822z"/>
</svg>
