<?xml version="1.0" encoding="utf-8"?>
<!-- Generator: Adobe Illustrator 16.0.0, SVG Export Plug-In . SVG Version: 6.00 Build 0)  -->
<!DOCTYPE svg PUBLIC "-//W3C//DTD SVG 1.1//EN" "http://www.w3.org/Graphics/SVG/1.1/DTD/svg11.dtd">
<svg version="1.1" id="Layer_2" xmlns="http://www.w3.org/2000/svg" xmlns:xlink="http://www.w3.org/1999/xlink" x="0px" y="0px"
	 width="100px" height="100px" viewBox="0 0 100 100" enable-background="new 0 0 100 100" xml:space="preserve">
<g>
	<path d="M61.695,53.157c6.174-5.289,8.587-10.417,8.587-18.159c0-5.468-1.986-10.232-5.587-13.411
		c-4.336-3.921-10.42-5.67-19.732-5.67l-16.004,0.052c-0.849,0.002-1.54,0.694-1.54,1.545v65.023c0,0.853,0.693,1.546,1.544,1.546
		h8.338c0.852,0,1.543-0.693,1.543-1.546V56.096h12.351l9.766,26.968c0.22,0.609,0.804,1.02,1.451,1.02h8.626
		c0.506,0,0.979-0.247,1.27-0.667c0.286-0.413,0.353-0.942,0.177-1.42L61.695,53.157z M58.855,35.959
		c0,6.513-5.113,10.724-13.024,10.724h-6.987V25.434l6.694-0.009C54.375,25.524,58.855,29.068,58.855,35.959z"/>
</g>
</svg>
