<?xml version="1.0" encoding="utf-8"?>
<!-- Generator: Adobe Illustrator 16.0.0, SVG Export Plug-In . SVG Version: 6.00 Build 0)  -->
<!DOCTYPE svg PUBLIC "-//W3C//DTD SVG 1.1//EN" "http://www.w3.org/Graphics/SVG/1.1/DTD/svg11.dtd">
<svg version="1.1" id="Layer_2" xmlns="http://www.w3.org/2000/svg" xmlns:xlink="http://www.w3.org/1999/xlink" x="0px" y="0px"
	 width="100px" height="100px" viewBox="0 0 100 100" enable-background="new 0 0 100 100" xml:space="preserve">
<path d="M58.305,39.402h7.381c1.4,0,2.537-1.139,2.537-2.539c0-1.402-1.137-2.537-2.537-2.537h-7.43
	c-0.479-3.353-1.941-6.252-4.268-8.303c-3.484-3.152-8.414-4.561-15.984-4.561l-13.262,0.045c-0.408,0-0.736,0.332-0.736,0.735
	v12.083H15.57c-1.402,0-2.537,1.135-2.537,2.537c0,1.4,1.135,2.539,2.537,2.539h8.436v36.726c0,0.407,0.328,0.738,0.738,0.738h6.908
	c0.408,0,0.736-0.331,0.736-0.738V53.675h11.158l8.221,22.703c0.105,0.296,0.381,0.488,0.693,0.488h7.146
	c0.244,0,0.469-0.118,0.609-0.316c0.135-0.198,0.168-0.453,0.084-0.679l-9.072-24.256C55.707,47.856,57.789,44.328,58.305,39.402z
	 M32.389,28.265l6.09-0.004c4.432,0.05,9.557,1.233,11.102,6.065H32.389V28.265z M38.721,46.957h-6.332v-7.555h17.49
	C49.004,44.048,44.822,46.957,38.721,46.957z M86.967,66.893c0,7.072-5.594,11.645-14.254,11.645c-3.877,0-7.68-0.93-10.434-2.55
	l-0.523-0.311c-0.154-0.089-0.223-0.271-0.168-0.441l2.092-6.368c0.037-0.11,0.125-0.199,0.234-0.24
	c0.109-0.037,0.234-0.022,0.33,0.043l0.824,0.537c1.791,1.173,4.895,2.353,7.789,2.353c3.559,0,5.684-1.526,5.684-4.087
	c0-2.434-1.461-3.792-5.785-5.39c-8.279-2.954-10.02-7.607-10.02-10.995c0-6.728,5.445-11.426,13.24-11.426
	c3.293,0,6.736,0.871,9.203,2.332l0.529,0.313c0.154,0.093,0.223,0.278,0.164,0.449l-2.105,6.124
	c-0.037,0.108-0.123,0.195-0.23,0.232c-0.109,0.039-0.23,0.024-0.328-0.037l-0.807-0.509c-0.883-0.56-3.289-1.855-6.572-1.855
	c-2.834,0-4.74,1.468-4.74,3.65c0,2.037,1.334,3.134,5.941,4.889C83.902,57.867,86.967,61.458,86.967,66.893z"/>
</svg>
