<?xml version="1.0" encoding="utf-8"?>
<!-- Generator: Adobe Illustrator 16.0.0, SVG Export Plug-In . SVG Version: 6.00 Build 0)  -->
<!DOCTYPE svg PUBLIC "-//W3C//DTD SVG 1.1//EN" "http://www.w3.org/Graphics/SVG/1.1/DTD/svg11.dtd">
<svg version="1.1" id="Layer_2" xmlns="http://www.w3.org/2000/svg" xmlns:xlink="http://www.w3.org/1999/xlink" x="0px" y="0px"
	 width="100px" height="100px" viewBox="0 0 100 100" enable-background="new 0 0 100 100" xml:space="preserve">
<path d="M52.967,80.51c0.352,0.387,0.432,0.938,0.207,1.404c-0.219,0.441-0.68,0.725-1.174,0.725h-7.188
	c-0.354,0-0.697-0.145-0.941-0.397L28.014,65.724l-0.529,0.009v15.63c0,0.704-0.582,1.276-1.299,1.276h-6.07
	c-0.717,0-1.299-0.572-1.299-1.276V18.638c0-0.704,0.582-1.276,1.299-1.276h6.07c0.717,0,1.299,0.572,1.299,1.276v35.991
	l14.439-18.328c0.242-0.309,0.625-0.494,1.025-0.494h7.537c0.484,0,0.926,0.264,1.152,0.688c0.236,0.441,0.186,0.982-0.133,1.379
	L34.02,59.746L52.967,80.51z M80.531,35.71c-8.676,0-12.932,3.882-14.664,6.122V36.51c0-0.359-0.293-0.65-0.65-0.65H58.08
	c-0.359,0-0.65,0.291-0.65,0.65l-0.008,45.478c0,0.173,0.072,0.342,0.191,0.458c0.119,0.123,0.287,0.193,0.461,0.193h8.176
	c0.359,0,0.652-0.292,0.652-0.651V57.745c0-1.368,0.186-2.657,0.365-3.735c1.098-6.052,5.004-9.746,10.443-9.881h2.82
	c0.174,0,0.342-0.07,0.459-0.19c0.125-0.123,0.193-0.287,0.193-0.462v-7.115C81.184,36.002,80.891,35.71,80.531,35.71z"/>
</svg>
