<?xml version="1.0" encoding="utf-8"?>
<!-- Generator: Adobe Illustrator 16.0.0, SVG Export Plug-In . SVG Version: 6.00 Build 0)  -->
<!DOCTYPE svg PUBLIC "-//W3C//DTD SVG 1.1//EN" "http://www.w3.org/Graphics/SVG/1.1/DTD/svg11.dtd">
<svg version="1.1" id="Layer_2" xmlns="http://www.w3.org/2000/svg" xmlns:xlink="http://www.w3.org/1999/xlink" x="0px" y="0px"
	 width="100px" height="100px" viewBox="0 0 100 100" enable-background="new 0 0 100 100" xml:space="preserve">
<g>
	<path d="M33.586,32.041c-0.77-0.4-3.695-1.711-9.045-1.711c-11.896,0-19.891,8.035-19.891,19.998
		c0,11.75,7.379,19.342,18.795,19.342c4.797,0,8.402-0.98,10.029-1.82c0.252-0.131,0.383-0.418,0.316-0.693l-0.932-3.832
		c-0.045-0.182-0.166-0.332-0.336-0.41c-0.17-0.08-0.363-0.08-0.529,0.002c-1.869,0.908-4.766,1.473-7.563,1.473
		c-8.461,0-13.512-5.318-13.512-14.225c0-9.146,5.152-14.607,13.785-14.607c3.637,0,6.021,0.92,7.117,1.469
		c0.162,0.082,0.352,0.086,0.516,0.016c0.166-0.07,0.293-0.211,0.348-0.385l1.203-3.887C33.977,32.486,33.85,32.18,33.586,32.041z"
		/>
	<path d="M66.646,30.932h-4.818c-0.34,0-0.615,0.275-0.615,0.615v14.826H44.592V31.547c0-0.34-0.275-0.615-0.615-0.615h-4.818
		c-0.34,0-0.615,0.275-0.615,0.615v36.906c0,0.34,0.275,0.615,0.615,0.615h4.818c0.34,0,0.615-0.275,0.615-0.615V51.766h16.621
		v16.688c0,0.34,0.275,0.615,0.615,0.615h4.818c0.338,0,0.615-0.275,0.615-0.615V31.547C67.262,31.207,66.984,30.932,66.646,30.932z
		"/>
	<path d="M94.734,30.932H74.857c-0.34,0-0.615,0.275-0.615,0.615v36.906c0,0.34,0.275,0.615,0.615,0.615h4.818
		c0.34,0,0.615-0.275,0.615-0.615V52.367h13.293c0.34,0,0.615-0.275,0.615-0.615v-3.941c0-0.342-0.275-0.617-0.615-0.617H80.291
		V36.158h14.443c0.34,0,0.615-0.273,0.615-0.613v-3.998C95.35,31.207,95.074,30.932,94.734,30.932z"/>
</g>
</svg>
