<?xml version="1.0" encoding="utf-8"?>
<!-- Generator: Adobe Illustrator 16.0.0, SVG Export Plug-In . SVG Version: 6.00 Build 0)  -->
<!DOCTYPE svg PUBLIC "-//W3C//DTD SVG 1.1//EN" "http://www.w3.org/Graphics/SVG/1.1/DTD/svg11.dtd">
<svg version="1.1" id="Layer_2" xmlns="http://www.w3.org/2000/svg" xmlns:xlink="http://www.w3.org/1999/xlink" x="0px" y="0px"
	 width="100px" height="100px" viewBox="0 0 100 100" enable-background="new 0 0 100 100" xml:space="preserve">
<path d="M20.688,19.67c0-2.209,1.791-4,4-4h51c2.209,0,4,1.791,4,4s-1.791,4-4,4h-51C22.479,23.67,20.688,21.879,20.688,19.67z
	 M80.732,70.811c-1.51-1.611-4.042-1.693-5.654-0.184c-5.406,5.064-7.842,5.635-8.458,5.689c-0.228-0.418-0.433-1.387-0.433-2.146
	v-35.5h9.5c2.209,0,4-1.791,4-4s-1.791-4-4-4h-51c-2.209,0-4,1.791-4,4s1.791,4,4,4h12.577c1.64,28.809-15.288,33.908-16.098,34.133
	c-2.123,0.561-3.399,2.729-2.854,4.859c0.462,1.807,2.088,3.01,3.872,3.01c0.328,0,0.662-0.041,0.994-0.127
	c0.994-0.254,23.913-6.561,22.093-41.875h12.916l0,35.43c-0.013,0.74,0.021,7.301,5.123,9.564c1.039,0.461,2.109,0.666,3.193,0.666
	c4.981,0,10.252-4.313,14.043-7.865C82.16,74.953,82.242,72.422,80.732,70.811z"/>
</svg>
