<?xml version="1.0" encoding="utf-8"?>
<!-- Generator: Adobe Illustrator 16.0.0, SVG Export Plug-In . SVG Version: 6.00 Build 0)  -->
<!DOCTYPE svg PUBLIC "-//W3C//DTD SVG 1.1//EN" "http://www.w3.org/Graphics/SVG/1.1/DTD/svg11.dtd">
<svg version="1.1" id="Layer_2" xmlns="http://www.w3.org/2000/svg" xmlns:xlink="http://www.w3.org/1999/xlink" x="0px" y="0px"
	 width="100px" height="100px" viewBox="0 0 100 100" enable-background="new 0 0 100 100" xml:space="preserve">
<path d="M63.055,47.865l-3.17-0.975l3.019-1.434c6.166-2.859,9.163-7.221,9.163-13.334c0-1.762-0.292-3.455-0.868-5.031
	c-0.575-1.574-1.424-3.035-2.523-4.342c-1.103-1.309-2.388-2.406-3.818-3.258c-1.692-1.025-3.631-1.727-5.771-2.09
	c-2.236-0.375-4.923-0.566-7.985-0.566H48.7V6.955c0-1.725-1.397-3.121-3.121-3.121s-3.121,1.396-3.121,3.121v9.881H31.641
	c-2.484,0-4.261,0.516-5.28,1.535s-1.536,2.826-1.536,5.371v49.654c0,2.496,0.509,4.297,1.512,5.348
	c0.986,1.035,2.771,1.559,5.303,1.559h10.817v12.742c0,1.725,1.397,3.121,3.121,3.121S48.7,94.77,48.7,93.045V80.303h1.185
	c3.412,0,6.432-0.17,8.978-0.508c2.488-0.326,4.711-0.896,6.609-1.689c2.939-1.293,5.325-3.334,7.068-6.059
	c1.749-2.734,2.635-5.857,2.635-9.285C75.175,55.336,71.21,50.463,63.055,47.865z M57.232,26.059c2.861,1.32,4.312,3.953,4.312,7.82
	c0,1.791-0.44,3.439-1.309,4.898c-1.091,2.012-2.733,3.43-4.856,4.166c-1.688,0.586-3.886,0.912-6.679,0.996v-19.57
	C52.356,24.555,55.174,25.107,57.232,26.059z M33.675,24.293h8.783v19.67h-8.783V24.293z M33.675,72.846V50.969h8.783v21.877H33.675
	z M49.344,72.846H48.7V50.969h0.193c4.955,0,8.618,0.805,11.198,2.459c2.728,1.748,4.111,4.555,4.111,8.344
	C64.202,66.824,61.625,72.846,49.344,72.846z"/>
</svg>
