<?xml version="1.0" encoding="utf-8"?>
<!-- Generator: Adobe Illustrator 16.0.0, SVG Export Plug-In . SVG Version: 6.00 Build 0)  -->
<!DOCTYPE svg PUBLIC "-//W3C//DTD SVG 1.1//EN" "http://www.w3.org/Graphics/SVG/1.1/DTD/svg11.dtd">
<svg version="1.1" id="Layer_2" xmlns="http://www.w3.org/2000/svg" xmlns:xlink="http://www.w3.org/1999/xlink" x="0px" y="0px"
	 width="100px" height="100px" viewBox="0 0 100 100" enable-background="new 0 0 100 100" xml:space="preserve">
<path d="M92.724,53.544c-0.438-1.216-1.107-2.249-1.992-3.073c-0.896-0.836-2.038-1.561-3.395-2.152
	c-1.207-0.527-2.627-1.051-4.211-1.557l0.101-11.688c2.66,0.672,4.103,2.434,4.29,5.273h0.007l0.017,0.316
	c0.037,1.323,1.104,2.364,2.429,2.378c1.415,0.012,2.503-1.029,2.529-2.425l-0.046-0.444c-0.306-5.806-3.322-9.045-9.185-9.863
	l0.055-6.306c0.011-1.314-1.05-2.396-2.367-2.405c-1.317-0.012-2.397,1.05-2.409,2.365l-0.054,6.24
	c-1.048,0.117-2.042,0.335-2.951,0.681c-1.417,0.53-2.644,1.278-3.646,2.22c-1,0.939-1.777,2.068-2.313,3.351
	c-0.537,1.29-0.816,2.74-0.83,4.307c-0.015,1.738,0.174,3.202,0.561,4.35c0.381,1.133,0.993,2.106,1.821,2.896
	c0.838,0.798,1.918,1.491,3.208,2.06c1.117,0.49,2.456,0.979,3.965,1.452l-0.114,13.289c-3.415-0.772-5.199-3.057-5.309-6.822
	l0.001-0.323c0.012-1.347-1.082-2.45-2.438-2.462c-1.439-0.014-2.502,1.009-2.529,2.424c0.292,7.239,3.648,11.202,10.233,12.081
	l-0.055,6.291c-0.011,1.315,1.05,2.396,2.367,2.407c1.316,0.012,2.396-1.051,2.408-2.366l0.054-6.259
	c1.139-0.136,2.206-0.385,3.175-0.778c1.513-0.612,2.822-1.459,3.893-2.517c1.069-1.057,1.902-2.313,2.479-3.738
	c0.577-1.431,0.875-2.998,0.89-4.66C93.38,56.299,93.165,54.771,92.724,53.544z M78.364,45.232c-0.25-0.085-0.49-0.168-0.708-0.247
	c-1.193-0.424-2.057-0.841-2.64-1.283c-0.608-0.459-0.987-0.974-1.125-1.53c-0.126-0.506-0.187-1.167-0.179-1.967
	c0.007-0.918,0.2-1.736,0.573-2.438c0.374-0.697,0.89-1.276,1.534-1.723c0.633-0.437,1.375-0.766,2.203-0.979
	c0.141-0.035,0.287-0.065,0.431-0.098L78.364,45.232z M86.535,63.402c-0.865,0.811-2.063,1.327-3.565,1.558l0.102-11.836
	c0.241,0.087,0.484,0.173,0.699,0.254c1.217,0.451,2.177,0.918,2.852,1.382c0.707,0.487,1.191,1.052,1.438,1.675
	c0.239,0.602,0.356,1.345,0.349,2.204C88.391,60.647,87.76,62.25,86.535,63.402z M35.835,31.074c0.507,0.46,0.743,1.031,0.743,1.805
	c0,0.763-0.237,1.328-0.747,1.779c-0.534,0.469-1.414,0.708-2.613,0.708h-8.655v31.956c0,1.499-0.307,2.592-0.911,3.246
	c-0.592,0.645-1.345,0.953-2.304,0.953c-0.979,0-1.746-0.313-2.347-0.966c-0.614-0.665-0.926-1.755-0.926-3.233V35.366H9.936
	c-1.194,0-2.061-0.235-2.573-0.699c-0.497-0.45-0.728-1.019-0.728-1.788c0-0.8,0.238-1.377,0.75-1.814
	c0.544-0.468,1.404-0.707,2.551-0.707h23.283C34.432,30.357,35.313,30.599,35.835,31.074z M67.178,31.074
	c0.507,0.46,0.743,1.031,0.743,1.805c0,0.763-0.237,1.328-0.747,1.779c-0.534,0.469-1.414,0.708-2.613,0.708h-8.655v31.956
	c0,1.499-0.307,2.592-0.911,3.246c-0.592,0.645-1.345,0.953-2.304,0.953c-0.979,0-1.746-0.313-2.347-0.966
	c-0.614-0.665-0.926-1.755-0.926-3.233V35.366h-8.141c-1.194,0-2.061-0.235-2.573-0.699c-0.497-0.45-0.728-1.019-0.728-1.788
	c0-0.8,0.238-1.377,0.75-1.814c0.544-0.468,1.404-0.707,2.551-0.707h23.283C65.775,30.357,66.656,30.599,67.178,31.074z"/>
</svg>
