<?xml version="1.0" encoding="utf-8"?>
<!-- Generator: Adobe Illustrator 16.0.0, SVG Export Plug-In . SVG Version: 6.00 Build 0)  -->
<!DOCTYPE svg PUBLIC "-//W3C//DTD SVG 1.1//EN" "http://www.w3.org/Graphics/SVG/1.1/DTD/svg11.dtd">
<svg version="1.1" id="Layer_3" xmlns="http://www.w3.org/2000/svg" xmlns:xlink="http://www.w3.org/1999/xlink" x="0px" y="0px"
	 width="100px" height="100px" viewBox="0 0 100 100" enable-background="new 0 0 100 100" xml:space="preserve">
<path d="M78.28,76.73c-0.455-2.031-2.429-3.447-4.509-3.227v0.006l-0.485,0.107c-0.263,0.041-0.478,0.104-0.673,0.197l-0.205,0.078
	c-3.227,1.635-6.632,2.475-10.07,2.475c-0.623,0-1.795-0.164-3.479-0.49c-1.683-0.289-3.515-0.613-5.474-0.967
	c-1.957-0.354-3.879-0.691-5.763-1.016c-1.901-0.326-3.371-0.484-4.495-0.484c-0.791,0-1.596,0.037-2.389,0.113l-3.386,0.32
	l2.315-2.49c0.232-0.248,0.452-0.496,0.661-0.742c1.038-1.211,1.897-2.492,2.556-3.809c0.387-0.775,0.705-1.602,0.967-2.463h13.006
	c1.822,0,3.299-1.473,3.299-3.287s-1.477-3.287-3.299-3.287H44.746c0.002-0.16,0.01-0.316,0.01-0.48
	c0-0.865-0.103-1.727-0.303-2.557l-0.387-1.598l12.932-0.025c0.23-0.02,0.428-0.072,0.619-0.16c1.432-0.469,2.359-1.734,2.359-3.174
	c0-1.604-1.146-2.977-2.725-3.266c-0.115-0.025-0.22-0.039-0.323-0.043l-0.013,0.002c-0.042-0.002-0.072-0.002-0.1-0.004
	l-0.169,0.01H42.467l-0.283-0.908c-1.486-4.775-2.241-8.809-2.241-11.99c0-1.557,0.291-3.057,0.864-4.457
	c0.572-1.396,1.371-2.643,2.373-3.705c0.997-1.057,2.229-1.9,3.659-2.506c1.429-0.602,3.046-0.908,4.812-0.908
	c7.178,0,10.975,3.41,11.607,10.428c0.011,0.039,0.02,0.078,0.027,0.119l0.025,0.316l-0.01,0.066
	c0.008,0.145,0.049,0.363,0.133,0.623c0.336,2.232,2.141,3.797,4.311,3.797c2.244,0,4.098-1.707,4.33-3.893H72.07l0.027-0.6
	c0.002-0.008-0.008-0.08-0.012-0.162l-0.002-0.094c-0.252-2.787-0.926-5.297-1.997-7.441c-1.069-2.135-2.484-3.951-4.204-5.393
	c-1.728-1.447-3.801-2.559-6.165-3.303c-2.368-0.746-5.009-1.123-7.848-1.123c-3.071,0-5.911,0.443-8.438,1.322
	c-2.533,0.877-4.733,2.145-6.543,3.766c-1.813,1.623-3.242,3.645-4.249,6.01c-1.009,2.369-1.521,5.051-1.521,7.975
	c0,1.379,0.186,3.076,0.552,5.047c0.288,1.561,0.729,3.361,1.308,5.357l0.48,1.658l-7.373-0.016
	c-1.688,0.16-3.014,1.586-3.014,3.316c0,1.699,1.282,3.115,2.984,3.293l0.317,0.057l9,0.008l0.222,1.018
	c0.26,1.191,0.421,2.404,0.483,3.617h-9.515c-1.823,0-3.298,1.473-3.298,3.287s1.475,3.287,3.298,3.287h9.055
	c-0.056,0.283-0.106,0.572-0.172,0.84c-0.44,1.803-1.082,3.418-1.904,4.805c-0.822,1.381-1.844,2.602-3.036,3.633
	c-1.189,1.029-2.565,1.953-4.094,2.746c-2.46,0.816-5.208,2.297-4.743,4.891c0.381,2.119,2.397,3.66,4.55,3.375
	c0.064-0.012,0.067-0.012,0.122-0.039c6.013-2.742,11.471-4.125,16.256-4.125c0.619,0,1.482,0.105,2.568,0.311
	c1.089,0.205,2.294,0.459,3.58,0.752c1.296,0.295,2.635,0.617,4.02,0.971c1.383,0.354,2.716,0.678,3.995,0.971
	c1.281,0.295,2.451,0.553,3.511,0.773c1.065,0.223,1.885,0.33,2.508,0.33h0.189c4.832,0,9.962-2.02,10.178-2.105
	c0.475-0.207,1.924-0.744,1.924-0.744C77.369,81.201,78.782,78.968,78.28,76.73z"/>
</svg>
