<?xml version="1.0" encoding="utf-8"?>
<!-- Generator: Adobe Illustrator 16.0.0, SVG Export Plug-In . SVG Version: 6.00 Build 0)  -->
<!DOCTYPE svg PUBLIC "-//W3C//DTD SVG 1.1//EN" "http://www.w3.org/Graphics/SVG/1.1/DTD/svg11.dtd">
<svg version="1.1" id="Layer_2" xmlns="http://www.w3.org/2000/svg" xmlns:xlink="http://www.w3.org/1999/xlink" x="0px" y="0px"
	 width="100px" height="100px" viewBox="0 0 100 100" enable-background="new 0 0 100 100" xml:space="preserve">
<path d="M73.437,43.938c-0.54-2.225-2.316-2.463-3.055-2.463c-1.233,0-2.449,0.568-3.17,1.486c-0.634,0.805-0.827,1.816-0.558,2.922
	c1.53,6.313-1.004,13.064-7.534,20.074c-3.684,3.955-7.912,7.244-12.227,9.514l-1.723,0.904V52.324l14.24-12.895
	c1.233-1.117,1.327-3.021,0.211-4.256c-1.119-1.234-3.024-1.328-4.258-0.211l-10.193,9.229v-7.088l13.598-12.311
	c1.233-1.117,1.327-3.023,0.211-4.258c-1.117-1.232-3.023-1.328-4.258-0.211l-9.551,8.648V18.469c0-2.33-1.771-3.371-3.525-3.371
	c-1.755,0-3.526,1.041-3.526,3.371v16.889L26.906,45.51c-1.233,1.119-1.328,3.023-0.211,4.258c0.596,0.656,1.414,0.99,2.235,0.99
	c0.721,0,1.445-0.256,2.021-0.779l7.167-6.49v7.088L27.55,60.148c-1.234,1.117-1.329,3.021-0.213,4.256
	c0.597,0.658,1.415,0.992,2.236,0.992c0.721,0,1.445-0.258,2.021-0.781l6.524-5.906v22.572c0,1.668,0.889,2.502,1.635,2.904
	l0.156,0.102c0.53,0.408,1.136,0.615,1.8,0.615c0,0,0,0,0.002,0c0.333,0,0.688-0.053,1.053-0.158
	c7.489-2.168,15.239-7.254,21.822-14.318C69.112,65.568,76.281,55.668,73.437,43.938z"/>
</svg>
