<?xml version="1.0" encoding="utf-8"?>
<!-- Generator: Adobe Illustrator 16.0.0, SVG Export Plug-In . SVG Version: 6.00 Build 0)  -->
<!DOCTYPE svg PUBLIC "-//W3C//DTD SVG 1.1//EN" "http://www.w3.org/Graphics/SVG/1.1/DTD/svg11.dtd">
<svg version="1.1" id="Layer_2" xmlns="http://www.w3.org/2000/svg" xmlns:xlink="http://www.w3.org/1999/xlink" x="0px" y="0px"
	 width="100px" height="100px" viewBox="0 0 100 100" enable-background="new 0 0 100 100" xml:space="preserve">
<path d="M71.5,54.24H50.228c2.141-1.648,4.359-3.166,6.269-4.629c0.473-0.362,0.934-0.734,1.39-1.109H71.5
	c1.933,0,3.5-1.567,3.5-3.5s-1.567-3.5-3.5-3.5h-7.142c0.973-1.491,1.804-3.091,2.415-4.856c1.575-4.551,0.79-9.792-1.843-13.775
	c-6.64-10.046-20.281-9.303-29.78-4.313c-3.997,2.1-0.459,8.142,3.533,6.045c4.715-2.477,9.95-3.595,15.106-1.9
	c3.528,1.16,6.457,4.362,6.763,8.126c0.345,4.267-2.24,7.846-5.221,10.675H28.5c-1.933,0-3.5,1.567-3.5,3.5s1.567,3.5,3.5,3.5
	h17.838c-1.629,1.203-3.229,2.442-4.727,3.817c-0.656,0.603-1.271,1.247-1.85,1.921H28.5c-1.933,0-3.5,1.567-3.5,3.5
	s1.567,3.5,3.5,3.5h7.178c-2.274,6.318-1.558,13.49,3.561,18.77c7.08,7.305,19.225,5.514,27.445,1.509
	c4.058-1.978,0.508-8.013-3.533-6.045c-6.364,3.101-18.027,4.764-21.048-3.754c-1.452-4.096-0.69-7.515,1.188-10.479H71.5
	c1.933,0,3.5-1.567,3.5-3.5S73.433,54.24,71.5,54.24z"/>
</svg>
