<?xml version="1.0" encoding="utf-8"?>
<!-- Generator: Adobe Illustrator 16.0.0, SVG Export Plug-In . SVG Version: 6.00 Build 0)  -->
<!DOCTYPE svg PUBLIC "-//W3C//DTD SVG 1.1//EN" "http://www.w3.org/Graphics/SVG/1.1/DTD/svg11.dtd">
<svg version="1.1" id="Layer_3" xmlns="http://www.w3.org/2000/svg" xmlns:xlink="http://www.w3.org/1999/xlink" x="0px" y="0px"
	 width="100px" height="100px" viewBox="0 0 100 100" enable-background="new 0 0 100 100" xml:space="preserve">
<path d="M38.572,50.536c-1.26-1.155-2.861-2.151-4.762-2.961c-1.689-0.722-3.678-1.433-5.893-2.12V29.146
	c3.719,0.906,5.752,3.348,6.048,7.306h0.01l0.026,0.443c0.068,1.843,1.568,3.286,3.418,3.286c1.974,0,3.479-1.469,3.499-3.414
	l-0.07-0.617c-0.497-8.096-4.743-12.581-12.931-13.648v-8.796c0-1.837-1.494-3.331-3.331-3.331s-3.331,1.494-3.331,3.331v8.705
	c-1.463,0.177-2.844,0.493-4.108,0.981c-1.971,0.76-3.673,1.818-5.06,3.145c-1.383,1.323-2.455,2.905-3.186,4.703
	c-0.733,1.804-1.105,3.827-1.105,6.016c0,2.427,0.281,4.467,0.834,6.063c0.545,1.574,1.41,2.926,2.576,4.014
	c1.178,1.104,2.692,2.059,4.498,2.836c1.565,0.674,3.439,1.338,5.551,1.98v18.535c-4.772-1.033-7.29-4.197-7.488-9.451v-0.449
	c0-1.879-1.539-3.408-3.432-3.408c-2.006,0-3.479,1.436-3.498,3.414c0.494,10.096,5.225,15.582,14.418,16.73v8.775
	c0,1.836,1.494,3.33,3.331,3.33s3.331-1.494,3.331-3.33v-8.73c1.586-0.203,3.074-0.564,4.42-1.124c2.104-0.873,3.92-2.069,5.4-3.558
	c1.479-1.486,2.627-3.252,3.413-5.248c0.786-1.998,1.185-4.189,1.185-6.51c0-2.488-0.318-4.615-0.949-6.324
	C40.763,53.11,39.816,51.676,38.572,50.536z M21.256,43.379c-0.351-0.117-0.686-0.23-0.99-0.336
	c-1.671-0.577-2.881-1.152-3.697-1.76c-0.855-0.633-1.39-1.346-1.59-2.119c-0.182-0.705-0.273-1.628-0.273-2.743
	c0-1.28,0.26-2.426,0.771-3.405c0.513-0.979,1.226-1.794,2.12-2.422c0.878-0.617,1.908-1.087,3.061-1.394
	c0.197-0.054,0.398-0.095,0.6-0.14V43.379z M32.871,68.627c-1.195,1.143-2.861,1.879-4.953,2.217V54.33
	c0.338,0.118,0.676,0.236,0.979,0.346c1.704,0.616,3.047,1.254,3.995,1.895c0.991,0.67,1.673,1.451,2.025,2.318
	c0.34,0.838,0.513,1.871,0.513,3.07C35.43,64.762,34.568,67.006,32.871,68.627z M93.162,29.061V57.56
	c0,4.487-0.438,8.267-1.301,11.231c-0.832,2.854-2.43,5.4-4.742,7.564c-2.004,1.854-4.367,3.5-7.023,4.352
	c-2.715,0.87-4.188,1.312-7.857,1.312c-4.403,0-6.69-0.478-9.841-1.42c-3.062-0.915-5.581-2.617-7.491-4.515
	c-1.907-1.894-3.332-4.372-4.233-7.365c-0.929-3.081-1.399-6.836-1.399-11.159V29.061c0-2.076,0.438-3.615,1.298-4.572
	c0.837-0.929,1.923-1.381,3.322-1.381c1.48,0,2.606,0.452,3.442,1.381c0.861,0.957,1.298,2.496,1.298,4.572v29.146
	c0,3.443,0.397,6.379,1.179,8.725c0.553,1.654,2.623,4.66,4.477,5.864c2.094,1.363,3.459,1.804,7.1,1.804
	c5.097,0,7.029-1.18,9.225-4c2.116-2.719,3.189-6.807,3.189-12.15V29.061c0-2.104,0.43-3.648,1.277-4.592
	c0.823-0.916,1.916-1.361,3.342-1.361c1.436,0,2.553,0.451,3.418,1.379C92.718,25.428,93.162,26.967,93.162,29.061z"/>
</svg>
