<?xml version="1.0" encoding="utf-8"?>
<!-- Generator: Adobe Illustrator 16.0.0, SVG Export Plug-In . SVG Version: 6.00 Build 0)  -->
<!DOCTYPE svg PUBLIC "-//W3C//DTD SVG 1.1//EN" "http://www.w3.org/Graphics/SVG/1.1/DTD/svg11.dtd">
<svg version="1.1" id="Layer_3" xmlns="http://www.w3.org/2000/svg" xmlns:xlink="http://www.w3.org/1999/xlink" x="0px" y="0px"
	 width="100px" height="100px" viewBox="0 0 100 100" enable-background="new 0 0 100 100" xml:space="preserve">
<g>
	<path d="M89.391,48.338l-0.616-0.274l0.601-0.306c3.051-1.549,6.654-4.581,6.496-10.227C95.557,26.23,84.596,24.707,73.916,24.707
		l-14.902,0.002c-0.633,0-1.148,0.515-1.148,1.147v47.999c0,0.309,0.12,0.598,0.34,0.816c0.216,0.215,0.504,0.333,0.807,0.333
		l12.323,0.036c0.642,0.019,1.261,0.028,1.888,0.028c8.81,0,15.193-1.936,18.976-5.753c2.399-2.422,3.599-5.588,3.563-9.408
		C95.705,54.008,93.621,50.224,89.391,48.338z M78.627,44.139l-0.422,0.033c-0.219,0.02-0.333,0.017-0.542,0.008l-9.628-0.001
		v-11.95l9.997,0.02c3.319,0,6.868,1.512,6.868,5.766c0.033,1.877-0.458,3.348-1.462,4.371
		C81.969,43.881,80.193,44.018,78.627,44.139z M84.9,60.227c0.033,1.877-0.458,3.348-1.463,4.371
		c-1.606,1.637-4.166,1.813-5.191,1.813c-0.218,0-0.367-0.007-0.551-0.016l-9.66-0.002V54.415l9.779,0.048l0.149-0.002
		C81.316,54.461,84.9,55.973,84.9,60.227z"/>
	<path d="M47.644,24.861H14.843c-0.635,0-1.151,0.518-1.151,1.152v19.037c0,11.003-0.673,16.733-4.521,19.561
		c-0.877,0.733-2.445,1.369-4.094,1.66c-0.607,0.106-1.021,0.67-0.942,1.283l0.878,6.738c0.076,0.57,0.567,1,1.143,1
		c4.262,0,7.238-0.922,9.916-3.054c6.684-4.355,8.026-13.633,8.026-27.188V33.902h13.902v40.236c0,0.635,0.517,1.15,1.151,1.15
		h8.493c0.636,0,1.151-0.516,1.151-1.15V26.014C48.795,25.379,48.279,24.861,47.644,24.861z"/>
</g>
</svg>
