<?xml version="1.0" encoding="utf-8"?>
<!-- Generator: Adobe Illustrator 16.0.0, SVG Export Plug-In . SVG Version: 6.00 Build 0)  -->
<!DOCTYPE svg PUBLIC "-//W3C//DTD SVG 1.1//EN" "http://www.w3.org/Graphics/SVG/1.1/DTD/svg11.dtd">
<svg version="1.1" id="Layer_3" xmlns="http://www.w3.org/2000/svg" xmlns:xlink="http://www.w3.org/1999/xlink" x="0px" y="0px"
	 width="100px" height="100px" viewBox="0 0 100 100" enable-background="new 0 0 100 100" xml:space="preserve">
<path d="M85.479,64.785c0,7.738-6.123,12.742-15.598,12.742c-4.242,0-8.406-1.018-11.418-2.789l-0.574-0.34
	c-0.168-0.098-0.244-0.297-0.182-0.484l2.287-6.969c0.041-0.119,0.137-0.217,0.258-0.262c0.119-0.041,0.254-0.025,0.361,0.047
	l0.9,0.588c1.961,1.283,5.355,2.574,8.525,2.574c3.895,0,6.219-1.67,6.219-4.473c0-2.662-1.598-4.15-6.332-5.898
	c-9.059-3.232-10.963-8.324-10.963-12.031c0-7.361,5.957-12.504,14.486-12.504c3.605,0,7.373,0.953,10.074,2.553l0.576,0.342
	c0.17,0.102,0.244,0.305,0.18,0.492l-2.303,6.701c-0.041,0.119-0.133,0.215-0.254,0.256c-0.119,0.041-0.25,0.025-0.357-0.041
	l-0.883-0.557c-0.965-0.613-3.6-2.031-7.191-2.031c-3.104,0-5.188,1.605-5.188,3.994c0,2.23,1.459,3.43,6.502,5.35
	C82.125,54.908,85.479,58.838,85.479,64.785z M48.867,47.186l-1.604,0.811l1.643,0.736c4.512,2.01,6.734,6.074,6.793,12.426
	c0.039,4.115-1.246,7.518-3.82,10.115c-4.111,4.15-11.098,6.254-20.764,6.254c-0.691,0-1.378-0.012-2.111-0.031l-13.707-0.039
	c-0.205,0-0.397-0.078-0.541-0.221c-0.151-0.152-0.234-0.35-0.234-0.559V23.254c0-0.428,0.35-0.777,0.779-0.777l16.586-0.004
	c12.232,0,23.599,1.672,23.937,13.791C55.991,42.285,52.133,45.527,48.867,47.186z M44.612,61.516c0-5.113-4.429-6.924-8.22-6.924
	l-11.552-0.057v14.336l11.281,0.004c0.202,0.01,0.362,0.016,0.584,0.016c1.204,0,4.212-0.211,6.136-2.17
	C44.057,65.484,44.652,63.732,44.612,61.516z M44.612,36.793c0-5.113-4.386-6.926-8.143-6.926l-11.629-0.023v14.303l11.171-0.002
	c0.008,0,0.015,0,0.022,0.002c0.257,0.01,0.399,0.014,0.665-0.008l0.47-0.037C39,43.961,41.074,43.801,42.842,42
	C44.057,40.762,44.652,39.01,44.612,36.793z"/>
</svg>
