<?xml version="1.0" encoding="utf-8"?>
<!-- Generator: Adobe Illustrator 16.0.0, SVG Export Plug-In . SVG Version: 6.00 Build 0)  -->
<!DOCTYPE svg PUBLIC "-//W3C//DTD SVG 1.1//EN" "http://www.w3.org/Graphics/SVG/1.1/DTD/svg11.dtd">
<svg version="1.1" id="Layer_3" xmlns="http://www.w3.org/2000/svg" xmlns:xlink="http://www.w3.org/1999/xlink" x="0px" y="0px"
	 width="100px" height="100px" viewBox="0 0 100 100" enable-background="new 0 0 100 100" xml:space="preserve">
<path d="M77.567,17.191H69.31V13.92c0-2.319-0.505-4.073-1.514-5.263c-1.01-1.189-2.447-1.785-4.314-1.785s-3.306,0.648-4.314,1.942
	c-1.01,1.296-1.514,3.208-1.514,5.737v2.639h-7.215c-1.238,0-2.242,1.004-2.242,2.242s1.004,2.242,2.242,2.242h7.215v18.482
	c-2.319-2.529-4.698-3.956-7.138-5.176s-5.437-1.83-8.99-1.83c-6.145,0-11.099,2.154-14.863,6.461
	c-3.766,4.308-5.647,10.316-5.647,18.025c0,3.645,0.474,7.033,1.423,10.166c0.948,3.133,2.342,5.857,4.179,8.176
	c1.837,2.32,4.014,4.104,6.528,5.354c2.515,1.249,5.248,1.874,8.2,1.874c2.229,0,4.284-0.309,6.166-0.926
	c1.883-0.617,3.629-1.52,5.241-2.711c1.61-1.189,3.245-2.732,4.901-4.631v1.221c0,2.259,0.55,3.998,1.649,5.218
	c1.099,1.22,2.491,1.829,4.179,1.829c1.717,0,3.117-0.586,4.201-1.762c1.085-1.174,1.627-2.936,1.627-5.285V21.675h8.258
	c1.238,0,2.242-1.004,2.242-2.242S78.806,17.191,77.567,17.191z M53.578,66.787c-1.069,2.335-2.5,4.066-4.292,5.195
	c-1.792,1.13-3.771,1.695-5.94,1.695c-2.139,0-4.111-0.596-5.918-1.785c-1.808-1.189-3.23-2.959-4.27-5.309
	c-1.039-2.349-1.559-5.195-1.559-8.538c0-3.163,0.489-5.94,1.468-8.335s2.356-4.232,4.134-5.512c1.777-1.28,3.795-1.92,6.054-1.92
	c2.169,0,4.164,0.625,5.986,1.875c1.822,1.249,3.268,3.057,4.337,5.421s1.604,5.188,1.604,8.471
	C55.183,61.54,54.647,64.453,53.578,66.787z M68.076,89.385c0,1.238-1.003,2.242-2.241,2.242H26.374
	c-1.238,0-2.242-1.004-2.242-2.242s1.004-2.242,2.242-2.242h39.461C67.073,87.143,68.076,88.147,68.076,89.385z"/>
</svg>
