<?xml version="1.0" encoding="utf-8"?>
<!-- Generator: Adobe Illustrator 16.0.0, SVG Export Plug-In . SVG Version: 6.00 Build 0)  -->
<!DOCTYPE svg PUBLIC "-//W3C//DTD SVG 1.1//EN" "http://www.w3.org/Graphics/SVG/1.1/DTD/svg11.dtd">
<svg version="1.1" id="Layer_3" xmlns="http://www.w3.org/2000/svg" xmlns:xlink="http://www.w3.org/1999/xlink" x="0px" y="0px"
	 width="100px" height="100px" viewBox="0 0 100 100" enable-background="new 0 0 100 100" xml:space="preserve">
<path d="M78.384,60.507c0,1.636-1.326,2.962-2.963,2.962H55.288v20.803c0,2.57-2.084,4.654-4.654,4.654s-4.654-2.084-4.654-4.654
	V63.469H24.577c-1.635,0-2.961-1.326-2.961-2.962s1.326-2.962,2.961-2.962h21.402v-8.234l-0.168-0.228H24.577
	c-1.635,0-2.961-1.326-2.961-2.962s1.326-2.961,2.961-2.961h16.842L23.132,18.501c-1.531-2.065-1.1-4.979,0.965-6.512
	c2.064-1.529,4.98-1.098,6.512,0.967l19.912,26.851l18.807-26.623c1.482-2.099,4.389-2.6,6.486-1.116
	c2.1,1.483,2.6,4.388,1.117,6.487L59.548,43.16h15.873c1.637,0,2.963,1.325,2.963,2.961s-1.326,2.962-2.963,2.962H55.364
	l-0.076,0.107v8.354h20.133C77.058,57.545,78.384,58.871,78.384,60.507z"/>
</svg>
