<?xml version="1.0" encoding="utf-8"?>
<!-- Generator: Adobe Illustrator 16.0.0, SVG Export Plug-In . SVG Version: 6.00 Build 0)  -->
<!DOCTYPE svg PUBLIC "-//W3C//DTD SVG 1.1//EN" "http://www.w3.org/Graphics/SVG/1.1/DTD/svg11.dtd">
<svg version="1.1" id="Layer_3" xmlns="http://www.w3.org/2000/svg" xmlns:xlink="http://www.w3.org/1999/xlink" x="0px" y="0px"
	 width="100px" height="100px" viewBox="0 0 100 100" enable-background="new 0 0 100 100" xml:space="preserve">
<g>
	<path d="M90.62,53.908c-0.606-1.639-1.525-3.031-2.732-4.138c-1.223-1.121-2.777-2.087-4.621-2.874
		c-1.641-0.7-3.57-1.391-5.72-2.059V29.011c3.608,0.878,5.583,3.248,5.87,7.09h0.01l0.025,0.43c0.066,1.789,1.522,3.189,3.316,3.189
		c1.916,0,3.377-1.426,3.396-3.313l-0.068-0.6c-0.482-7.858-4.604-12.211-12.55-13.248v-8.535c0-1.783-1.45-3.233-3.233-3.233
		c-1.782,0-3.232,1.45-3.232,3.233v8.447c-1.42,0.172-2.761,0.479-3.988,0.953c-1.912,0.738-3.564,1.765-4.91,3.052
		c-1.342,1.284-2.382,2.819-3.092,4.565c-0.711,1.75-1.072,3.715-1.072,5.838c0,2.355,0.273,4.336,0.809,5.885
		c0.529,1.527,1.369,2.838,2.5,3.895c1.145,1.072,2.613,1.998,4.367,2.752c1.519,0.654,3.337,1.299,5.387,1.924v17.989
		c-4.633-1.004-7.076-4.075-7.268-9.174v-0.436c0-1.823-1.494-3.308-3.331-3.308c-1.947,0-3.376,1.394-3.396,3.313
		c0.48,9.8,5.071,15.125,13.994,16.239v8.517c0,1.782,1.45,3.232,3.232,3.232c1.783,0,3.233-1.45,3.233-3.232v-8.475
		c1.54-0.196,2.983-0.547,4.29-1.09c2.041-0.848,3.805-2.01,5.242-3.453c1.435-1.443,2.549-3.156,3.312-5.093
		c0.764-1.94,1.15-4.067,1.15-6.319C91.541,57.632,91.231,55.568,90.62,53.908z M71.081,42.823c-0.34-0.113-0.666-0.223-0.961-0.325
		c-1.622-0.561-2.796-1.119-3.59-1.709c-0.828-0.614-1.348-1.306-1.542-2.057c-0.176-0.684-0.266-1.58-0.266-2.662
		c0-1.242,0.252-2.354,0.749-3.305c0.496-0.95,1.189-1.741,2.057-2.351c0.852-0.599,1.852-1.055,2.971-1.353
		c0.191-0.051,0.387-0.092,0.582-0.135V42.823z M82.354,67.328c-1.16,1.109-2.777,1.824-4.808,2.152V53.453
		c0.327,0.114,0.657,0.229,0.95,0.336c1.654,0.598,2.957,1.215,3.877,1.838c0.961,0.65,1.623,1.408,1.966,2.25
		c0.33,0.813,0.497,1.815,0.497,2.98C84.837,63.578,84.002,65.754,82.354,67.328z"/>
	<path d="M50.325,67.29H23.19l0.703-0.825c1.715-2.011,3.266-4,4.426-5.509l22.387-29.093c0.134-0.173,0.207-0.39,0.207-0.609V25.58
		c0-0.551-0.448-1-1-1H11.845c-0.552,0-1,0.449-1,1v7.222c0,0.552,0.448,1,1,1H36.95l-0.706,0.825
		c-1.511,1.764-2.96,3.523-4.679,5.635L8.988,69.642c-0.133,0.174-0.206,0.39-0.206,0.607v5.262c0,0.551,0.448,1,1,1h40.543
		c0.552,0,1-0.449,1-1V68.29C51.325,67.738,50.877,67.29,50.325,67.29z"/>
</g>
</svg>
